<?xml version="1.0" encoding="UTF-8" standalone="no"?>
<!DOCTYPE svg PUBLIC "-//W3C//DTD SVG 1.1//EN"
 "http://www.w3.org/Graphics/SVG/1.1/DTD/svg11.dtd">
<!-- Generated by graphviz version 14.1.4 (20260321.0153)
 -->
<!-- Pages: 1 -->
<svg width="370pt" height="502pt"
 viewBox="0.00 0.00 370.00 502.00" xmlns="http://www.w3.org/2000/svg" xmlns:xlink="http://www.w3.org/1999/xlink">
<g id="graph0" class="graph" transform="scale(1 1) rotate(0) translate(4 498.25)">
<polygon fill="white" stroke="none" points="-4,4 -4,-498.25 365.5,-498.25 365.5,4 -4,4"/>
<!-- X -->
<g id="node1" class="node">
<title>X</title>
<polygon fill="none" stroke="black" points="36,-436 0,-436 0,-400 36,-400 36,-436"/>
<text xml:space="preserve" text-anchor="middle" x="18" y="-413.73" font-family="Courier,monospace" font-size="12.00">X</text>
</g>
<!-- W_q -->
<g id="node2" class="node">
<title>W_q</title>
<polygon fill="none" stroke="black" points="110.5,-437.25 72,-437.25 72,-398.75 110.5,-398.75 110.5,-437.25"/>
<text xml:space="preserve" text-anchor="middle" x="91.25" y="-413.73" font-family="Courier,monospace" font-size="12.00">W_Q</text>
</g>
<!-- X&#45;&gt;W_q -->
<g id="edge1" class="edge">
<title>X&#45;&gt;W_q</title>
<path fill="none" stroke="black" d="M36.48,-418C36.48,-418 60.23,-418 60.23,-418"/>
<polygon fill="black" stroke="black" points="60.23,-421.5 70.23,-418 60.23,-414.5 60.23,-421.5"/>
</g>
<!-- W_k -->
<g id="node3" class="node">
<title>W_k</title>
<polygon fill="none" stroke="black" points="110.5,-494.25 72,-494.25 72,-455.75 110.5,-455.75 110.5,-494.25"/>
<text xml:space="preserve" text-anchor="middle" x="91.25" y="-470.73" font-family="Courier,monospace" font-size="12.00">W_K</text>
</g>
<!-- X&#45;&gt;W_k -->
<g id="edge2" class="edge">
<title>X&#45;&gt;W_k</title>
<path fill="none" stroke="black" d="M17.5,-436.35C17.5,-453.01 17.5,-475 17.5,-475 17.5,-475 60.36,-475 60.36,-475"/>
<polygon fill="black" stroke="black" points="60.36,-478.5 70.36,-475 60.36,-471.5 60.36,-478.5"/>
</g>
<!-- W_v -->
<g id="node4" class="node">
<title>W_v</title>
<polygon fill="none" stroke="black" points="110.5,-275.25 72,-275.25 72,-236.75 110.5,-236.75 110.5,-275.25"/>
<text xml:space="preserve" text-anchor="middle" x="91.25" y="-251.72" font-family="Courier,monospace" font-size="12.00">W_V</text>
</g>
<!-- X&#45;&gt;W_v -->
<g id="edge3" class="edge">
<title>X&#45;&gt;W_v</title>
<path fill="none" stroke="black" d="M17.5,-399.73C17.5,-357.36 17.5,-256 17.5,-256 17.5,-256 60.36,-256 60.36,-256"/>
<polygon fill="black" stroke="black" points="60.36,-259.5 70.36,-256 60.36,-252.5 60.36,-259.5"/>
</g>
<!-- Q -->
<g id="node5" class="node">
<title>Q</title>
<polygon fill="none" stroke="black" points="182.5,-437 146.5,-437 146.5,-401 182.5,-401 182.5,-437"/>
<text xml:space="preserve" text-anchor="middle" x="164.5" y="-414.73" font-family="Courier,monospace" font-size="12.00">Q</text>
</g>
<!-- W_q&#45;&gt;Q -->
<g id="edge4" class="edge">
<title>W_q&#45;&gt;Q</title>
<path fill="none" stroke="black" d="M110.88,-419C110.88,-419 134.81,-419 134.81,-419"/>
<polygon fill="black" stroke="black" points="134.81,-422.5 144.81,-419 134.81,-415.5 134.81,-422.5"/>
</g>
<!-- K -->
<g id="node6" class="node">
<title>K</title>
<polygon fill="none" stroke="black" points="182.5,-493 146.5,-493 146.5,-457 182.5,-457 182.5,-493"/>
<text xml:space="preserve" text-anchor="middle" x="164.5" y="-470.73" font-family="Courier,monospace" font-size="12.00">K</text>
</g>
<!-- W_k&#45;&gt;K -->
<g id="edge5" class="edge">
<title>W_k&#45;&gt;K</title>
<path fill="none" stroke="black" d="M110.88,-475C110.88,-475 134.81,-475 134.81,-475"/>
<polygon fill="black" stroke="black" points="134.81,-478.5 144.81,-475 134.81,-471.5 134.81,-478.5"/>
</g>
<!-- V -->
<g id="node7" class="node">
<title>V</title>
<polygon fill="none" stroke="black" points="182.5,-221 146.5,-221 146.5,-185 182.5,-185 182.5,-221"/>
<text xml:space="preserve" text-anchor="middle" x="164.5" y="-198.72" font-family="Courier,monospace" font-size="12.00">V</text>
</g>
<!-- W_v&#45;&gt;V -->
<g id="edge6" class="edge">
<title>W_v&#45;&gt;V</title>
<path fill="none" stroke="black" d="M110.88,-242C132.58,-242 164.5,-242 164.5,-242 164.5,-242 164.5,-232.64 164.5,-232.64"/>
<polygon fill="black" stroke="black" points="168,-232.64 164.5,-222.64 161,-232.64 168,-232.64"/>
</g>
<!-- QK -->
<g id="node9" class="node">
<title>QK</title>
<polygon fill="none" stroke="black" points="272,-439.25 233.5,-439.25 233.5,-400.75 272,-400.75 272,-439.25"/>
<text xml:space="preserve" text-anchor="middle" x="252.75" y="-415.73" font-family="Courier,monospace" font-size="12.00">QKᵀ</text>
</g>
<!-- Q&#45;&gt;QK -->
<g id="edge7" class="edge">
<title>Q&#45;&gt;QK</title>
<path fill="none" stroke="black" d="M182.79,-419C182.79,-419 221.75,-419 221.75,-419"/>
<polygon fill="black" stroke="black" points="221.75,-422.5 231.75,-419 221.75,-415.5 221.75,-422.5"/>
</g>
<!-- K_T -->
<g id="node8" class="node">
<title>K_T</title>
<polygon fill="none" stroke="black" points="270.75,-493 234.75,-493 234.75,-457 270.75,-457 270.75,-493"/>
<text xml:space="preserve" text-anchor="middle" x="252.75" y="-470.73" font-family="Courier,monospace" font-size="12.00">Kᵀ</text>
</g>
<!-- K&#45;&gt;K_T -->
<g id="edge8" class="edge">
<title>K&#45;&gt;K_T</title>
<path fill="none" stroke="black" d="M182.79,-475C182.79,-475 222.97,-475 222.97,-475"/>
<polygon fill="black" stroke="black" points="222.97,-478.5 232.97,-475 222.97,-471.5 222.97,-478.5"/>
</g>
<!-- AV -->
<g id="node14" class="node">
<title>AV</title>
<polygon fill="none" stroke="black" points="360.25,-146 324.25,-146 324.25,-110 360.25,-110 360.25,-146"/>
<text xml:space="preserve" text-anchor="middle" x="342.25" y="-123.72" font-family="Courier,monospace" font-size="12.00">AV</text>
</g>
<!-- V&#45;&gt;AV -->
<g id="edge15" class="edge">
<title>V&#45;&gt;AV</title>
<path fill="none" stroke="black" d="M164.5,-184.64C164.5,-164.35 164.5,-134.5 164.5,-134.5 164.5,-134.5 312.38,-134.5 312.38,-134.5"/>
<polygon fill="black" stroke="black" points="312.38,-138 322.38,-134.5 312.38,-131 312.38,-138"/>
</g>
<!-- K_T&#45;&gt;QK -->
<g id="edge9" class="edge">
<title>K_T&#45;&gt;QK</title>
<path fill="none" stroke="black" d="M252.5,-456.69C252.5,-456.69 252.5,-451.07 252.5,-451.07"/>
<polygon fill="black" stroke="black" points="256,-451.07 252.5,-441.07 249,-451.07 256,-451.07"/>
</g>
<!-- SCALE -->
<g id="node10" class="node">
<title>SCALE</title>
<polygon fill="none" stroke="black" points="279.5,-382.75 226,-382.75 226,-329.25 279.5,-329.25 279.5,-382.75"/>
<text xml:space="preserve" text-anchor="middle" x="252.75" y="-351.73" font-family="Courier,monospace" font-size="12.00">÷√d_k</text>
</g>
<!-- QK&#45;&gt;SCALE -->
<g id="edge10" class="edge">
<title>QK&#45;&gt;SCALE</title>
<path fill="none" stroke="black" d="M252.5,-400.45C252.5,-400.45 252.5,-394.72 252.5,-394.72"/>
<polygon fill="black" stroke="black" points="256,-394.72 252.5,-384.72 249,-394.72 256,-394.72"/>
</g>
<!-- MASK -->
<g id="node11" class="node">
<title>MASK</title>
<polygon fill="none" stroke="black" points="275.75,-311 229.75,-311 229.75,-265 275.75,-265 275.75,-311"/>
<text xml:space="preserve" text-anchor="middle" x="252.75" y="-283.73" font-family="Courier,monospace" font-size="12.00">mask</text>
</g>
<!-- SCALE&#45;&gt;MASK -->
<g id="edge11" class="edge">
<title>SCALE&#45;&gt;MASK</title>
<path fill="none" stroke="black" d="M252.5,-329.12C252.5,-329.12 252.5,-322.68 252.5,-322.68"/>
<polygon fill="black" stroke="black" points="256,-322.68 252.5,-312.68 249,-322.68 256,-322.68"/>
</g>
<!-- SOFTMAX -->
<g id="node12" class="node">
<title>SOFTMAX</title>
<polygon fill="none" stroke="black" points="287,-247.25 218.5,-247.25 218.5,-178.75 287,-178.75 287,-247.25"/>
<text xml:space="preserve" text-anchor="middle" x="252.75" y="-208.72" font-family="Courier,monospace" font-size="12.00">softmax</text>
</g>
<!-- MASK&#45;&gt;SOFTMAX -->
<g id="edge12" class="edge">
<title>MASK&#45;&gt;SOFTMAX</title>
<path fill="none" stroke="black" d="M252.5,-264.68C252.5,-264.68 252.5,-259.11 252.5,-259.11"/>
<polygon fill="black" stroke="black" points="256,-259.11 252.5,-249.11 249,-259.11 256,-259.11"/>
</g>
<!-- ATTN -->
<g id="node13" class="node">
<title>ATTN</title>
<polygon fill="none" stroke="black" points="270.75,-123 234.75,-123 234.75,-87 270.75,-87 270.75,-123"/>
<text xml:space="preserve" text-anchor="middle" x="252.75" y="-100.72" font-family="Courier,monospace" font-size="12.00">A</text>
</g>
<!-- SOFTMAX&#45;&gt;ATTN -->
<g id="edge13" class="edge">
<title>SOFTMAX&#45;&gt;ATTN</title>
<path fill="none" stroke="black" d="M252.5,-178.53C252.5,-178.53 252.5,-134.98 252.5,-134.98"/>
<polygon fill="black" stroke="black" points="256,-134.98 252.5,-124.98 249,-134.98 256,-134.98"/>
</g>
<!-- ATTN&#45;&gt;AV -->
<g id="edge14" class="edge">
<title>ATTN&#45;&gt;AV</title>
<path fill="none" stroke="black" d="M270.86,-116.5C270.86,-116.5 312.34,-116.5 312.34,-116.5"/>
<polygon fill="black" stroke="black" points="312.34,-120 322.34,-116.5 312.34,-113 312.34,-120"/>
</g>
<!-- W_o -->
<g id="node15" class="node">
<title>W_o</title>
<polygon fill="none" stroke="black" points="361.5,-92.25 323,-92.25 323,-53.75 361.5,-53.75 361.5,-92.25"/>
<text xml:space="preserve" text-anchor="middle" x="342.25" y="-68.72" font-family="Courier,monospace" font-size="12.00">W_O</text>
</g>
<!-- AV&#45;&gt;W_o -->
<g id="edge16" class="edge">
<title>AV&#45;&gt;W_o</title>
<path fill="none" stroke="black" d="M342.5,-109.69C342.5,-109.69 342.5,-104.07 342.5,-104.07"/>
<polygon fill="black" stroke="black" points="346,-104.07 342.5,-94.07 339,-104.07 346,-104.07"/>
</g>
<!-- OUT -->
<g id="node16" class="node">
<title>OUT</title>
<polygon fill="none" stroke="black" points="360.25,-36 324.25,-36 324.25,0 360.25,0 360.25,-36"/>
<text xml:space="preserve" text-anchor="middle" x="342.25" y="-13.72" font-family="Courier,monospace" font-size="12.00">O</text>
</g>
<!-- W_o&#45;&gt;OUT -->
<g id="edge17" class="edge">
<title>W_o&#45;&gt;OUT</title>
<path fill="none" stroke="black" d="M342.5,-53.45C342.5,-53.45 342.5,-47.89 342.5,-47.89"/>
<polygon fill="black" stroke="black" points="346,-47.89 342.5,-37.89 339,-47.89 346,-47.89"/>
</g>
</g>
</svg>
