<?xml version="1.0" encoding="UTF-8" standalone="no"?>
<!DOCTYPE svg PUBLIC "-//W3C//DTD SVG 1.1//EN"
 "http://www.w3.org/Graphics/SVG/1.1/DTD/svg11.dtd">
<!-- Generated by graphviz version 14.1.4 (20260321.0153)
 -->
<!-- Pages: 1 -->
<svg width="502pt" height="365pt"
 viewBox="0.00 0.00 502.00 365.00" xmlns="http://www.w3.org/2000/svg" xmlns:xlink="http://www.w3.org/1999/xlink">
<g id="graph0" class="graph" transform="scale(1 1) rotate(0) translate(4 361)">
<polygon fill="white" stroke="none" points="-4,4 -4,-361 497.5,-361 497.5,4 -4,4"/>
<!-- X -->
<g id="node1" class="node">
<title>X</title>
<polygon fill="none" stroke="blue" points="36,-303 0,-303 0,-267 36,-267 36,-303"/>
<text xml:space="preserve" text-anchor="middle" x="18" y="-280.73" font-family="Courier,monospace" font-size="12.00">x</text>
</g>
<!-- MUL -->
<g id="node3" class="node">
<title>MUL</title>
<polygon fill="none" stroke="blue" points="108,-304 72,-304 72,-268 108,-268 108,-304"/>
<text xml:space="preserve" text-anchor="middle" x="90" y="-281.73" font-family="Courier,monospace" font-size="12.00">×</text>
</g>
<!-- X&#45;&gt;MUL -->
<g id="edge1" class="edge">
<title>X&#45;&gt;MUL</title>
<path fill="none" stroke="blue" d="M36.17,-285.5C36.17,-285.5 60.07,-285.5 60.07,-285.5"/>
<polygon fill="blue" stroke="blue" points="60.07,-289 70.07,-285.5 60.07,-282 60.07,-289"/>
</g>
<!-- W -->
<g id="node2" class="node">
<title>W</title>
<polygon fill="none" stroke="blue" points="36,-357 0,-357 0,-321 36,-321 36,-357"/>
<text xml:space="preserve" text-anchor="middle" x="18" y="-334.73" font-family="Courier,monospace" font-size="12.00">w</text>
</g>
<!-- W&#45;&gt;MUL -->
<g id="edge2" class="edge">
<title>W&#45;&gt;MUL</title>
<path fill="none" stroke="blue" d="M36.41,-331.38C57.6,-331.38 89.5,-331.38 89.5,-331.38 89.5,-331.38 89.5,-315.97 89.5,-315.97"/>
<polygon fill="blue" stroke="blue" points="93,-315.97 89.5,-305.97 86,-315.97 93,-315.97"/>
</g>
<!-- WX -->
<g id="node4" class="node">
<title>WX</title>
<polygon fill="none" stroke="blue" points="182.5,-305.25 144,-305.25 144,-266.75 182.5,-266.75 182.5,-305.25"/>
<text xml:space="preserve" text-anchor="middle" x="163.25" y="-281.73" font-family="Courier,monospace" font-size="12.00">w·x</text>
</g>
<!-- MUL&#45;&gt;WX -->
<g id="edge3" class="edge">
<title>MUL&#45;&gt;WX</title>
<path fill="none" stroke="blue" d="M108.48,-292C108.48,-292 132.23,-292 132.23,-292"/>
<polygon fill="blue" stroke="blue" points="132.23,-295.5 142.23,-292 132.23,-288.5 132.23,-295.5"/>
</g>
<!-- ADD -->
<g id="node6" class="node">
<title>ADD</title>
<polygon fill="none" stroke="blue" points="108,-249 72,-249 72,-213 108,-213 108,-249"/>
<text xml:space="preserve" text-anchor="middle" x="90" y="-226.72" font-family="Courier,monospace" font-size="12.00">+</text>
</g>
<!-- WX&#45;&gt;ADD -->
<g id="edge4" class="edge">
<title>WX&#45;&gt;ADD</title>
<path fill="none" stroke="blue" d="M143.93,-280C134.64,-280 125.5,-280 125.5,-280 125.5,-280 125.5,-224.67 125.5,-224.67 125.5,-224.67 119.68,-224.67 119.68,-224.67"/>
<polygon fill="blue" stroke="blue" points="119.68,-221.17 109.68,-224.67 119.68,-228.17 119.68,-221.17"/>
</g>
<!-- dWX_dW -->
<g id="node14" class="node">
<title>dWX_dW</title>
<polygon fill="none" stroke="red" points="493.5,-341.75 410,-341.75 410,-258.25 493.5,-258.25 493.5,-341.75"/>
<text xml:space="preserve" text-anchor="middle" x="451.75" y="-295.73" font-family="Courier,monospace" font-size="12.00">∂(w·x)/∂w</text>
</g>
<!-- WX&#45;&gt;dWX_dW -->
<g id="edge13" class="edge">
<title>WX&#45;&gt;dWX_dW</title>
<path fill="none" stroke="red" d="M194.14,-292.42C194.14,-292.42 409.6,-292.42 409.6,-292.42"/>
<polygon fill="red" stroke="red" points="194.14,-288.92 184.14,-292.42 194.14,-295.92 194.14,-288.92"/>
</g>
<!-- dWX_dX -->
<g id="node15" class="node">
<title>dWX_dX</title>
<polygon fill="none" stroke="red" points="493.5,-137.75 410,-137.75 410,-54.25 493.5,-54.25 493.5,-137.75"/>
<text xml:space="preserve" text-anchor="middle" x="451.75" y="-91.72" font-family="Courier,monospace" font-size="12.00">∂(w·x)/∂x</text>
</g>
<!-- WX&#45;&gt;dWX_dX -->
<g id="edge14" class="edge">
<title>WX&#45;&gt;dWX_dX</title>
<path fill="none" stroke="red" d="M194.28,-279.58C194.28,-279.58 297.5,-279.58 297.5,-279.58 297.5,-279.58 297.5,-123 297.5,-123 297.5,-123 363.93,-123 409.6,-123"/>
<polygon fill="red" stroke="red" points="194.28,-276.08 184.28,-279.58 194.28,-283.08 194.28,-276.08"/>
</g>
<!-- BIAS -->
<g id="node5" class="node">
<title>BIAS</title>
<polygon fill="none" stroke="blue" points="36,-249 0,-249 0,-213 36,-213 36,-249"/>
<text xml:space="preserve" text-anchor="middle" x="18" y="-226.72" font-family="Courier,monospace" font-size="12.00">b</text>
</g>
<!-- BIAS&#45;&gt;ADD -->
<g id="edge5" class="edge">
<title>BIAS&#45;&gt;ADD</title>
<path fill="none" stroke="blue" d="M36.17,-231C36.17,-231 60.07,-231 60.07,-231"/>
<polygon fill="blue" stroke="blue" points="60.07,-234.5 70.07,-231 60.07,-227.5 60.07,-234.5"/>
</g>
<!-- Z -->
<g id="node7" class="node">
<title>Z</title>
<polygon fill="none" stroke="blue" points="181.25,-248 145.25,-248 145.25,-212 181.25,-212 181.25,-248"/>
<text xml:space="preserve" text-anchor="middle" x="163.25" y="-225.72" font-family="Courier,monospace" font-size="12.00">z</text>
</g>
<!-- ADD&#45;&gt;Z -->
<g id="edge6" class="edge">
<title>ADD&#45;&gt;Z</title>
<path fill="none" stroke="blue" d="M108.48,-236.33C108.48,-236.33 133.26,-236.33 133.26,-236.33"/>
<polygon fill="blue" stroke="blue" points="133.26,-239.83 143.26,-236.33 133.26,-232.83 133.26,-239.83"/>
</g>
<!-- SIGMOID -->
<g id="node8" class="node">
<title>SIGMOID</title>
<polygon fill="none" stroke="blue" points="254.5,-248 218.5,-248 218.5,-212 254.5,-212 254.5,-248"/>
<text xml:space="preserve" text-anchor="middle" x="236.5" y="-225.72" font-family="Courier,monospace" font-size="12.00">σ</text>
</g>
<!-- Z&#45;&gt;SIGMOID -->
<g id="edge7" class="edge">
<title>Z&#45;&gt;SIGMOID</title>
<path fill="none" stroke="blue" d="M181.73,-230C181.73,-230 206.51,-230 206.51,-230"/>
<polygon fill="blue" stroke="blue" points="206.51,-233.5 216.51,-230 206.51,-226.5 206.51,-233.5"/>
</g>
<!-- dZ_dWX -->
<g id="node13" class="node">
<title>dZ_dWX</title>
<polygon fill="none" stroke="red" points="374,-113.75 290.5,-113.75 290.5,-30.25 374,-30.25 374,-113.75"/>
<text xml:space="preserve" text-anchor="middle" x="332.25" y="-67.72" font-family="Courier,monospace" font-size="12.00">∂z/∂(w·x)</text>
</g>
<!-- Z&#45;&gt;dZ_dWX -->
<g id="edge12" class="edge">
<title>Z&#45;&gt;dZ_dWX</title>
<path fill="none" stroke="red" d="M163.5,-200.12C163.5,-200.12 163.5,-67.12 163.5,-67.12 163.5,-67.12 240.12,-67.12 290.1,-67.12"/>
<polygon fill="red" stroke="red" points="160,-200.12 163.5,-210.12 167,-200.12 160,-200.12"/>
</g>
<!-- Y -->
<g id="node9" class="node">
<title>Y</title>
<polygon fill="none" stroke="blue" points="254.5,-194 218.5,-194 218.5,-158 254.5,-158 254.5,-194"/>
<text xml:space="preserve" text-anchor="middle" x="236.5" y="-171.72" font-family="Courier,monospace" font-size="12.00">y</text>
</g>
<!-- SIGMOID&#45;&gt;Y -->
<g id="edge8" class="edge">
<title>SIGMOID&#45;&gt;Y</title>
<path fill="none" stroke="blue" d="M236.5,-211.72C236.5,-211.72 236.5,-205.78 236.5,-205.78"/>
<polygon fill="blue" stroke="blue" points="240,-205.78 236.5,-195.78 233,-205.78 240,-205.78"/>
</g>
<!-- LOSS -->
<g id="node10" class="node">
<title>LOSS</title>
<polygon fill="none" stroke="blue" points="254.5,-140 218.5,-140 218.5,-104 254.5,-104 254.5,-140"/>
<text xml:space="preserve" text-anchor="middle" x="236.5" y="-117.72" font-family="Courier,monospace" font-size="12.00">L</text>
</g>
<!-- Y&#45;&gt;LOSS -->
<g id="edge9" class="edge">
<title>Y&#45;&gt;LOSS</title>
<path fill="none" stroke="blue" d="M236.5,-157.72C236.5,-157.72 236.5,-151.78 236.5,-151.78"/>
<polygon fill="blue" stroke="blue" points="240,-151.78 236.5,-141.78 233,-151.78 240,-151.78"/>
</g>
<!-- dY_dZ -->
<g id="node12" class="node">
<title>dY_dZ</title>
<polygon fill="none" stroke="red" points="359,-185.75 305.5,-185.75 305.5,-132.25 359,-132.25 359,-185.75"/>
<text xml:space="preserve" text-anchor="middle" x="332.25" y="-154.72" font-family="Courier,monospace" font-size="12.00">∂y/∂z</text>
</g>
<!-- Y&#45;&gt;dY_dZ -->
<g id="edge11" class="edge">
<title>Y&#45;&gt;dY_dZ</title>
<path fill="none" stroke="red" d="M266.48,-171.88C266.48,-171.88 305.15,-171.88 305.15,-171.88"/>
<polygon fill="red" stroke="red" points="266.48,-168.38 256.48,-171.88 266.48,-175.38 266.48,-168.38"/>
</g>
<!-- dL_dY -->
<g id="node11" class="node">
<title>dL_dY</title>
<polygon fill="none" stroke="red" points="359,-257.75 305.5,-257.75 305.5,-204.25 359,-204.25 359,-257.75"/>
<text xml:space="preserve" text-anchor="middle" x="332.25" y="-226.72" font-family="Courier,monospace" font-size="12.00">∂L/∂y</text>
</g>
<!-- LOSS&#45;&gt;dL_dY -->
<g id="edge10" class="edge">
<title>LOSS&#45;&gt;dL_dY</title>
<path fill="none" stroke="red" d="M266.44,-136.12C266.44,-136.12 272.5,-136.12 272.5,-136.12 272.5,-136.12 272.5,-208.12 272.5,-208.12 272.5,-208.12 289.36,-208.12 305.17,-208.12"/>
<polygon fill="red" stroke="red" points="266.44,-132.63 256.44,-136.13 266.44,-139.63 266.44,-132.63"/>
</g>
<!-- dL_dY&#45;&gt;dY_dZ -->
<g id="edge15" class="edge">
<title>dL_dY&#45;&gt;dY_dZ</title>
<path fill="none" stroke="red" d="M332.5,-192.27C332.5,-192.27 332.5,-185.78 332.5,-185.78"/>
<polygon fill="red" stroke="red" points="329,-192.27 332.5,-202.27 336,-192.27 329,-192.27"/>
</g>
<!-- dY_dZ&#45;&gt;dZ_dWX -->
<g id="edge16" class="edge">
<title>dY_dZ&#45;&gt;dZ_dWX</title>
<path fill="none" stroke="red" d="M332.5,-120.44C332.5,-120.44 332.5,-114.05 332.5,-114.05"/>
<polygon fill="red" stroke="red" points="329,-120.44 332.5,-130.44 336,-120.44 329,-120.44"/>
</g>
<!-- dZ_dWX&#45;&gt;dWX_dW -->
<g id="edge17" class="edge">
<title>dZ_dWX&#45;&gt;dWX_dW</title>
<path fill="none" stroke="red" d="M366.5,-125.32C366.5,-125.32 366.5,-262.5 366.5,-262.5 366.5,-262.5 388.15,-262.5 409.62,-262.5"/>
<polygon fill="red" stroke="red" points="370,-125.32 366.5,-115.32 363,-125.32 370,-125.32"/>
</g>
<!-- dZ_dWX&#45;&gt;dWX_dX -->
<g id="edge18" class="edge">
<title>dZ_dWX&#45;&gt;dWX_dX</title>
<path fill="none" stroke="red" d="M385.89,-84C385.89,-84 409.6,-84 409.6,-84"/>
<polygon fill="red" stroke="red" points="385.89,-80.5 375.89,-84 385.89,-87.5 385.89,-80.5"/>
</g>
<!-- GRAD_W -->
<g id="node16" class="node">
<title>GRAD_W</title>
<polygon fill="none" stroke="red" points="469.75,-240 433.75,-240 433.75,-204 469.75,-204 469.75,-240"/>
<text xml:space="preserve" text-anchor="middle" x="451.75" y="-218.1" font-family="Courier,monospace" font-size="12.00">∇w</text>
</g>
<!-- dWX_dW&#45;&gt;GRAD_W -->
<g id="edge19" class="edge">
<title>dWX_dW&#45;&gt;GRAD_W</title>
<path fill="none" stroke="red" d="M451.5,-246.29C451.5,-246.29 451.5,-240.23 451.5,-240.23"/>
<polygon fill="red" stroke="red" points="448,-246.29 451.5,-256.29 455,-246.29 448,-246.29"/>
</g>
<!-- GRAD_X -->
<g id="node17" class="node">
<title>GRAD_X</title>
<polygon fill="none" stroke="red" points="469.75,-36 433.75,-36 433.75,0 469.75,0 469.75,-36"/>
<text xml:space="preserve" text-anchor="middle" x="451.75" y="-14.1" font-family="Courier,monospace" font-size="12.00">∇x</text>
</g>
<!-- dWX_dX&#45;&gt;GRAD_X -->
<g id="edge20" class="edge">
<title>dWX_dX&#45;&gt;GRAD_X</title>
<path fill="none" stroke="red" d="M451.5,-42.29C451.5,-42.29 451.5,-36.23 451.5,-36.23"/>
<polygon fill="red" stroke="red" points="448,-42.29 451.5,-52.29 455,-42.29 448,-42.29"/>
</g>
</g>
</svg>
