<?xml version="1.0" encoding="UTF-8" standalone="no"?>
<!DOCTYPE svg PUBLIC "-//W3C//DTD SVG 1.1//EN"
 "http://www.w3.org/Graphics/SVG/1.1/DTD/svg11.dtd">
<!-- Generated by graphviz version 14.1.4 (20260321.0153)
 -->
<!-- Pages: 1 -->
<svg width="985pt" height="568pt"
 viewBox="0.00 0.00 985.00 568.00" xmlns="http://www.w3.org/2000/svg" xmlns:xlink="http://www.w3.org/1999/xlink">
<g id="graph0" class="graph" transform="scale(1 1) rotate(0) translate(4 564.25)">
<polygon fill="white" stroke="none" points="-4,4 -4,-564.25 981,-564.25 981,4 -4,4"/>
<!-- arr_binary -->
<g id="node1" class="node">
<title>arr_binary</title>
<polygon fill="none" stroke="black" points="76,-560.25 0,-560.25 0,-484.25 76,-484.25 76,-560.25"/>
<text xml:space="preserve" text-anchor="middle" x="38" y="-525.1" font-family="Courier,monospace" font-size="12.00">arr[n]</text>
<text xml:space="preserve" text-anchor="middle" x="38" y="-510.85" font-family="Courier,monospace" font-size="12.00">(sorted)</text>
</g>
<!-- binary -->
<g id="node3" class="node">
<title>binary</title>
<polygon fill="none" stroke="black" points="297.5,-501 184,-501 184,-387.5 297.5,-387.5 297.5,-501"/>
<text xml:space="preserve" text-anchor="middle" x="240.75" y="-447.1" font-family="Courier,monospace" font-size="12.00">Binary Search</text>
<text xml:space="preserve" text-anchor="middle" x="240.75" y="-432.85" font-family="Courier,monospace" font-size="12.00">O(log n)</text>
</g>
<!-- arr_binary&#45;&gt;binary -->
<g id="edge1" class="edge">
<title>arr_binary&#45;&gt;binary</title>
<path fill="none" stroke="black" d="M76.14,-492.62C76.14,-492.62 172.1,-492.62 172.1,-492.62"/>
<polygon fill="black" stroke="black" points="172.1,-496.13 182.1,-492.63 172.1,-489.13 172.1,-496.13"/>
</g>
<!-- target_binary -->
<g id="node2" class="node">
<title>target_binary</title>
<polygon fill="none" stroke="black" points="68.5,-397.75 7.5,-397.75 7.5,-336.75 68.5,-336.75 68.5,-397.75"/>
<text xml:space="preserve" text-anchor="middle" x="38" y="-362.98" font-family="Courier,monospace" font-size="12.00">target</text>
</g>
<!-- target_binary&#45;&gt;binary -->
<g id="edge2" class="edge">
<title>target_binary&#45;&gt;binary</title>
<path fill="none" stroke="black" d="M68.79,-392.62C68.79,-392.62 171.99,-392.62 171.99,-392.62"/>
<polygon fill="black" stroke="black" points="171.99,-396.13 181.99,-392.63 171.99,-389.13 171.99,-396.13"/>
</g>
<!-- mid -->
<g id="node4" class="node">
<title>mid</title>
<polygon fill="none" stroke="black" points="526.5,-493.5 428,-493.5 428,-395 526.5,-395 526.5,-493.5"/>
<text xml:space="preserve" text-anchor="middle" x="477.25" y="-439.98" font-family="Courier,monospace" font-size="12.00">mid=(L+R)/2</text>
</g>
<!-- binary&#45;&gt;mid -->
<g id="edge3" class="edge">
<title>binary&#45;&gt;mid</title>
<path fill="none" stroke="black" d="M297.7,-444.25C297.7,-444.25 416.1,-444.25 416.1,-444.25"/>
<polygon fill="black" stroke="black" points="416.1,-447.75 426.1,-444.25 416.1,-440.75 416.1,-447.75"/>
</g>
<!-- compare -->
<g id="node5" class="node">
<title>compare</title>
<polygon fill="none" stroke="black" points="549,-309 405.5,-309 405.5,-165.5 549,-165.5 549,-309"/>
<text xml:space="preserve" text-anchor="middle" x="477.25" y="-232.97" font-family="Courier,monospace" font-size="12.00">arr[mid] ? target</text>
</g>
<!-- mid&#45;&gt;compare -->
<g id="edge4" class="edge">
<title>mid&#45;&gt;compare</title>
<path fill="none" stroke="black" d="M477,-394.67C477,-394.67 477,-320.66 477,-320.66"/>
<polygon fill="black" stroke="black" points="480.5,-320.66 477,-310.66 473.5,-320.66 480.5,-320.66"/>
</g>
<!-- left -->
<g id="node6" class="node">
<title>left</title>
<polygon fill="none" stroke="black" points="759.25,-98.5 660.75,-98.5 660.75,0 759.25,0 759.25,-98.5"/>
<text xml:space="preserve" text-anchor="middle" x="710" y="-44.98" font-family="Courier,monospace" font-size="12.00">Search left</text>
</g>
<!-- compare&#45;&gt;left -->
<g id="edge5" class="edge">
<title>compare&#45;&gt;left</title>
<path fill="none" stroke="black" d="M549.42,-171.75C612.48,-171.75 694,-171.75 694,-171.75 694,-171.75 694,-110.24 694,-110.24"/>
<polygon fill="black" stroke="black" points="697.5,-110.24 694,-100.24 690.5,-110.24 697.5,-110.24"/>
</g>
<!-- right -->
<g id="node7" class="node">
<title>right</title>
<polygon fill="none" stroke="black" points="763,-290.25 657,-290.25 657,-184.25 763,-184.25 763,-290.25"/>
<text xml:space="preserve" text-anchor="middle" x="710" y="-232.97" font-family="Courier,monospace" font-size="12.00">Search right</text>
</g>
<!-- compare&#45;&gt;right -->
<g id="edge6" class="edge">
<title>compare&#45;&gt;right</title>
<path fill="none" stroke="black" d="M549.3,-237.25C549.3,-237.25 645.25,-237.25 645.25,-237.25"/>
<polygon fill="black" stroke="black" points="645.25,-240.75 655.25,-237.25 645.25,-233.75 645.25,-240.75"/>
</g>
<!-- found_b -->
<g id="node8" class="node">
<title>found_b</title>
<polygon fill="none" stroke="black" points="977,-290.25 871,-290.25 871,-184.25 977,-184.25 977,-290.25"/>
<text xml:space="preserve" text-anchor="middle" x="924" y="-232.97" font-family="Courier,monospace" font-size="12.00">Found at mid</text>
</g>
<!-- compare&#45;&gt;found_b -->
<g id="edge7" class="edge">
<title>compare&#45;&gt;found_b</title>
<path fill="none" stroke="black" stroke-dasharray="5,2" d="M549.28,-178C663.9,-178 875,-178 875,-178 875,-178 875,-178.59 875,-178.59"/>
<polygon fill="black" stroke="black" points="871.5,-172.38 875,-182.38 878.5,-172.38 871.5,-172.38"/>
</g>
<!-- left&#45;&gt;mid -->
<g id="edge12" class="edge">
<title>left&#45;&gt;mid</title>
<path fill="none" stroke="black" stroke-dasharray="1,5" d="M660.26,-49.25C632.32,-49.25 603,-49.25 603,-49.25 603,-49.25 603,-427.83 603,-427.83 603,-427.83 538.46,-427.83 538.46,-427.83"/>
<polygon fill="black" stroke="black" points="538.46,-424.33 528.46,-427.83 538.46,-431.33 538.46,-424.33"/>
</g>
<!-- left&#45;&gt;found_b -->
<g id="edge10" class="edge">
<title>left&#45;&gt;found_b</title>
<path fill="none" stroke="black" stroke-dasharray="5,2" d="M759.5,-67.17C809.05,-67.17 878,-67.17 878,-67.17 878,-67.17 878,-172.39 878,-172.39"/>
<polygon fill="black" stroke="black" points="874.5,-172.39 878,-182.39 881.5,-172.39 874.5,-172.39"/>
</g>
<!-- notfound_b -->
<g id="node9" class="node">
<title>notfound_b</title>
<polygon fill="none" stroke="black" points="965.75,-95 882.25,-95 882.25,-11.5 965.75,-11.5 965.75,-95"/>
<text xml:space="preserve" text-anchor="middle" x="924" y="-48.98" font-family="Courier,monospace" font-size="12.00">Not found</text>
</g>
<!-- left&#45;&gt;notfound_b -->
<g id="edge8" class="edge">
<title>left&#45;&gt;notfound_b</title>
<path fill="none" stroke="black" stroke-dasharray="5,2" d="M759.63,-39.33C759.63,-39.33 870.33,-39.33 870.33,-39.33"/>
<polygon fill="black" stroke="black" points="870.33,-42.83 880.33,-39.33 870.33,-35.83 870.33,-42.83"/>
</g>
<!-- right&#45;&gt;mid -->
<g id="edge13" class="edge">
<title>right&#45;&gt;mid</title>
<path fill="none" stroke="black" stroke-dasharray="1,5" d="M710,-290.48C710,-356.56 710,-460.67 710,-460.67 710,-460.67 538.41,-460.67 538.41,-460.67"/>
<polygon fill="black" stroke="black" points="538.41,-457.17 528.41,-460.67 538.41,-464.17 538.41,-457.17"/>
</g>
<!-- right&#45;&gt;found_b -->
<g id="edge11" class="edge">
<title>right&#45;&gt;found_b</title>
<path fill="none" stroke="black" stroke-dasharray="5,2" d="M763.45,-237.25C763.45,-237.25 859.35,-237.25 859.35,-237.25"/>
<polygon fill="black" stroke="black" points="859.35,-240.75 869.35,-237.25 859.35,-233.75 859.35,-240.75"/>
</g>
<!-- right&#45;&gt;notfound_b -->
<g id="edge9" class="edge">
<title>right&#45;&gt;notfound_b</title>
<path fill="none" stroke="black" stroke-dasharray="5,2" d="M726,-184.01C726,-157.9 726,-132 726,-132 726,-132 924,-132 924,-132 924,-132 924,-106.91 924,-106.91"/>
<polygon fill="black" stroke="black" points="927.5,-106.91 924,-96.91 920.5,-106.91 927.5,-106.91"/>
</g>
</g>
</svg>
