<?xml version="1.0" encoding="UTF-8" standalone="no"?>
<!DOCTYPE svg PUBLIC "-//W3C//DTD SVG 1.1//EN"
 "http://www.w3.org/Graphics/SVG/1.1/DTD/svg11.dtd">
<!-- Generated by graphviz version 14.1.4 (20260321.0153)
 -->
<!-- Pages: 1 -->
<svg width="191pt" height="157pt"
 viewBox="0.00 0.00 191.00 157.00" xmlns="http://www.w3.org/2000/svg" xmlns:xlink="http://www.w3.org/1999/xlink">
<g id="graph0" class="graph" transform="scale(1 1) rotate(0) translate(4 153.25)">
<polygon fill="white" stroke="none" points="-4,4 -4,-153.25 186.5,-153.25 186.5,4 -4,4"/>
<!-- AND -->
<g id="node1" class="node">
<title>AND</title>
<polygon fill="none" stroke="black" points="108,-91 72,-91 72,-55 108,-55 108,-91"/>
<text xml:space="preserve" text-anchor="middle" x="90" y="-68.72" font-family="Courier,monospace" font-size="12.00">∧</text>
</g>
<!-- OUT_AND -->
<g id="node6" class="node">
<title>OUT_AND</title>
<polygon fill="none" stroke="black" points="182.5,-92.25 144,-92.25 144,-53.75 182.5,-53.75 182.5,-92.25"/>
<text xml:space="preserve" text-anchor="middle" x="163.25" y="-69.1" font-family="Courier,monospace" font-size="12.00">A∧B</text>
</g>
<!-- AND&#45;&gt;OUT_AND -->
<g id="edge6" class="edge">
<title>AND&#45;&gt;OUT_AND</title>
<path fill="none" stroke="black" d="M108.48,-73C108.48,-73 132.23,-73 132.23,-73"/>
<polygon fill="black" stroke="black" points="132.23,-76.5 142.23,-73 132.23,-69.5 132.23,-76.5"/>
</g>
<!-- OR -->
<g id="node2" class="node">
<title>OR</title>
<polygon fill="none" stroke="black" points="108,-145 72,-145 72,-109 108,-109 108,-145"/>
<text xml:space="preserve" text-anchor="middle" x="90" y="-122.72" font-family="Courier,monospace" font-size="12.00">∨</text>
</g>
<!-- OUT_OR -->
<g id="node7" class="node">
<title>OUT_OR</title>
<polygon fill="none" stroke="black" points="182.5,-149.25 144,-149.25 144,-110.75 182.5,-110.75 182.5,-149.25"/>
<text xml:space="preserve" text-anchor="middle" x="163.25" y="-126.1" font-family="Courier,monospace" font-size="12.00">A∨B</text>
</g>
<!-- OR&#45;&gt;OUT_OR -->
<g id="edge7" class="edge">
<title>OR&#45;&gt;OUT_OR</title>
<path fill="none" stroke="black" d="M108.48,-127.88C108.48,-127.88 132.23,-127.88 132.23,-127.88"/>
<polygon fill="black" stroke="black" points="132.23,-131.38 142.23,-127.88 132.23,-124.38 132.23,-131.38"/>
</g>
<!-- NOT -->
<g id="node3" class="node">
<title>NOT</title>
<polygon fill="none" stroke="black" points="108,-37 72,-37 72,-1 108,-1 108,-37"/>
<text xml:space="preserve" text-anchor="middle" x="90" y="-14.72" font-family="Courier,monospace" font-size="12.00">¬</text>
</g>
<!-- OUT_NOT -->
<g id="node8" class="node">
<title>OUT_NOT</title>
<polygon fill="none" stroke="black" points="181.25,-36 145.25,-36 145.25,0 181.25,0 181.25,-36"/>
<text xml:space="preserve" text-anchor="middle" x="163.25" y="-13.72" font-family="Courier,monospace" font-size="12.00">¬A</text>
</g>
<!-- NOT&#45;&gt;OUT_NOT -->
<g id="edge8" class="edge">
<title>NOT&#45;&gt;OUT_NOT</title>
<path fill="none" stroke="black" d="M108.48,-18.5C108.48,-18.5 133.26,-18.5 133.26,-18.5"/>
<polygon fill="black" stroke="black" points="133.26,-22 143.26,-18.5 133.26,-15 133.26,-22"/>
</g>
<!-- A -->
<g id="node4" class="node">
<title>A</title>
<polygon fill="none" stroke="black" points="36,-91 0,-91 0,-55 36,-55 36,-91"/>
<text xml:space="preserve" text-anchor="middle" x="18" y="-68.72" font-family="Courier,monospace" font-size="12.00">A</text>
</g>
<!-- A&#45;&gt;AND -->
<g id="edge1" class="edge">
<title>A&#45;&gt;AND</title>
<path fill="none" stroke="black" d="M36.17,-64C36.17,-64 60.07,-64 60.07,-64"/>
<polygon fill="black" stroke="black" points="60.07,-67.5 70.07,-64 60.07,-60.5 60.07,-67.5"/>
</g>
<!-- A&#45;&gt;OR -->
<g id="edge3" class="edge">
<title>A&#45;&gt;OR</title>
<path fill="none" stroke="black" d="M36.32,-82C47.44,-82 59.5,-82 59.5,-82 59.5,-82 59.5,-127 59.5,-127 59.5,-127 60.71,-127 60.71,-127"/>
<polygon fill="black" stroke="black" points="60.04,-130.5 70.04,-127 60.04,-123.5 60.04,-130.5"/>
</g>
<!-- A&#45;&gt;NOT -->
<g id="edge5" class="edge">
<title>A&#45;&gt;NOT</title>
<path fill="none" stroke="black" d="M17.5,-54.72C17.5,-39.05 17.5,-19 17.5,-19 17.5,-19 60.19,-19 60.19,-19"/>
<polygon fill="black" stroke="black" points="60.19,-22.5 70.19,-19 60.19,-15.5 60.19,-22.5"/>
</g>
<!-- B -->
<g id="node5" class="node">
<title>B</title>
<polygon fill="none" stroke="black" points="36,-145 0,-145 0,-109 36,-109 36,-145"/>
<text xml:space="preserve" text-anchor="middle" x="18" y="-122.72" font-family="Courier,monospace" font-size="12.00">B</text>
</g>
<!-- B&#45;&gt;AND -->
<g id="edge2" class="edge">
<title>B&#45;&gt;AND</title>
<path fill="none" stroke="black" d="M36.18,-118C42.25,-118 47.5,-118 47.5,-118 47.5,-118 47.5,-73 47.5,-73 47.5,-73 60.22,-73 60.22,-73"/>
<polygon fill="black" stroke="black" points="60.22,-76.5 70.22,-73 60.22,-69.5 60.22,-76.5"/>
</g>
<!-- B&#45;&gt;OR -->
<g id="edge4" class="edge">
<title>B&#45;&gt;OR</title>
<path fill="none" stroke="black" d="M36.17,-136C36.17,-136 60.07,-136 60.07,-136"/>
<polygon fill="black" stroke="black" points="60.07,-139.5 70.07,-136 60.07,-132.5 60.07,-139.5"/>
</g>
</g>
</svg>
