<?xml version="1.0" encoding="UTF-8" standalone="no"?>
<!DOCTYPE svg PUBLIC "-//W3C//DTD SVG 1.1//EN"
 "http://www.w3.org/Graphics/SVG/1.1/DTD/svg11.dtd">
<!-- Generated by graphviz version 14.1.4 (20260321.0153)
 -->
<!-- Pages: 1 -->
<svg width="966pt" height="51pt"
 viewBox="0.00 0.00 966.00 51.00" xmlns="http://www.w3.org/2000/svg" xmlns:xlink="http://www.w3.org/1999/xlink">
<g id="graph0" class="graph" transform="scale(1 1) rotate(0) translate(4 47.2)">
<polygon fill="white" stroke="none" points="-4,4 -4,-47.2 962.2,-47.2 962.2,4 -4,4"/>
<!-- M_0_0 -->
<g id="node1" class="node">
<title>M_0_0</title>
<polygon fill="none" stroke="black" points="43.2,-43.2 0,-43.2 0,0 43.2,0 43.2,-43.2"/>
<text xml:space="preserve" text-anchor="middle" x="21.6" y="-17.32" font-family="Courier,monospace" font-size="12.00">1</text>
</g>
<!-- M_0_1 -->
<g id="node2" class="node">
<title>M_0_1</title>
<polygon fill="none" stroke="black" points="104.2,-43.2 61,-43.2 61,0 104.2,0 104.2,-43.2"/>
<text xml:space="preserve" text-anchor="middle" x="82.6" y="-17.32" font-family="Courier,monospace" font-size="12.00">0</text>
</g>
<!-- M_0_0&#45;&gt;M_0_1 -->
<!-- M_0_2 -->
<g id="node3" class="node">
<title>M_0_2</title>
<polygon fill="none" stroke="black" points="165.2,-43.2 122,-43.2 122,0 165.2,0 165.2,-43.2"/>
<text xml:space="preserve" text-anchor="middle" x="143.6" y="-17.32" font-family="Courier,monospace" font-size="12.00">0</text>
</g>
<!-- M_0_1&#45;&gt;M_0_2 -->
<!-- M_0_3 -->
<g id="node4" class="node">
<title>M_0_3</title>
<polygon fill="none" stroke="black" points="226.2,-43.2 183,-43.2 183,0 226.2,0 226.2,-43.2"/>
<text xml:space="preserve" text-anchor="middle" x="204.6" y="-17.32" font-family="Courier,monospace" font-size="12.00">0</text>
</g>
<!-- M_0_2&#45;&gt;M_0_3 -->
<!-- M_1_0 -->
<g id="node5" class="node">
<title>M_1_0</title>
<polygon fill="none" stroke="black" points="287.2,-43.2 244,-43.2 244,0 287.2,0 287.2,-43.2"/>
<text xml:space="preserve" text-anchor="middle" x="265.6" y="-17.32" font-family="Courier,monospace" font-size="12.00">1</text>
</g>
<!-- M_1_1 -->
<g id="node6" class="node">
<title>M_1_1</title>
<polygon fill="none" stroke="black" points="348.2,-43.2 305,-43.2 305,0 348.2,0 348.2,-43.2"/>
<text xml:space="preserve" text-anchor="middle" x="326.6" y="-17.32" font-family="Courier,monospace" font-size="12.00">1</text>
</g>
<!-- M_1_0&#45;&gt;M_1_1 -->
<!-- M_1_2 -->
<g id="node7" class="node">
<title>M_1_2</title>
<polygon fill="none" stroke="black" points="409.2,-43.2 366,-43.2 366,0 409.2,0 409.2,-43.2"/>
<text xml:space="preserve" text-anchor="middle" x="387.6" y="-17.32" font-family="Courier,monospace" font-size="12.00">0</text>
</g>
<!-- M_1_1&#45;&gt;M_1_2 -->
<!-- M_1_3 -->
<g id="node8" class="node">
<title>M_1_3</title>
<polygon fill="none" stroke="black" points="470.2,-43.2 427,-43.2 427,0 470.2,0 470.2,-43.2"/>
<text xml:space="preserve" text-anchor="middle" x="448.6" y="-17.32" font-family="Courier,monospace" font-size="12.00">0</text>
</g>
<!-- M_1_2&#45;&gt;M_1_3 -->
<!-- M_2_0 -->
<g id="node9" class="node">
<title>M_2_0</title>
<polygon fill="none" stroke="black" points="531.2,-43.2 488,-43.2 488,0 531.2,0 531.2,-43.2"/>
<text xml:space="preserve" text-anchor="middle" x="509.6" y="-17.32" font-family="Courier,monospace" font-size="12.00">1</text>
</g>
<!-- M_2_1 -->
<g id="node10" class="node">
<title>M_2_1</title>
<polygon fill="none" stroke="black" points="592.2,-43.2 549,-43.2 549,0 592.2,0 592.2,-43.2"/>
<text xml:space="preserve" text-anchor="middle" x="570.6" y="-17.32" font-family="Courier,monospace" font-size="12.00">1</text>
</g>
<!-- M_2_0&#45;&gt;M_2_1 -->
<!-- M_2_2 -->
<g id="node11" class="node">
<title>M_2_2</title>
<polygon fill="none" stroke="black" points="653.2,-43.2 610,-43.2 610,0 653.2,0 653.2,-43.2"/>
<text xml:space="preserve" text-anchor="middle" x="631.6" y="-17.32" font-family="Courier,monospace" font-size="12.00">1</text>
</g>
<!-- M_2_1&#45;&gt;M_2_2 -->
<!-- M_2_3 -->
<g id="node12" class="node">
<title>M_2_3</title>
<polygon fill="none" stroke="black" points="714.2,-43.2 671,-43.2 671,0 714.2,0 714.2,-43.2"/>
<text xml:space="preserve" text-anchor="middle" x="692.6" y="-17.32" font-family="Courier,monospace" font-size="12.00">0</text>
</g>
<!-- M_2_2&#45;&gt;M_2_3 -->
<!-- M_3_0 -->
<g id="node13" class="node">
<title>M_3_0</title>
<polygon fill="none" stroke="black" points="775.2,-43.2 732,-43.2 732,0 775.2,0 775.2,-43.2"/>
<text xml:space="preserve" text-anchor="middle" x="753.6" y="-17.32" font-family="Courier,monospace" font-size="12.00">1</text>
</g>
<!-- M_3_1 -->
<g id="node14" class="node">
<title>M_3_1</title>
<polygon fill="none" stroke="black" points="836.2,-43.2 793,-43.2 793,0 836.2,0 836.2,-43.2"/>
<text xml:space="preserve" text-anchor="middle" x="814.6" y="-17.32" font-family="Courier,monospace" font-size="12.00">1</text>
</g>
<!-- M_3_0&#45;&gt;M_3_1 -->
<!-- M_3_2 -->
<g id="node15" class="node">
<title>M_3_2</title>
<polygon fill="none" stroke="black" points="897.2,-43.2 854,-43.2 854,0 897.2,0 897.2,-43.2"/>
<text xml:space="preserve" text-anchor="middle" x="875.6" y="-17.32" font-family="Courier,monospace" font-size="12.00">1</text>
</g>
<!-- M_3_1&#45;&gt;M_3_2 -->
<!-- M_3_3 -->
<g id="node16" class="node">
<title>M_3_3</title>
<polygon fill="none" stroke="black" points="958.2,-43.2 915,-43.2 915,0 958.2,0 958.2,-43.2"/>
<text xml:space="preserve" text-anchor="middle" x="936.6" y="-17.32" font-family="Courier,monospace" font-size="12.00">1</text>
</g>
<!-- M_3_2&#45;&gt;M_3_3 -->
</g>
</svg>
