<?xml version="1.0" encoding="UTF-8" standalone="no"?>
<!DOCTYPE svg PUBLIC "-//W3C//DTD SVG 1.1//EN"
 "http://www.w3.org/Graphics/SVG/1.1/DTD/svg11.dtd">
<!-- Generated by graphviz version 14.1.4 (20260321.0153)
 -->
<!-- Pages: 1 -->
<svg width="276pt" height="368pt"
 viewBox="0.00 0.00 276.00 368.00" xmlns="http://www.w3.org/2000/svg" xmlns:xlink="http://www.w3.org/1999/xlink">
<g id="graph0" class="graph" transform="scale(1 1) rotate(0) translate(4 363.5)">
<polygon fill="white" stroke="none" points="-4,4 -4,-363.5 271.5,-363.5 271.5,4 -4,4"/>
<!-- n -->
<g id="node1" class="node">
<title>n</title>
<polygon fill="none" stroke="black" points="36,-192.75 0,-192.75 0,-156.75 36,-156.75 36,-192.75"/>
<text xml:space="preserve" text-anchor="middle" x="18" y="-170.47" font-family="Courier,monospace" font-size="12.00">n</text>
</g>
<!-- O1 -->
<g id="node2" class="node">
<title>O1</title>
<polygon fill="none" stroke="black" points="133,-355.75 87,-355.75 87,-309.75 133,-309.75 133,-355.75"/>
<text xml:space="preserve" text-anchor="middle" x="110" y="-328.48" font-family="Courier,monospace" font-size="12.00">O(1)</text>
</g>
<!-- n&#45;&gt;O1 -->
<g id="edge1" class="edge">
<title>n&#45;&gt;O1</title>
<path fill="none" stroke="black" d="M17.5,-193.18C17.5,-234.86 17.5,-332.75 17.5,-332.75 17.5,-332.75 75.14,-332.75 75.14,-332.75"/>
<polygon fill="black" stroke="black" points="75.14,-336.25 85.14,-332.75 75.14,-329.25 75.14,-336.25"/>
</g>
<!-- Ologn -->
<g id="node3" class="node">
<title>Ologn</title>
<polygon fill="none" stroke="black" points="148,-291.75 72,-291.75 72,-215.75 148,-215.75 148,-291.75"/>
<text xml:space="preserve" text-anchor="middle" x="110" y="-249.47" font-family="Courier,monospace" font-size="12.00">O(log n)</text>
</g>
<!-- n&#45;&gt;Ologn -->
<g id="edge2" class="edge">
<title>n&#45;&gt;Ologn</title>
<path fill="none" stroke="black" d="M36.18,-180.75C53.67,-180.75 77.5,-180.75 77.5,-180.75 77.5,-180.75 77.5,-204.03 77.5,-204.03"/>
<polygon fill="black" stroke="black" points="74,-204.03 77.5,-214.03 81,-204.03 74,-204.03"/>
</g>
<!-- On -->
<g id="node4" class="node">
<title>On</title>
<polygon fill="none" stroke="black" points="133,-197.75 87,-197.75 87,-151.75 133,-151.75 133,-197.75"/>
<text xml:space="preserve" text-anchor="middle" x="110" y="-170.47" font-family="Courier,monospace" font-size="12.00">O(n)</text>
</g>
<!-- n&#45;&gt;On -->
<g id="edge3" class="edge">
<title>n&#45;&gt;On</title>
<path fill="none" stroke="black" d="M36.18,-168.75C36.18,-168.75 75.1,-168.75 75.1,-168.75"/>
<polygon fill="black" stroke="black" points="75.1,-172.25 85.1,-168.75 75.1,-165.25 75.1,-172.25"/>
</g>
<!-- On2 -->
<g id="node5" class="node">
<title>On2</title>
<polygon fill="none" stroke="black" points="136.75,-128.5 83.25,-128.5 83.25,-75 136.75,-75 136.75,-128.5"/>
<text xml:space="preserve" text-anchor="middle" x="110" y="-97.47" font-family="Courier,monospace" font-size="12.00">O(n²)</text>
</g>
<!-- n&#45;&gt;On2 -->
<g id="edge4" class="edge">
<title>n&#45;&gt;On2</title>
<path fill="none" stroke="black" d="M23.5,-156.33C23.5,-134.7 23.5,-101.75 23.5,-101.75 23.5,-101.75 71.59,-101.75 71.59,-101.75"/>
<polygon fill="black" stroke="black" points="71.59,-105.25 81.59,-101.75 71.59,-98.25 71.59,-105.25"/>
</g>
<!-- O2n -->
<g id="node6" class="node">
<title>O2n</title>
<polygon fill="none" stroke="black" points="136.75,-53.5 83.25,-53.5 83.25,0 136.75,0 136.75,-53.5"/>
<text xml:space="preserve" text-anchor="middle" x="110" y="-22.48" font-family="Courier,monospace" font-size="12.00">O(2ⁿ)</text>
</g>
<!-- n&#45;&gt;O2n -->
<g id="edge5" class="edge">
<title>n&#45;&gt;O2n</title>
<path fill="none" stroke="black" d="M11.5,-156.3C11.5,-116.63 11.5,-26.75 11.5,-26.75 11.5,-26.75 71.31,-26.75 71.31,-26.75"/>
<polygon fill="black" stroke="black" points="71.31,-30.25 81.31,-26.75 71.31,-23.25 71.31,-30.25"/>
</g>
<!-- CONST -->
<g id="node7" class="node">
<title>CONST</title>
<polygon fill="none" stroke="black" points="252.5,-359.5 199,-359.5 199,-306 252.5,-306 252.5,-359.5"/>
<text xml:space="preserve" text-anchor="middle" x="225.75" y="-328.48" font-family="Courier,monospace" font-size="12.00">CONST</text>
</g>
<!-- O1&#45;&gt;CONST -->
<g id="edge6" class="edge">
<title>O1&#45;&gt;CONST</title>
<path fill="none" stroke="black" d="M133.42,-332.75C133.42,-332.75 187.19,-332.75 187.19,-332.75"/>
<polygon fill="black" stroke="black" points="187.19,-336.25 197.19,-332.75 187.19,-329.25 187.19,-336.25"/>
</g>
<!-- LOG -->
<g id="node8" class="node">
<title>LOG</title>
<polygon fill="none" stroke="black" points="245,-276 206.5,-276 206.5,-237.5 245,-237.5 245,-276"/>
<text xml:space="preserve" text-anchor="middle" x="225.75" y="-252.47" font-family="Courier,monospace" font-size="12.00">LOG</text>
</g>
<!-- Ologn&#45;&gt;LOG -->
<g id="edge7" class="edge">
<title>Ologn&#45;&gt;LOG</title>
<path fill="none" stroke="black" d="M148.22,-256.75C148.22,-256.75 194.57,-256.75 194.57,-256.75"/>
<polygon fill="black" stroke="black" points="194.57,-260.25 204.57,-256.75 194.57,-253.25 194.57,-260.25"/>
</g>
<!-- LINEAR -->
<g id="node9" class="node">
<title>LINEAR</title>
<polygon fill="none" stroke="black" points="256.25,-219.25 195.25,-219.25 195.25,-158.25 256.25,-158.25 256.25,-219.25"/>
<text xml:space="preserve" text-anchor="middle" x="225.75" y="-184.47" font-family="Courier,monospace" font-size="12.00">LINEAR</text>
</g>
<!-- On&#45;&gt;LINEAR -->
<g id="edge8" class="edge">
<title>On&#45;&gt;LINEAR</title>
<path fill="none" stroke="black" d="M133.42,-178C133.42,-178 183.38,-178 183.38,-178"/>
<polygon fill="black" stroke="black" points="183.38,-181.5 193.38,-178 183.38,-174.5 183.38,-181.5"/>
</g>
<!-- QUADRATIC -->
<g id="node10" class="node">
<title>QUADRATIC</title>
<polygon fill="none" stroke="black" points="267.5,-140.5 184,-140.5 184,-57 267.5,-57 267.5,-140.5"/>
<text xml:space="preserve" text-anchor="middle" x="225.75" y="-94.47" font-family="Courier,monospace" font-size="12.00">QUADRATIC</text>
</g>
<!-- On2&#45;&gt;QUADRATIC -->
<g id="edge9" class="edge">
<title>On2&#45;&gt;QUADRATIC</title>
<path fill="none" stroke="black" d="M137.14,-101.75C137.14,-101.75 172.32,-101.75 172.32,-101.75"/>
<polygon fill="black" stroke="black" points="172.32,-105.25 182.32,-101.75 172.32,-98.25 172.32,-105.25"/>
</g>
<!-- EXP -->
<g id="node11" class="node">
<title>EXP</title>
<polygon fill="none" stroke="black" points="245,-39 206.5,-39 206.5,-0.5 245,-0.5 245,-39"/>
<text xml:space="preserve" text-anchor="middle" x="225.75" y="-15.48" font-family="Courier,monospace" font-size="12.00">EXP</text>
</g>
<!-- O2n&#45;&gt;EXP -->
<g id="edge10" class="edge">
<title>O2n&#45;&gt;EXP</title>
<path fill="none" stroke="black" d="M137.14,-19.75C137.14,-19.75 194.5,-19.75 194.5,-19.75"/>
<polygon fill="black" stroke="black" points="194.5,-23.25 204.5,-19.75 194.5,-16.25 194.5,-23.25"/>
</g>
</g>
</svg>
