<?xml version="1.0" encoding="UTF-8" standalone="no"?>
<!DOCTYPE svg PUBLIC "-//W3C//DTD SVG 1.1//EN"
 "http://www.w3.org/Graphics/SVG/1.1/DTD/svg11.dtd">
<!-- Generated by graphviz version 14.1.4 (20260321.0153)
 -->
<!-- Pages: 1 -->
<svg width="1287pt" height="423pt"
 viewBox="0.00 0.00 1287.00 423.00" xmlns="http://www.w3.org/2000/svg" xmlns:xlink="http://www.w3.org/1999/xlink">
<g id="graph0" class="graph" transform="scale(1 1) rotate(0) translate(4 419)">
<polygon fill="white" stroke="none" points="-4,4 -4,-419 1283,-419 1283,4 -4,4"/>
<g id="clust1" class="cluster">
<title>cluster_discrete</title>
<polygon fill="none" stroke="black" stroke-dasharray="5,2" points="8,-8 8,-407 418.75,-407 418.75,-8 8,-8"/>
<text xml:space="preserve" text-anchor="middle" x="213.38" y="-393.5" font-family="Helvetica,sans-Serif" font-size="10.00">Discrete Feature Representation</text>
</g>
<g id="clust2" class="cluster">
<title>cluster_continuous</title>
<polygon fill="none" stroke="black" stroke-dasharray="5,2" points="710.75,-29 710.75,-368 1271,-368 1271,-29 710.75,-29"/>
<text xml:space="preserve" text-anchor="middle" x="990.88" y="-354.5" font-family="Helvetica,sans-Serif" font-size="10.00">Continuous Vector Representation</text>
</g>
<!-- INPUT_D -->
<g id="node1" class="node">
<title>INPUT_D</title>
<polygon fill="none" stroke="black" points="69.5,-221.75 16,-221.75 16,-168.25 69.5,-168.25 69.5,-221.75"/>
<text xml:space="preserve" text-anchor="middle" x="42.75" y="-190.72" font-family="Courier,monospace" font-size="12.00">Input</text>
</g>
<!-- FEAT_D1 -->
<g id="node2" class="node">
<title>FEAT_D1</title>
<polygon fill="none" stroke="black" points="184.12,-92 108.12,-92 108.12,-16 184.12,-16 184.12,-92"/>
<text xml:space="preserve" text-anchor="middle" x="146.12" y="-57.23" font-family="Courier,monospace" font-size="12.00">Feature₁</text>
<text xml:space="preserve" text-anchor="middle" x="146.12" y="-42.23" font-family="Courier,monospace" font-size="12.00">(0/1)</text>
</g>
<!-- INPUT_D&#45;&gt;FEAT_D1 -->
<g id="edge1" class="edge">
<title>INPUT_D&#45;&gt;FEAT_D1</title>
<path fill="none" stroke="black" d="M43,-167.81C43,-126.84 43,-54 43,-54 43,-54 96.21,-54 96.21,-54"/>
<polygon fill="black" stroke="black" points="96.21,-57.5 106.21,-54 96.21,-50.5 96.21,-57.5"/>
</g>
<!-- FEAT_D2 -->
<g id="node3" class="node">
<title>FEAT_D2</title>
<polygon fill="none" stroke="black" points="184.12,-186 108.12,-186 108.12,-110 184.12,-110 184.12,-186"/>
<text xml:space="preserve" text-anchor="middle" x="146.12" y="-151.22" font-family="Courier,monospace" font-size="12.00">Feature₂</text>
<text xml:space="preserve" text-anchor="middle" x="146.12" y="-136.22" font-family="Courier,monospace" font-size="12.00">(0/1)</text>
</g>
<!-- INPUT_D&#45;&gt;FEAT_D2 -->
<g id="edge2" class="edge">
<title>INPUT_D&#45;&gt;FEAT_D2</title>
<path fill="none" stroke="black" d="M69.91,-177.12C69.91,-177.12 96.36,-177.12 96.36,-177.12"/>
<polygon fill="black" stroke="black" points="96.36,-180.63 106.36,-177.13 96.36,-173.63 96.36,-180.63"/>
</g>
<!-- FEAT_D3 -->
<g id="node4" class="node">
<title>FEAT_D3</title>
<polygon fill="none" stroke="black" points="184.12,-280 108.12,-280 108.12,-204 184.12,-204 184.12,-280"/>
<text xml:space="preserve" text-anchor="middle" x="146.12" y="-245.22" font-family="Courier,monospace" font-size="12.00">Feature₃</text>
<text xml:space="preserve" text-anchor="middle" x="146.12" y="-230.22" font-family="Courier,monospace" font-size="12.00">(0/1)</text>
</g>
<!-- INPUT_D&#45;&gt;FEAT_D3 -->
<g id="edge3" class="edge">
<title>INPUT_D&#45;&gt;FEAT_D3</title>
<path fill="none" stroke="black" d="M69.91,-212.88C69.91,-212.88 96.36,-212.88 96.36,-212.88"/>
<polygon fill="black" stroke="black" points="96.36,-216.38 106.36,-212.88 96.36,-209.38 96.36,-216.38"/>
</g>
<!-- FEAT_DN -->
<g id="node5" class="node">
<title>FEAT_DN</title>
<polygon fill="none" stroke="black" points="186.75,-379.62 105.5,-379.62 105.5,-298.38 186.75,-298.38 186.75,-379.62"/>
<text xml:space="preserve" text-anchor="middle" x="146.12" y="-342.6" font-family="Courier,monospace" font-size="12.00">Featureₙ</text>
<text xml:space="preserve" text-anchor="middle" x="146.12" y="-326.85" font-family="Courier,monospace" font-size="12.00">(0/1)</text>
</g>
<!-- INPUT_D&#45;&gt;FEAT_DN -->
<g id="edge4" class="edge">
<title>INPUT_D&#45;&gt;FEAT_DN</title>
<path fill="none" stroke="black" d="M43,-222.09C43,-263.8 43,-339 43,-339 43,-339 93.56,-339 93.56,-339"/>
<polygon fill="black" stroke="black" points="93.56,-342.5 103.56,-339 93.56,-335.5 93.56,-342.5"/>
</g>
<!-- SET_D -->
<g id="node6" class="node">
<title>SET_D</title>
<polygon fill="none" stroke="black" points="321.25,-216.25 222.75,-216.25 222.75,-117.75 321.25,-117.75 321.25,-216.25"/>
<text xml:space="preserve" text-anchor="middle" x="272" y="-169.85" font-family="Courier,monospace" font-size="12.00">Feature Set</text>
<text xml:space="preserve" text-anchor="middle" x="272" y="-155.6" font-family="Courier,monospace" font-size="12.00">{0,1}ⁿ</text>
</g>
<!-- FEAT_D1&#45;&gt;SET_D -->
<g id="edge5" class="edge">
<title>FEAT_D1&#45;&gt;SET_D</title>
<path fill="none" stroke="black" d="M184.58,-55.67C221.59,-55.67 272,-55.67 272,-55.67 272,-55.67 272,-106.01 272,-106.01"/>
<polygon fill="black" stroke="black" points="268.5,-106.01 272,-116.01 275.5,-106.01 268.5,-106.01"/>
</g>
<!-- FEAT_D2&#45;&gt;SET_D -->
<g id="edge6" class="edge">
<title>FEAT_D2&#45;&gt;SET_D</title>
<path fill="none" stroke="black" d="M184.58,-151.88C184.58,-151.88 211.12,-151.88 211.12,-151.88"/>
<polygon fill="black" stroke="black" points="211.12,-155.38 221.12,-151.88 211.12,-148.38 211.12,-155.38"/>
</g>
<!-- FEAT_D3&#45;&gt;SET_D -->
<g id="edge7" class="edge">
<title>FEAT_D3&#45;&gt;SET_D</title>
<path fill="none" stroke="black" d="M184.58,-210.12C184.58,-210.12 211.12,-210.12 211.12,-210.12"/>
<polygon fill="black" stroke="black" points="211.12,-213.63 221.12,-210.13 211.12,-206.63 211.12,-213.63"/>
</g>
<!-- FEAT_DN&#45;&gt;SET_D -->
<g id="edge8" class="edge">
<title>FEAT_DN&#45;&gt;SET_D</title>
<path fill="none" stroke="black" d="M186.99,-319.75C223.75,-319.75 272,-319.75 272,-319.75 272,-319.75 272,-228.11 272,-228.11"/>
<polygon fill="black" stroke="black" points="275.5,-228.11 272,-218.11 268.5,-228.11 275.5,-228.11"/>
</g>
<!-- CLASS_D -->
<g id="node7" class="node">
<title>CLASS_D</title>
<polygon fill="none" stroke="black" points="410.75,-193.75 357.25,-193.75 357.25,-140.25 410.75,-140.25 410.75,-193.75"/>
<text xml:space="preserve" text-anchor="middle" x="384" y="-169.85" font-family="Courier,monospace" font-size="12.00">Class</text>
<text xml:space="preserve" text-anchor="middle" x="384" y="-155.6" font-family="Courier,monospace" font-size="12.00">A/B/C</text>
</g>
<!-- SET_D&#45;&gt;CLASS_D -->
<g id="edge9" class="edge">
<title>SET_D&#45;&gt;CLASS_D</title>
<path fill="none" stroke="black" d="M321.45,-167C321.45,-167 345.41,-167 345.41,-167"/>
<polygon fill="black" stroke="black" points="345.41,-170.5 355.41,-167 345.41,-163.5 345.41,-170.5"/>
</g>
<!-- MAPPING -->
<g id="node16" class="node">
<title>MAPPING</title>
<polygon fill="none" stroke="black" points="564.75,-199 446.75,-167 564.75,-135 682.75,-167 564.75,-199"/>
<text xml:space="preserve" text-anchor="middle" x="564.75" y="-169.5" font-family="Helvetica,sans-Serif" font-size="10.00">Mapping</text>
<text xml:space="preserve" text-anchor="middle" x="564.75" y="-158.25" font-family="Helvetica,sans-Serif" font-size="10.00">Discrete → Continuous</text>
</g>
<!-- CLASS_D&#45;&gt;MAPPING -->
<g id="edge20" class="edge">
<title>CLASS_D&#45;&gt;MAPPING</title>
<path fill="none" stroke="black" stroke-dasharray="5,2" d="M411.06,-167C411.06,-167 433.59,-167 433.59,-167"/>
<polygon fill="black" stroke="black" points="433.59,-170.5 443.59,-167 433.59,-163.5 433.59,-170.5"/>
</g>
<!-- INPUT_C -->
<g id="node8" class="node">
<title>INPUT_C</title>
<polygon fill="none" stroke="black" points="772.25,-193.75 718.75,-193.75 718.75,-140.25 772.25,-140.25 772.25,-193.75"/>
<text xml:space="preserve" text-anchor="middle" x="745.5" y="-162.72" font-family="Courier,monospace" font-size="12.00">Input</text>
</g>
<!-- EMBED -->
<g id="node9" class="node">
<title>EMBED</title>
<polygon fill="none" stroke="black" points="891.75,-208.75 808.25,-208.75 808.25,-125.25 891.75,-125.25 891.75,-208.75"/>
<text xml:space="preserve" text-anchor="middle" x="850" y="-170.22" font-family="Courier,monospace" font-size="12.00">Embedding</text>
<text xml:space="preserve" text-anchor="middle" x="850" y="-155.97" font-family="Courier,monospace" font-size="12.00">f: ℝ→ℝᵈ</text>
</g>
<!-- INPUT_C&#45;&gt;EMBED -->
<g id="edge10" class="edge">
<title>INPUT_C&#45;&gt;EMBED</title>
<path fill="none" stroke="black" d="M772.68,-167C772.68,-167 796.45,-167 796.45,-167"/>
<polygon fill="black" stroke="black" points="796.45,-170.5 806.45,-167 796.45,-163.5 796.45,-170.5"/>
</g>
<!-- VEC1 -->
<g id="node10" class="node">
<title>VEC1</title>
<polygon fill="none" stroke="black" points="991.38,-98.5 930.38,-98.5 930.38,-37.5 991.38,-37.5 991.38,-98.5"/>
<text xml:space="preserve" text-anchor="middle" x="960.88" y="-64.1" font-family="Courier,monospace" font-size="12.00">v₁ ∈ ℝ</text>
</g>
<!-- EMBED&#45;&gt;VEC1 -->
<g id="edge11" class="edge">
<title>EMBED&#45;&gt;VEC1</title>
<path fill="none" stroke="black" d="M850,-124.78C850,-100.13 850,-73.83 850,-73.83 850,-73.83 918.48,-73.83 918.48,-73.83"/>
<polygon fill="black" stroke="black" points="918.48,-77.33 928.48,-73.83 918.48,-70.33 918.48,-77.33"/>
</g>
<!-- VEC2 -->
<g id="node11" class="node">
<title>VEC2</title>
<polygon fill="none" stroke="black" points="991.38,-177.5 930.38,-177.5 930.38,-116.5 991.38,-116.5 991.38,-177.5"/>
<text xml:space="preserve" text-anchor="middle" x="960.88" y="-143.1" font-family="Courier,monospace" font-size="12.00">v₂ ∈ ℝ</text>
</g>
<!-- EMBED&#45;&gt;VEC2 -->
<g id="edge12" class="edge">
<title>EMBED&#45;&gt;VEC2</title>
<path fill="none" stroke="black" d="M892.23,-151.38C892.23,-151.38 918.62,-151.38 918.62,-151.38"/>
<polygon fill="black" stroke="black" points="918.62,-154.88 928.62,-151.38 918.62,-147.88 918.62,-154.88"/>
</g>
<!-- VEC3 -->
<g id="node12" class="node">
<title>VEC3</title>
<polygon fill="none" stroke="black" points="991.38,-256.5 930.38,-256.5 930.38,-195.5 991.38,-195.5 991.38,-256.5"/>
<text xml:space="preserve" text-anchor="middle" x="960.88" y="-222.1" font-family="Courier,monospace" font-size="12.00">v₃ ∈ ℝ</text>
</g>
<!-- EMBED&#45;&gt;VEC3 -->
<g id="edge13" class="edge">
<title>EMBED&#45;&gt;VEC3</title>
<path fill="none" stroke="black" d="M892.23,-202.12C892.23,-202.12 918.62,-202.12 918.62,-202.12"/>
<polygon fill="black" stroke="black" points="918.62,-205.63 928.62,-202.13 918.62,-198.63 918.62,-205.63"/>
</g>
<!-- VECD -->
<g id="node13" class="node">
<title>VECD</title>
<polygon fill="none" stroke="black" points="994,-341.12 927.75,-341.12 927.75,-274.88 994,-274.88 994,-341.12"/>
<text xml:space="preserve" text-anchor="middle" x="960.88" y="-304.85" font-family="Courier,monospace" font-size="12.00">vₘ ∈ ℝ</text>
</g>
<!-- EMBED&#45;&gt;VECD -->
<g id="edge14" class="edge">
<title>EMBED&#45;&gt;VECD</title>
<path fill="none" stroke="black" d="M850,-209.05C850,-244.39 850,-289.19 850,-289.19 850,-289.19 915.79,-289.19 915.79,-289.19"/>
<polygon fill="black" stroke="black" points="915.79,-292.69 925.79,-289.19 915.79,-285.69 915.79,-292.69"/>
</g>
<!-- VEC_SPACE -->
<g id="node14" class="node">
<title>VEC_SPACE</title>
<polygon fill="none" stroke="black" points="1136,-239 1030,-239 1030,-133 1136,-133 1136,-239"/>
<text xml:space="preserve" text-anchor="middle" x="1083" y="-189.22" font-family="Courier,monospace" font-size="12.00">Vector Space</text>
<text xml:space="preserve" text-anchor="middle" x="1083" y="-174.97" font-family="Courier,monospace" font-size="12.00">ℝᵈ</text>
</g>
<!-- VEC1&#45;&gt;VEC_SPACE -->
<g id="edge15" class="edge">
<title>VEC1&#45;&gt;VEC_SPACE</title>
<path fill="none" stroke="black" d="M991.69,-68C1027.87,-68 1083,-68 1083,-68 1083,-68 1083,-121.01 1083,-121.01"/>
<polygon fill="black" stroke="black" points="1079.5,-121.01 1083,-131.01 1086.5,-121.01 1079.5,-121.01"/>
</g>
<!-- VEC2&#45;&gt;VEC_SPACE -->
<g id="edge16" class="edge">
<title>VEC2&#45;&gt;VEC_SPACE</title>
<path fill="none" stroke="black" d="M991.69,-155.25C991.69,-155.25 1018.34,-155.25 1018.34,-155.25"/>
<polygon fill="black" stroke="black" points="1018.34,-158.75 1028.34,-155.25 1018.34,-151.75 1018.34,-158.75"/>
</g>
<!-- VEC3&#45;&gt;VEC_SPACE -->
<g id="edge17" class="edge">
<title>VEC3&#45;&gt;VEC_SPACE</title>
<path fill="none" stroke="black" d="M991.69,-217.25C991.69,-217.25 1018.34,-217.25 1018.34,-217.25"/>
<polygon fill="black" stroke="black" points="1018.34,-220.75 1028.34,-217.25 1018.34,-213.75 1018.34,-220.75"/>
</g>
<!-- VECD&#45;&gt;VEC_SPACE -->
<g id="edge18" class="edge">
<title>VECD&#45;&gt;VEC_SPACE</title>
<path fill="none" stroke="black" d="M994.25,-308C1030.41,-308 1083,-308 1083,-308 1083,-308 1083,-250.67 1083,-250.67"/>
<polygon fill="black" stroke="black" points="1086.5,-250.67 1083,-240.67 1079.5,-250.67 1086.5,-250.67"/>
</g>
<!-- SIMILARITY -->
<g id="node15" class="node">
<title>SIMILARITY</title>
<polygon fill="none" stroke="black" points="1263,-231.5 1172,-231.5 1172,-140.5 1263,-140.5 1263,-231.5"/>
<text xml:space="preserve" text-anchor="middle" x="1217.5" y="-189.22" font-family="Courier,monospace" font-size="12.00">Similarity</text>
<text xml:space="preserve" text-anchor="middle" x="1217.5" y="-174.97" font-family="Courier,monospace" font-size="12.00">s ∈ [0,1]</text>
</g>
<!-- VEC_SPACE&#45;&gt;SIMILARITY -->
<g id="edge19" class="edge">
<title>VEC_SPACE&#45;&gt;SIMILARITY</title>
<path fill="none" stroke="black" d="M1136.16,-186C1136.16,-186 1160.17,-186 1160.17,-186"/>
<polygon fill="black" stroke="black" points="1160.17,-189.5 1170.17,-186 1160.17,-182.5 1160.17,-189.5"/>
</g>
<!-- MAPPING&#45;&gt;INPUT_C -->
<g id="edge21" class="edge">
<title>MAPPING&#45;&gt;INPUT_C</title>
<path fill="none" stroke="black" stroke-dasharray="5,2" d="M684.56,-167C684.56,-167 706.74,-167 706.74,-167"/>
<polygon fill="black" stroke="black" points="706.74,-170.5 716.74,-167 706.74,-163.5 706.74,-170.5"/>
</g>
</g>
</svg>
