<?xml version="1.0" encoding="UTF-8" standalone="no"?>
<!DOCTYPE svg PUBLIC "-//W3C//DTD SVG 1.1//EN"
 "http://www.w3.org/Graphics/SVG/1.1/DTD/svg11.dtd">
<!-- Generated by graphviz version 14.1.4 (20260321.0153)
 -->
<!-- Pages: 1 -->
<svg width="1048pt" height="554pt"
 viewBox="0.00 0.00 1048.00 554.00" xmlns="http://www.w3.org/2000/svg" xmlns:xlink="http://www.w3.org/1999/xlink">
<g id="graph0" class="graph" transform="scale(1 1) rotate(0) translate(4 550)">
<polygon fill="white" stroke="none" points="-4,4 -4,-550 1044,-550 1044,4 -4,4"/>
<!-- PROBLEM -->
<g id="node1" class="node">
<title>PROBLEM</title>
<polygon fill="none" stroke="black" points="68.5,-278.75 0,-278.75 0,-210.25 68.5,-210.25 68.5,-278.75"/>
<text xml:space="preserve" text-anchor="middle" x="34.25" y="-240.22" font-family="Courier,monospace" font-size="12.00">Problem</text>
</g>
<!-- SUB_PROBLEMS -->
<g id="node2" class="node">
<title>SUB_PROBLEMS</title>
<polygon fill="none" stroke="black" points="203,-293.75 104.5,-293.75 104.5,-195.25 203,-195.25 203,-293.75"/>
<text xml:space="preserve" text-anchor="middle" x="153.75" y="-240.22" font-family="Courier,monospace" font-size="12.00">Subproblems</text>
</g>
<!-- PROBLEM&#45;&gt;SUB_PROBLEMS -->
<g id="edge1" class="edge">
<title>PROBLEM&#45;&gt;SUB_PROBLEMS</title>
<path fill="none" stroke="black" d="M68.81,-244.5C68.81,-244.5 92.64,-244.5 92.64,-244.5"/>
<polygon fill="black" stroke="black" points="92.64,-248 102.64,-244.5 92.64,-241 92.64,-248"/>
</g>
<!-- SOLVE1 -->
<g id="node3" class="node">
<title>SOLVE1</title>
<polygon fill="none" stroke="black" points="390,-546 239,-546 239,-395 390,-395 390,-546"/>
<text xml:space="preserve" text-anchor="middle" x="314.5" y="-466.23" font-family="Courier,monospace" font-size="12.00">Solve subproblem 1</text>
</g>
<!-- SUB_PROBLEMS&#45;&gt;SOLVE1 -->
<g id="edge2" class="edge">
<title>SUB_PROBLEMS&#45;&gt;SOLVE1</title>
<path fill="none" stroke="black" d="M154,-294.1C154,-360.62 154,-470.5 154,-470.5 154,-470.5 227.44,-470.5 227.44,-470.5"/>
<polygon fill="black" stroke="black" points="227.44,-474 237.44,-470.5 227.44,-467 227.44,-474"/>
</g>
<!-- SOLVE2 -->
<g id="node4" class="node">
<title>SOLVE2</title>
<polygon fill="none" stroke="black" points="390,-377 239,-377 239,-226 390,-226 390,-377"/>
<text xml:space="preserve" text-anchor="middle" x="314.5" y="-297.23" font-family="Courier,monospace" font-size="12.00">Solve subproblem 2</text>
</g>
<!-- SUB_PROBLEMS&#45;&gt;SOLVE2 -->
<g id="edge3" class="edge">
<title>SUB_PROBLEMS&#45;&gt;SOLVE2</title>
<path fill="none" stroke="black" d="M203.29,-259.88C203.29,-259.88 227.01,-259.88 227.01,-259.88"/>
<polygon fill="black" stroke="black" points="227.01,-263.38 237.01,-259.88 227.01,-256.38 227.01,-263.38"/>
</g>
<!-- SOLVE3 -->
<g id="node5" class="node">
<title>SOLVE3</title>
<polygon fill="none" stroke="black" points="333.75,-207.75 295.25,-207.75 295.25,-169.25 333.75,-169.25 333.75,-207.75"/>
<text xml:space="preserve" text-anchor="middle" x="314.5" y="-184.22" font-family="Courier,monospace" font-size="12.00">...</text>
</g>
<!-- SUB_PROBLEMS&#45;&gt;SOLVE3 -->
<g id="edge4" class="edge">
<title>SUB_PROBLEMS&#45;&gt;SOLVE3</title>
<path fill="none" stroke="black" d="M203.29,-203.58C203.29,-203.58 283.59,-203.58 283.59,-203.58"/>
<polygon fill="black" stroke="black" points="283.59,-207.08 293.59,-203.58 283.59,-200.08 283.59,-207.08"/>
</g>
<!-- SOLVEN -->
<g id="node6" class="node">
<title>SOLVEN</title>
<polygon fill="none" stroke="black" points="390,-151 239,-151 239,0 390,0 390,-151"/>
<text xml:space="preserve" text-anchor="middle" x="314.5" y="-71.22" font-family="Courier,monospace" font-size="12.00">Solve subproblem n</text>
</g>
<!-- SUB_PROBLEMS&#45;&gt;SOLVEN -->
<g id="edge5" class="edge">
<title>SUB_PROBLEMS&#45;&gt;SOLVEN</title>
<path fill="none" stroke="black" d="M203.42,-199.42C233.85,-199.42 267,-199.42 267,-199.42 267,-199.42 267,-162.67 267,-162.67"/>
<polygon fill="black" stroke="black" points="270.5,-162.67 267,-152.67 263.5,-162.67 270.5,-162.67"/>
</g>
<!-- STORE1 -->
<g id="node8" class="node">
<title>STORE1</title>
<polygon fill="none" stroke="black" points="547,-531 426,-531 426,-410 547,-410 547,-531"/>
<text xml:space="preserve" text-anchor="middle" x="486.5" y="-466.23" font-family="Courier,monospace" font-size="12.00">Store result 1</text>
</g>
<!-- SOLVE1&#45;&gt;STORE1 -->
<g id="edge6" class="edge">
<title>SOLVE1&#45;&gt;STORE1</title>
<path fill="none" stroke="black" d="M390.44,-470.5C390.44,-470.5 414.16,-470.5 414.16,-470.5"/>
<polygon fill="black" stroke="black" points="414.16,-474 424.16,-470.5 414.16,-467 414.16,-474"/>
</g>
<!-- REUSE -->
<g id="node11" class="node">
<title>REUSE</title>
<polygon fill="none" stroke="black" points="823.5,-349.25 710,-349.25 710,-235.75 823.5,-235.75 823.5,-349.25"/>
<text xml:space="preserve" text-anchor="middle" x="766.75" y="-288.23" font-family="Courier,monospace" font-size="12.00">Reuse results</text>
</g>
<!-- SOLVE1&#45;&gt;REUSE -->
<g id="edge15" class="edge">
<title>SOLVE1&#45;&gt;REUSE</title>
<path fill="none" stroke="black" stroke-dasharray="5,2" d="M390.25,-402.5C523.54,-402.5 786,-402.5 786,-402.5 786,-402.5 786,-360.95 786,-360.95"/>
<polygon fill="black" stroke="black" points="789.5,-360.95 786,-350.95 782.5,-360.95 789.5,-360.95"/>
</g>
<!-- STORE2 -->
<g id="node9" class="node">
<title>STORE2</title>
<polygon fill="none" stroke="black" points="547,-353 426,-353 426,-232 547,-232 547,-353"/>
<text xml:space="preserve" text-anchor="middle" x="486.5" y="-288.23" font-family="Courier,monospace" font-size="12.00">Store result 2</text>
</g>
<!-- SOLVE2&#45;&gt;STORE2 -->
<g id="edge7" class="edge">
<title>SOLVE2&#45;&gt;STORE2</title>
<path fill="none" stroke="black" d="M390.44,-292.5C390.44,-292.5 414.16,-292.5 414.16,-292.5"/>
<polygon fill="black" stroke="black" points="414.16,-296 424.16,-292.5 414.16,-289 414.16,-296"/>
</g>
<!-- SOLVE2&#45;&gt;REUSE -->
<g id="edge16" class="edge">
<title>SOLVE2&#45;&gt;REUSE</title>
<path fill="none" stroke="black" stroke-dasharray="5,2" d="M390.01,-365C514.21,-365 748,-365 748,-365 748,-365 748,-361.14 748,-361.14"/>
<polygon fill="black" stroke="black" points="751.5,-361.14 748,-351.14 744.5,-361.14 751.5,-361.14"/>
</g>
<!-- STOREN -->
<g id="node10" class="node">
<title>STOREN</title>
<polygon fill="none" stroke="black" points="547,-146 426,-146 426,-25 547,-25 547,-146"/>
<text xml:space="preserve" text-anchor="middle" x="486.5" y="-81.22" font-family="Courier,monospace" font-size="12.00">Store result n</text>
</g>
<!-- SOLVEN&#45;&gt;STOREN -->
<g id="edge8" class="edge">
<title>SOLVEN&#45;&gt;STOREN</title>
<path fill="none" stroke="black" d="M390.44,-85.5C390.44,-85.5 414.16,-85.5 414.16,-85.5"/>
<polygon fill="black" stroke="black" points="414.16,-89 424.16,-85.5 414.16,-82 414.16,-89"/>
</g>
<!-- MEMO -->
<g id="node7" class="node">
<title>MEMO</title>
<polygon fill="none" stroke="black" points="674,-338 583,-338 583,-247 674,-247 674,-338"/>
<text xml:space="preserve" text-anchor="middle" x="628.5" y="-288.23" font-family="Courier,monospace" font-size="12.00">Memo table</text>
</g>
<!-- MEMO&#45;&gt;REUSE -->
<g id="edge12" class="edge">
<title>MEMO&#45;&gt;REUSE</title>
<path fill="none" stroke="black" d="M674.15,-292.5C674.15,-292.5 698.04,-292.5 698.04,-292.5"/>
<polygon fill="black" stroke="black" points="698.04,-296 708.04,-292.5 698.04,-289 698.04,-296"/>
</g>
<!-- STORE1&#45;&gt;MEMO -->
<g id="edge9" class="edge">
<title>STORE1&#45;&gt;MEMO</title>
<path fill="none" stroke="black" d="M547.33,-470.5C585.68,-470.5 628,-470.5 628,-470.5 628,-470.5 628,-349.85 628,-349.85"/>
<polygon fill="black" stroke="black" points="631.5,-349.85 628,-339.85 624.5,-349.85 631.5,-349.85"/>
</g>
<!-- STORE2&#45;&gt;MEMO -->
<g id="edge10" class="edge">
<title>STORE2&#45;&gt;MEMO</title>
<path fill="none" stroke="black" d="M547.13,-292.5C547.13,-292.5 571.16,-292.5 571.16,-292.5"/>
<polygon fill="black" stroke="black" points="571.16,-296 581.16,-292.5 571.16,-289 571.16,-296"/>
</g>
<!-- STOREN&#45;&gt;MEMO -->
<g id="edge11" class="edge">
<title>STOREN&#45;&gt;MEMO</title>
<path fill="none" stroke="black" d="M547.33,-85.5C585.68,-85.5 628,-85.5 628,-85.5 628,-85.5 628,-235.05 628,-235.05"/>
<polygon fill="black" stroke="black" points="624.5,-235.05 628,-245.05 631.5,-235.05 624.5,-235.05"/>
</g>
<!-- COMBINE -->
<g id="node12" class="node">
<title>COMBINE</title>
<polygon fill="none" stroke="black" points="928,-326.75 859.5,-326.75 859.5,-258.25 928,-258.25 928,-326.75"/>
<text xml:space="preserve" text-anchor="middle" x="893.75" y="-288.23" font-family="Courier,monospace" font-size="12.00">Combine</text>
</g>
<!-- REUSE&#45;&gt;COMBINE -->
<g id="edge13" class="edge">
<title>REUSE&#45;&gt;COMBINE</title>
<path fill="none" stroke="black" d="M823.93,-292.5C823.93,-292.5 847.55,-292.5 847.55,-292.5"/>
<polygon fill="black" stroke="black" points="847.55,-296 857.55,-292.5 847.55,-289 847.55,-296"/>
</g>
<!-- SOLUTION -->
<g id="node13" class="node">
<title>SOLUTION</title>
<polygon fill="none" stroke="black" points="1040,-330.5 964,-330.5 964,-254.5 1040,-254.5 1040,-330.5"/>
<text xml:space="preserve" text-anchor="middle" x="1002" y="-288.23" font-family="Courier,monospace" font-size="12.00">Solution</text>
</g>
<!-- COMBINE&#45;&gt;SOLUTION -->
<g id="edge14" class="edge">
<title>COMBINE&#45;&gt;SOLUTION</title>
<path fill="none" stroke="black" d="M928.3,-292.5C928.3,-292.5 952.14,-292.5 952.14,-292.5"/>
<polygon fill="black" stroke="black" points="952.14,-296 962.14,-292.5 952.14,-289 952.14,-296"/>
</g>
</g>
</svg>
