<?xml version="1.0" encoding="UTF-8" standalone="no"?>
<!DOCTYPE svg PUBLIC "-//W3C//DTD SVG 1.1//EN"
 "http://www.w3.org/Graphics/SVG/1.1/DTD/svg11.dtd">
<!-- Generated by graphviz version 14.1.4 (20260321.0153)
 -->
<!-- Pages: 1 -->
<svg width="494pt" height="110pt"
 viewBox="0.00 0.00 494.00 110.00" xmlns="http://www.w3.org/2000/svg" xmlns:xlink="http://www.w3.org/1999/xlink">
<g id="graph0" class="graph" transform="scale(1 1) rotate(0) translate(4 106.25)">
<polygon fill="white" stroke="none" points="-4,4 -4,-106.25 490,-106.25 490,4 -4,4"/>
<!-- Xt -->
<g id="node1" class="node">
<title>Xt</title>
<polygon fill="none" stroke="black" points="42.25,-102.25 3.75,-102.25 3.75,-63.75 42.25,-63.75 42.25,-102.25"/>
<text xml:space="preserve" text-anchor="middle" x="23" y="-78.72" font-family="Courier,monospace" font-size="12.00">X_t</text>
</g>
<!-- APPLY -->
<g id="node3" class="node">
<title>APPLY</title>
<polygon fill="none" stroke="black" points="143,-83.5 82,-83.5 82,-22.5 143,-22.5 143,-83.5"/>
<text xml:space="preserve" text-anchor="middle" x="112.5" y="-49.1" font-family="Courier,monospace" font-size="12.00">∀x∈X_t</text>
</g>
<!-- Xt&#45;&gt;APPLY -->
<g id="edge1" class="edge">
<title>Xt&#45;&gt;APPLY</title>
<path fill="none" stroke="black" d="M42.42,-73.62C42.42,-73.62 69.99,-73.62 69.99,-73.62"/>
<polygon fill="black" stroke="black" points="69.99,-77.13 79.99,-73.63 69.99,-70.13 69.99,-77.13"/>
</g>
<!-- v -->
<g id="node2" class="node">
<title>v</title>
<polygon fill="none" stroke="black" points="46,-46 0,-46 0,0 46,0 46,-46"/>
<text xml:space="preserve" text-anchor="middle" x="23" y="-18.73" font-family="Courier,monospace" font-size="12.00">v(·)</text>
</g>
<!-- v&#45;&gt;APPLY -->
<g id="edge2" class="edge">
<title>v&#45;&gt;APPLY</title>
<path fill="none" stroke="black" d="M46.05,-34.25C46.05,-34.25 70.25,-34.25 70.25,-34.25"/>
<polygon fill="black" stroke="black" points="70.25,-37.75 80.25,-34.25 70.25,-30.75 70.25,-37.75"/>
</g>
<!-- VALUES -->
<g id="node4" class="node">
<title>VALUES</title>
<polygon fill="none" stroke="black" points="240,-83.5 179,-83.5 179,-22.5 240,-22.5 240,-83.5"/>
<text xml:space="preserve" text-anchor="middle" x="209.5" y="-48.73" font-family="Courier,monospace" font-size="12.00">{v(x)}</text>
</g>
<!-- APPLY&#45;&gt;VALUES -->
<g id="edge3" class="edge">
<title>APPLY&#45;&gt;VALUES</title>
<path fill="none" stroke="black" d="M143.46,-53C143.46,-53 166.99,-53 166.99,-53"/>
<polygon fill="black" stroke="black" points="166.99,-56.5 176.99,-53 166.99,-49.5 166.99,-56.5"/>
</g>
<!-- MAX -->
<g id="node5" class="node">
<title>MAX</title>
<polygon fill="none" stroke="black" points="314.5,-96.25 276,-96.25 276,-57.75 314.5,-57.75 314.5,-96.25"/>
<text xml:space="preserve" text-anchor="middle" x="295.25" y="-72.72" font-family="Courier,monospace" font-size="12.00">max</text>
</g>
<!-- VALUES&#45;&gt;MAX -->
<g id="edge4" class="edge">
<title>VALUES&#45;&gt;MAX</title>
<path fill="none" stroke="black" d="M240.46,-70.62C240.46,-70.62 264.04,-70.62 264.04,-70.62"/>
<polygon fill="black" stroke="black" points="264.04,-74.13 274.04,-70.63 264.04,-67.13 264.04,-74.13"/>
</g>
<!-- ARGMAX -->
<g id="node6" class="node">
<title>ARGMAX</title>
<polygon fill="none" stroke="black" points="411.5,-83.5 350.5,-83.5 350.5,-22.5 411.5,-22.5 411.5,-83.5"/>
<text xml:space="preserve" text-anchor="middle" x="381" y="-48.73" font-family="Courier,monospace" font-size="12.00">argmax</text>
</g>
<!-- VALUES&#45;&gt;ARGMAX -->
<g id="edge6" class="edge">
<title>VALUES&#45;&gt;ARGMAX</title>
<path fill="none" stroke="black" d="M240.16,-40.12C240.16,-40.12 338.51,-40.12 338.51,-40.12"/>
<polygon fill="black" stroke="black" points="338.51,-43.63 348.51,-40.13 338.51,-36.63 338.51,-43.63"/>
</g>
<!-- MAX&#45;&gt;ARGMAX -->
<g id="edge5" class="edge">
<title>MAX&#45;&gt;ARGMAX</title>
<path fill="none" stroke="black" d="M314.71,-70.62C314.71,-70.62 338.67,-70.62 338.67,-70.62"/>
<polygon fill="black" stroke="black" points="338.67,-74.13 348.67,-70.63 338.67,-67.13 338.67,-74.13"/>
</g>
<!-- OUTPUT -->
<g id="node7" class="node">
<title>OUTPUT</title>
<polygon fill="none" stroke="black" points="486,-72.25 447.5,-72.25 447.5,-33.75 486,-33.75 486,-72.25"/>
<text xml:space="preserve" text-anchor="middle" x="466.75" y="-48.73" font-family="Courier,monospace" font-size="12.00">x_t</text>
</g>
<!-- ARGMAX&#45;&gt;OUTPUT -->
<g id="edge7" class="edge">
<title>ARGMAX&#45;&gt;OUTPUT</title>
<path fill="none" stroke="black" d="M411.96,-53C411.96,-53 435.54,-53 435.54,-53"/>
<polygon fill="black" stroke="black" points="435.54,-56.5 445.54,-53 435.54,-49.5 435.54,-56.5"/>
</g>
</g>
</svg>
