<?xml version="1.0" encoding="UTF-8" standalone="no"?>
<!DOCTYPE svg PUBLIC "-//W3C//DTD SVG 1.1//EN"
 "http://www.w3.org/Graphics/SVG/1.1/DTD/svg11.dtd">
<!-- Generated by graphviz version 14.1.4 (20260321.0153)
 -->
<!-- Pages: 1 -->
<svg width="853pt" height="318pt"
 viewBox="0.00 0.00 853.00 318.00" xmlns="http://www.w3.org/2000/svg" xmlns:xlink="http://www.w3.org/1999/xlink">
<g id="graph0" class="graph" transform="scale(1 1) rotate(0) translate(4 313.75)">
<polygon fill="white" stroke="none" points="-4,4 -4,-313.75 849,-313.75 849,4 -4,4"/>
<!-- START -->
<g id="node1" class="node">
<title>START</title>
<polygon fill="none" stroke="black" points="53.5,-284.25 0,-284.25 0,-230.75 53.5,-230.75 53.5,-284.25"/>
<text xml:space="preserve" text-anchor="middle" x="26.75" y="-253.22" font-family="Courier,monospace" font-size="12.00">Start</text>
</g>
<!-- G_CALC -->
<g id="node3" class="node">
<title>G_CALC</title>
<polygon fill="none" stroke="black" points="135.5,-280.5 89.5,-280.5 89.5,-234.5 135.5,-234.5 135.5,-280.5"/>
<text xml:space="preserve" text-anchor="middle" x="112.5" y="-253.22" font-family="Courier,monospace" font-size="12.00">g(n)</text>
</g>
<!-- START&#45;&gt;G_CALC -->
<g id="edge1" class="edge">
<title>START&#45;&gt;G_CALC</title>
<path fill="none" stroke="black" d="M53.88,-257.5C53.88,-257.5 77.5,-257.5 77.5,-257.5"/>
<polygon fill="black" stroke="black" points="77.5,-261 87.5,-257.5 77.5,-254 77.5,-261"/>
</g>
<!-- GOAL -->
<g id="node2" class="node">
<title>GOAL</title>
<polygon fill="none" stroke="black" points="49.75,-156.5 3.75,-156.5 3.75,-110.5 49.75,-110.5 49.75,-156.5"/>
<text xml:space="preserve" text-anchor="middle" x="26.75" y="-129.22" font-family="Courier,monospace" font-size="12.00">Goal</text>
</g>
<!-- H_CALC -->
<g id="node5" class="node">
<title>H_CALC</title>
<polygon fill="none" stroke="black" points="135.5,-156.5 89.5,-156.5 89.5,-110.5 135.5,-110.5 135.5,-156.5"/>
<text xml:space="preserve" text-anchor="middle" x="112.5" y="-129.22" font-family="Courier,monospace" font-size="12.00">h(n)</text>
</g>
<!-- GOAL&#45;&gt;H_CALC -->
<g id="edge2" class="edge">
<title>GOAL&#45;&gt;H_CALC</title>
<path fill="none" stroke="black" d="M50.18,-133.5C50.18,-133.5 77.58,-133.5 77.58,-133.5"/>
<polygon fill="black" stroke="black" points="77.58,-137 87.58,-133.5 77.58,-130 77.58,-137"/>
</g>
<!-- G_VAL -->
<g id="node4" class="node">
<title>G_VAL</title>
<polygon fill="none" stroke="black" points="240,-291.75 171.5,-291.75 171.5,-223.25 240,-223.25 240,-291.75"/>
<text xml:space="preserve" text-anchor="middle" x="205.75" y="-253.22" font-family="Courier,monospace" font-size="12.00">g_value</text>
</g>
<!-- G_CALC&#45;&gt;G_VAL -->
<g id="edge3" class="edge">
<title>G_CALC&#45;&gt;G_VAL</title>
<path fill="none" stroke="black" d="M135.55,-257.5C135.55,-257.5 159.82,-257.5 159.82,-257.5"/>
<polygon fill="black" stroke="black" points="159.82,-261 169.82,-257.5 159.82,-254 159.82,-261"/>
</g>
<!-- F_CALC -->
<g id="node7" class="node">
<title>F_CALC</title>
<polygon fill="none" stroke="black" points="352,-233.5 276,-233.5 276,-157.5 352,-157.5 352,-233.5"/>
<text xml:space="preserve" text-anchor="middle" x="314" y="-191.22" font-family="Courier,monospace" font-size="12.00">f(n)=g+h</text>
</g>
<!-- G_VAL&#45;&gt;F_CALC -->
<g id="edge5" class="edge">
<title>G_VAL&#45;&gt;F_CALC</title>
<path fill="none" stroke="black" d="M240.3,-228.38C240.3,-228.38 264.14,-228.38 264.14,-228.38"/>
<polygon fill="black" stroke="black" points="264.14,-231.88 274.14,-228.38 264.14,-224.88 264.14,-231.88"/>
</g>
<!-- H_VAL -->
<g id="node6" class="node">
<title>H_VAL</title>
<polygon fill="none" stroke="black" points="240,-167.75 171.5,-167.75 171.5,-99.25 240,-99.25 240,-167.75"/>
<text xml:space="preserve" text-anchor="middle" x="205.75" y="-129.22" font-family="Courier,monospace" font-size="12.00">h_value</text>
</g>
<!-- H_CALC&#45;&gt;H_VAL -->
<g id="edge4" class="edge">
<title>H_CALC&#45;&gt;H_VAL</title>
<path fill="none" stroke="black" d="M135.55,-133.5C135.55,-133.5 159.82,-133.5 159.82,-133.5"/>
<polygon fill="black" stroke="black" points="159.82,-137 169.82,-133.5 159.82,-130 159.82,-137"/>
</g>
<!-- H_VAL&#45;&gt;F_CALC -->
<g id="edge6" class="edge">
<title>H_VAL&#45;&gt;F_CALC</title>
<path fill="none" stroke="black" d="M240.3,-162.62C240.3,-162.62 264.14,-162.62 264.14,-162.62"/>
<polygon fill="black" stroke="black" points="264.14,-166.13 274.14,-162.63 264.14,-159.13 264.14,-166.13"/>
</g>
<!-- F_VAL -->
<g id="node8" class="node">
<title>F_VAL</title>
<polygon fill="none" stroke="black" points="348.25,-139.75 279.75,-139.75 279.75,-71.25 348.25,-71.25 348.25,-139.75"/>
<text xml:space="preserve" text-anchor="middle" x="314" y="-101.22" font-family="Courier,monospace" font-size="12.00">f_value</text>
</g>
<!-- F_CALC&#45;&gt;F_VAL -->
<g id="edge7" class="edge">
<title>F_CALC&#45;&gt;F_VAL</title>
<path fill="none" stroke="black" d="M314,-157.07C314,-157.07 314,-151.61 314,-151.61"/>
<polygon fill="black" stroke="black" points="317.5,-151.61 314,-141.61 310.5,-151.61 317.5,-151.61"/>
</g>
<!-- SELECT -->
<g id="node9" class="node">
<title>SELECT</title>
<polygon fill="none" stroke="black" points="494,-158.5 388,-158.5 388,-52.5 494,-52.5 494,-158.5"/>
<text xml:space="preserve" text-anchor="middle" x="441" y="-101.22" font-family="Courier,monospace" font-size="12.00">Select min f</text>
</g>
<!-- F_VAL&#45;&gt;SELECT -->
<g id="edge8" class="edge">
<title>F_VAL&#45;&gt;SELECT</title>
<path fill="none" stroke="black" d="M348.7,-105.5C348.7,-105.5 376.23,-105.5 376.23,-105.5"/>
<polygon fill="black" stroke="black" points="376.23,-109 386.23,-105.5 376.22,-102 376.23,-109"/>
</g>
<!-- EXPAND -->
<g id="node10" class="node">
<title>EXPAND</title>
<polygon fill="none" stroke="black" points="628.5,-154.75 530,-154.75 530,-56.25 628.5,-56.25 628.5,-154.75"/>
<text xml:space="preserve" text-anchor="middle" x="579.25" y="-101.22" font-family="Courier,monospace" font-size="12.00">Expand node</text>
</g>
<!-- SELECT&#45;&gt;EXPAND -->
<g id="edge9" class="edge">
<title>SELECT&#45;&gt;EXPAND</title>
<path fill="none" stroke="black" d="M494.45,-105.5C494.45,-105.5 518.05,-105.5 518.05,-105.5"/>
<polygon fill="black" stroke="black" points="518.05,-109 528.05,-105.5 518.05,-102 518.05,-109"/>
</g>
<!-- CHECK -->
<g id="node11" class="node">
<title>CHECK</title>
<polygon fill="none" stroke="black" points="718,-132.25 664.5,-132.25 664.5,-78.75 718,-78.75 718,-132.25"/>
<text xml:space="preserve" text-anchor="middle" x="691.25" y="-101.22" font-family="Courier,monospace" font-size="12.00">Goal?</text>
</g>
<!-- EXPAND&#45;&gt;CHECK -->
<g id="edge10" class="edge">
<title>EXPAND&#45;&gt;CHECK</title>
<path fill="none" stroke="black" d="M628.7,-105.5C628.7,-105.5 652.66,-105.5 652.66,-105.5"/>
<polygon fill="black" stroke="black" points="652.66,-109 662.66,-105.5 652.66,-102 652.66,-109"/>
</g>
<!-- PATH -->
<g id="node12" class="node">
<title>PATH</title>
<polygon fill="none" stroke="black" points="845,-91 754,-91 754,0 845,0 845,-91"/>
<text xml:space="preserve" text-anchor="middle" x="799.5" y="-41.23" font-family="Courier,monospace" font-size="12.00">Path found</text>
</g>
<!-- CHECK&#45;&gt;PATH -->
<g id="edge11" class="edge">
<title>CHECK&#45;&gt;PATH</title>
<path fill="none" stroke="black" d="M718.29,-84.88C718.29,-84.88 742.36,-84.88 742.36,-84.88"/>
<polygon fill="black" stroke="black" points="742.36,-88.38 752.36,-84.88 742.36,-81.38 742.36,-88.38"/>
</g>
<!-- CONTINUE -->
<g id="node13" class="node">
<title>CONTINUE</title>
<polygon fill="none" stroke="black" points="837.5,-185.5 761.5,-185.5 761.5,-109.5 837.5,-109.5 837.5,-185.5"/>
<text xml:space="preserve" text-anchor="middle" x="799.5" y="-143.22" font-family="Courier,monospace" font-size="12.00">Continue</text>
</g>
<!-- CHECK&#45;&gt;CONTINUE -->
<g id="edge12" class="edge">
<title>CHECK&#45;&gt;CONTINUE</title>
<path fill="none" stroke="black" d="M718.29,-120.88C718.29,-120.88 749.87,-120.88 749.87,-120.88"/>
<polygon fill="black" stroke="black" points="749.87,-124.38 759.87,-120.88 749.87,-117.38 749.87,-124.38"/>
</g>
<!-- CONTINUE&#45;&gt;G_CALC -->
<g id="edge13" class="edge">
<title>CONTINUE&#45;&gt;G_CALC</title>
<path fill="none" stroke="black" stroke-dasharray="5,2" d="M799,-185.95C799,-233.93 799,-309.75 799,-309.75 799,-309.75 112,-309.75 112,-309.75 112,-309.75 112,-292.39 112,-292.39"/>
<polygon fill="black" stroke="black" points="115.5,-292.39 112,-282.39 108.5,-292.39 115.5,-292.39"/>
</g>
<!-- CONTINUE&#45;&gt;H_CALC -->
<g id="edge14" class="edge">
<title>CONTINUE&#45;&gt;H_CALC</title>
<path fill="none" stroke="black" stroke-dasharray="5,2" d="M761.01,-172C655.59,-172 370,-172 370,-172 370,-172 370,-61.88 370,-61.88 370,-61.88 112,-61.88 112,-61.88 112,-61.88 112,-98.53 112,-98.53"/>
<polygon fill="black" stroke="black" points="108.5,-98.53 112,-108.53 115.5,-98.53 108.5,-98.53"/>
</g>
</g>
</svg>
