<?xml version="1.0" encoding="UTF-8" standalone="no"?>
<!DOCTYPE svg PUBLIC "-//W3C//DTD SVG 1.1//EN"
 "http://www.w3.org/Graphics/SVG/1.1/DTD/svg11.dtd">
<!-- Generated by graphviz version 14.1.4 (20260321.0153)
 -->
<!-- Pages: 1 -->
<svg width="1361pt" height="462pt"
 viewBox="0.00 0.00 1361.00 462.00" xmlns="http://www.w3.org/2000/svg" xmlns:xlink="http://www.w3.org/1999/xlink">
<g id="graph0" class="graph" transform="scale(1 1) rotate(0) translate(4 458.25)">
<polygon fill="white" stroke="none" points="-4,4 -4,-458.25 1356.5,-458.25 1356.5,4 -4,4"/>
<!-- arr_linear -->
<g id="node1" class="node">
<title>arr_linear</title>
<polygon fill="none" stroke="black" points="61,-208 0,-208 0,-147 61,-147 61,-208"/>
<text xml:space="preserve" text-anchor="middle" x="30.5" y="-173.22" font-family="Courier,monospace" font-size="12.00">arr[n]</text>
</g>
<!-- linear -->
<g id="node3" class="node">
<title>linear</title>
<polygon fill="none" stroke="black" points="282.5,-160.25 169,-160.25 169,-46.75 282.5,-46.75 282.5,-160.25"/>
<text xml:space="preserve" text-anchor="middle" x="225.75" y="-106.35" font-family="Courier,monospace" font-size="12.00">Linear Search</text>
<text xml:space="preserve" text-anchor="middle" x="225.75" y="-92.1" font-family="Courier,monospace" font-size="12.00">O(n)</text>
</g>
<!-- arr_linear&#45;&gt;linear -->
<g id="edge1" class="edge">
<title>arr_linear&#45;&gt;linear</title>
<path fill="none" stroke="black" d="M61.44,-153.62C61.44,-153.62 157.09,-153.62 157.09,-153.62"/>
<polygon fill="black" stroke="black" points="157.09,-157.13 167.09,-153.63 157.09,-150.13 157.09,-157.13"/>
</g>
<!-- target_linear -->
<g id="node2" class="node">
<title>target_linear</title>
<polygon fill="none" stroke="black" points="61,-61 0,-61 0,0 61,0 61,-61"/>
<text xml:space="preserve" text-anchor="middle" x="30.5" y="-26.23" font-family="Courier,monospace" font-size="12.00">target</text>
</g>
<!-- target_linear&#45;&gt;linear -->
<g id="edge2" class="edge">
<title>target_linear&#45;&gt;linear</title>
<path fill="none" stroke="black" d="M61.44,-53.88C61.44,-53.88 157.09,-53.88 157.09,-53.88"/>
<polygon fill="black" stroke="black" points="157.09,-57.38 167.09,-53.88 157.09,-50.38 157.09,-57.38"/>
</g>
<!-- check1 -->
<g id="node4" class="node">
<title>check1</title>
<polygon fill="none" stroke="black" points="519,-167.75 390.5,-167.75 390.5,-39.25 519,-39.25 519,-167.75"/>
<text xml:space="preserve" text-anchor="middle" x="454.75" y="-99.22" font-family="Courier,monospace" font-size="12.00">arr[0]==target?</text>
</g>
<!-- linear&#45;&gt;check1 -->
<g id="edge3" class="edge">
<title>linear&#45;&gt;check1</title>
<path fill="none" stroke="black" d="M282.95,-103.5C282.95,-103.5 378.69,-103.5 378.69,-103.5"/>
<polygon fill="black" stroke="black" points="378.69,-107 388.69,-103.5 378.69,-100 378.69,-107"/>
</g>
<!-- check2 -->
<g id="node5" class="node">
<title>check2</title>
<polygon fill="none" stroke="black" points="755.5,-264.75 627,-264.75 627,-136.25 755.5,-136.25 755.5,-264.75"/>
<text xml:space="preserve" text-anchor="middle" x="691.25" y="-196.22" font-family="Courier,monospace" font-size="12.00">arr[1]==target?</text>
</g>
<!-- check1&#45;&gt;check2 -->
<g id="edge4" class="edge">
<title>check1&#45;&gt;check2</title>
<path fill="none" stroke="black" d="M519.37,-152C519.37,-152 615.19,-152 615.19,-152"/>
<polygon fill="black" stroke="black" points="615.19,-155.5 625.19,-152 615.19,-148.5 615.19,-155.5"/>
</g>
<!-- found -->
<g id="node8" class="node">
<title>found</title>
<polygon fill="none" stroke="black" points="1352.5,-226 1261.5,-226 1261.5,-135 1352.5,-135 1352.5,-226"/>
<text xml:space="preserve" text-anchor="middle" x="1307" y="-176.22" font-family="Courier,monospace" font-size="12.00">Found at i</text>
</g>
<!-- check1&#45;&gt;found -->
<g id="edge7" class="edge">
<title>check1&#45;&gt;found</title>
<path fill="none" stroke="black" stroke-dasharray="5,2" d="M519.47,-87.12C718.24,-87.12 1306.5,-87.12 1306.5,-87.12 1306.5,-87.12 1306.5,-123.12 1306.5,-123.12"/>
<polygon fill="black" stroke="black" points="1303,-123.12 1306.5,-133.12 1310,-123.12 1303,-123.12"/>
</g>
<!-- check3 -->
<g id="node6" class="node">
<title>check3</title>
<polygon fill="none" stroke="black" points="902,-374.75 863.5,-374.75 863.5,-336.25 902,-336.25 902,-374.75"/>
<text xml:space="preserve" text-anchor="middle" x="882.75" y="-351.23" font-family="Courier,monospace" font-size="12.00">...</text>
</g>
<!-- check2&#45;&gt;check3 -->
<g id="edge5" class="edge">
<title>check2&#45;&gt;check3</title>
<path fill="none" stroke="black" d="M756,-245.38C811.48,-245.38 882.5,-245.38 882.5,-245.38 882.5,-245.38 882.5,-324.3 882.5,-324.3"/>
<polygon fill="black" stroke="black" points="879,-324.3 882.5,-334.3 886,-324.3 879,-324.3"/>
</g>
<!-- check2&#45;&gt;found -->
<g id="edge8" class="edge">
<title>check2&#45;&gt;found</title>
<path fill="none" stroke="black" stroke-dasharray="5,2" d="M755.98,-181.12C755.98,-181.12 1249.73,-181.12 1249.73,-181.12"/>
<polygon fill="black" stroke="black" points="1249.73,-184.63 1259.73,-181.13 1249.73,-177.63 1249.73,-184.63"/>
</g>
<!-- checkN -->
<g id="node7" class="node">
<title>checkN</title>
<polygon fill="none" stroke="black" points="1153.5,-454.25 1010,-454.25 1010,-310.75 1153.5,-310.75 1153.5,-454.25"/>
<text xml:space="preserve" text-anchor="middle" x="1081.75" y="-378.23" font-family="Courier,monospace" font-size="12.00">arr[n&#45;1]==target?</text>
</g>
<!-- check3&#45;&gt;checkN -->
<g id="edge6" class="edge">
<title>check3&#45;&gt;checkN</title>
<path fill="none" stroke="black" d="M902.19,-355.5C902.19,-355.5 998.33,-355.5 998.33,-355.5"/>
<polygon fill="black" stroke="black" points="998.33,-359 1008.33,-355.5 998.33,-352 998.33,-359"/>
</g>
<!-- checkN&#45;&gt;found -->
<g id="edge9" class="edge">
<title>checkN&#45;&gt;found</title>
<path fill="none" stroke="black" stroke-dasharray="5,2" d="M1153.79,-325.75C1219.53,-325.75 1306.5,-325.75 1306.5,-325.75 1306.5,-325.75 1306.5,-237.97 1306.5,-237.97"/>
<polygon fill="black" stroke="black" points="1310,-237.97 1306.5,-227.97 1303,-237.97 1310,-237.97"/>
</g>
<!-- notfound -->
<g id="node9" class="node">
<title>notfound</title>
<polygon fill="none" stroke="black" points="1348.75,-424.25 1265.25,-424.25 1265.25,-340.75 1348.75,-340.75 1348.75,-424.25"/>
<text xml:space="preserve" text-anchor="middle" x="1307" y="-378.23" font-family="Courier,monospace" font-size="12.00">Not found</text>
</g>
<!-- checkN&#45;&gt;notfound -->
<g id="edge10" class="edge">
<title>checkN&#45;&gt;notfound</title>
<path fill="none" stroke="black" stroke-dasharray="5,2" d="M1153.95,-382.5C1153.95,-382.5 1253.54,-382.5 1253.54,-382.5"/>
<polygon fill="black" stroke="black" points="1253.54,-386 1263.54,-382.5 1253.54,-379 1253.54,-386"/>
</g>
</g>
</svg>
