<?xml version="1.0" encoding="UTF-8" standalone="no"?>
<!DOCTYPE svg PUBLIC "-//W3C//DTD SVG 1.1//EN"
 "http://www.w3.org/Graphics/SVG/1.1/DTD/svg11.dtd">
<!-- Generated by graphviz version 14.1.4 (20260321.0153)
 -->
<!-- Pages: 1 -->
<svg width="837pt" height="419pt"
 viewBox="0.00 0.00 837.00 419.00" xmlns="http://www.w3.org/2000/svg" xmlns:xlink="http://www.w3.org/1999/xlink">
<g id="graph0" class="graph" transform="scale(1 1) rotate(0) translate(4 414.5)">
<polygon fill="white" stroke="none" points="-4,4 -4,-414.5 833,-414.5 833,4 -4,4"/>
<!-- h_prev -->
<g id="node1" class="node">
<title>h_prev</title>
<polygon fill="none" stroke="black" points="68.5,-172.5 0,-172.5 0,-104 68.5,-104 68.5,-172.5"/>
<text xml:space="preserve" text-anchor="middle" x="34.25" y="-133.97" font-family="Courier,monospace" font-size="12.00">h_{t&#45;1}</text>
</g>
<!-- CONCAT -->
<g id="node4" class="node">
<title>CONCAT</title>
<polygon fill="none" stroke="black" points="225.5,-234.75 104.5,-234.75 104.5,-113.75 225.5,-113.75 225.5,-234.75"/>
<text xml:space="preserve" text-anchor="middle" x="165" y="-169.97" font-family="Courier,monospace" font-size="12.00">[h_{t&#45;1}, x_t]</text>
</g>
<!-- h_prev&#45;&gt;CONCAT -->
<g id="edge1" class="edge">
<title>h_prev&#45;&gt;CONCAT</title>
<path fill="none" stroke="black" d="M68.95,-143.12C68.95,-143.12 92.58,-143.12 92.58,-143.12"/>
<polygon fill="black" stroke="black" points="92.58,-146.63 102.58,-143.13 92.58,-139.63 92.58,-146.63"/>
</g>
<!-- x_t -->
<g id="node2" class="node">
<title>x_t</title>
<polygon fill="none" stroke="black" points="53.5,-229.5 15,-229.5 15,-191 53.5,-191 53.5,-229.5"/>
<text xml:space="preserve" text-anchor="middle" x="34.25" y="-205.97" font-family="Courier,monospace" font-size="12.00">x_t</text>
</g>
<!-- x_t&#45;&gt;CONCAT -->
<g id="edge2" class="edge">
<title>x_t&#45;&gt;CONCAT</title>
<path fill="none" stroke="black" d="M53.82,-210.25C53.82,-210.25 92.65,-210.25 92.65,-210.25"/>
<polygon fill="black" stroke="black" points="92.65,-213.75 102.65,-210.25 92.65,-206.75 92.65,-213.75"/>
</g>
<!-- c_prev -->
<g id="node3" class="node">
<title>c_prev</title>
<polygon fill="none" stroke="black" points="68.5,-410.5 0,-410.5 0,-342 68.5,-342 68.5,-410.5"/>
<text xml:space="preserve" text-anchor="middle" x="34.25" y="-371.98" font-family="Courier,monospace" font-size="12.00">c_{t&#45;1}</text>
</g>
<!-- MUL_f -->
<g id="node25" class="node">
<title>MUL_f</title>
<polygon fill="none" stroke="black" points="598,-330.25 562,-330.25 562,-294.25 598,-294.25 598,-330.25"/>
<text xml:space="preserve" text-anchor="middle" x="580" y="-307.98" font-family="Courier,monospace" font-size="12.00">×</text>
</g>
<!-- c_prev&#45;&gt;MUL_f -->
<g id="edge24" class="edge">
<title>c_prev&#45;&gt;MUL_f</title>
<path fill="none" stroke="black" d="M68.8,-379.5C188.77,-379.5 580,-379.5 580,-379.5 580,-379.5 580,-342.14 580,-342.14"/>
<polygon fill="black" stroke="black" points="583.5,-342.14 580,-332.14 576.5,-342.14 583.5,-342.14"/>
</g>
<!-- MATMUL_f -->
<g id="node9" class="node">
<title>MATMUL_f</title>
<polygon fill="none" stroke="black" points="297.5,-330.25 261.5,-330.25 261.5,-294.25 297.5,-294.25 297.5,-330.25"/>
<text xml:space="preserve" text-anchor="middle" x="279.5" y="-307.98" font-family="Courier,monospace" font-size="12.00">×</text>
</g>
<!-- CONCAT&#45;&gt;MATMUL_f -->
<g id="edge3" class="edge">
<title>CONCAT&#45;&gt;MATMUL_f</title>
<path fill="none" stroke="black" d="M205,-235.19C205,-268.13 205,-302.12 205,-302.12 205,-302.12 249.57,-302.12 249.57,-302.12"/>
<polygon fill="black" stroke="black" points="249.57,-305.63 259.57,-302.13 249.57,-298.63 249.57,-305.63"/>
</g>
<!-- MATMUL_i -->
<g id="node10" class="node">
<title>MATMUL_i</title>
<polygon fill="none" stroke="black" points="297.5,-136.25 261.5,-136.25 261.5,-100.25 297.5,-100.25 297.5,-136.25"/>
<text xml:space="preserve" text-anchor="middle" x="279.5" y="-113.97" font-family="Courier,monospace" font-size="12.00">×</text>
</g>
<!-- CONCAT&#45;&gt;MATMUL_i -->
<g id="edge4" class="edge">
<title>CONCAT&#45;&gt;MATMUL_i</title>
<path fill="none" stroke="black" d="M225.94,-125C225.94,-125 249.55,-125 249.55,-125"/>
<polygon fill="black" stroke="black" points="249.55,-128.5 259.55,-125 249.55,-121.5 249.55,-128.5"/>
</g>
<!-- MATMUL_c -->
<g id="node11" class="node">
<title>MATMUL_c</title>
<polygon fill="none" stroke="black" points="297.5,-192.25 261.5,-192.25 261.5,-156.25 297.5,-156.25 297.5,-192.25"/>
<text xml:space="preserve" text-anchor="middle" x="279.5" y="-169.97" font-family="Courier,monospace" font-size="12.00">×</text>
</g>
<!-- CONCAT&#45;&gt;MATMUL_c -->
<g id="edge5" class="edge">
<title>CONCAT&#45;&gt;MATMUL_c</title>
<path fill="none" stroke="black" d="M225.94,-180.25C225.94,-180.25 249.55,-180.25 249.55,-180.25"/>
<polygon fill="black" stroke="black" points="249.55,-183.75 259.55,-180.25 249.55,-176.75 249.55,-183.75"/>
</g>
<!-- MATMUL_o -->
<g id="node12" class="node">
<title>MATMUL_o</title>
<polygon fill="none" stroke="black" points="297.5,-254.25 261.5,-254.25 261.5,-218.25 297.5,-218.25 297.5,-254.25"/>
<text xml:space="preserve" text-anchor="middle" x="279.5" y="-231.97" font-family="Courier,monospace" font-size="12.00">×</text>
</g>
<!-- CONCAT&#45;&gt;MATMUL_o -->
<g id="edge6" class="edge">
<title>CONCAT&#45;&gt;MATMUL_o</title>
<path fill="none" stroke="black" d="M225.94,-226.5C225.94,-226.5 249.55,-226.5 249.55,-226.5"/>
<polygon fill="black" stroke="black" points="249.55,-230 259.55,-226.5 249.55,-223 249.55,-230"/>
</g>
<!-- W_f -->
<g id="node5" class="node">
<title>W_f</title>
<polygon fill="none" stroke="black" points="184.25,-348.5 145.75,-348.5 145.75,-310 184.25,-310 184.25,-348.5"/>
<text xml:space="preserve" text-anchor="middle" x="165" y="-324.98" font-family="Courier,monospace" font-size="12.00">W_f</text>
</g>
<!-- W_f&#45;&gt;MATMUL_f -->
<g id="edge7" class="edge">
<title>W_f&#45;&gt;MATMUL_f</title>
<path fill="none" stroke="black" d="M184.68,-320.12C184.68,-320.12 249.69,-320.12 249.69,-320.12"/>
<polygon fill="black" stroke="black" points="249.69,-323.63 259.69,-320.13 249.69,-316.63 249.69,-323.63"/>
</g>
<!-- W_i -->
<g id="node6" class="node">
<title>W_i</title>
<polygon fill="none" stroke="black" points="184.25,-38.5 145.75,-38.5 145.75,0 184.25,0 184.25,-38.5"/>
<text xml:space="preserve" text-anchor="middle" x="165" y="-14.97" font-family="Courier,monospace" font-size="12.00">W_i</text>
</g>
<!-- W_i&#45;&gt;MATMUL_i -->
<g id="edge8" class="edge">
<title>W_i&#45;&gt;MATMUL_i</title>
<path fill="none" stroke="black" d="M184.6,-19.25C217.19,-19.25 279,-19.25 279,-19.25 279,-19.25 279,-88.58 279,-88.58"/>
<polygon fill="black" stroke="black" points="275.5,-88.58 279,-98.58 282.5,-88.58 275.5,-88.58"/>
</g>
<!-- W_c -->
<g id="node7" class="node">
<title>W_c</title>
<polygon fill="none" stroke="black" points="184.25,-95.5 145.75,-95.5 145.75,-57 184.25,-57 184.25,-95.5"/>
<text xml:space="preserve" text-anchor="middle" x="165" y="-71.97" font-family="Courier,monospace" font-size="12.00">W_c</text>
</g>
<!-- W_c&#45;&gt;MATMUL_c -->
<g id="edge9" class="edge">
<title>W_c&#45;&gt;MATMUL_c</title>
<path fill="none" stroke="black" d="M184.68,-76.25C207.79,-76.25 243,-76.25 243,-76.25 243,-76.25 243,-168.25 243,-168.25 243,-168.25 249.74,-168.25 249.74,-168.25"/>
<polygon fill="black" stroke="black" points="249.74,-171.75 259.74,-168.25 249.74,-164.75 249.74,-171.75"/>
</g>
<!-- W_o -->
<g id="node8" class="node">
<title>W_o</title>
<polygon fill="none" stroke="black" points="184.25,-291.5 145.75,-291.5 145.75,-253 184.25,-253 184.25,-291.5"/>
<text xml:space="preserve" text-anchor="middle" x="165" y="-267.98" font-family="Courier,monospace" font-size="12.00">W_o</text>
</g>
<!-- W_o&#45;&gt;MATMUL_o -->
<g id="edge10" class="edge">
<title>W_o&#45;&gt;MATMUL_o</title>
<path fill="none" stroke="black" d="M165,-252.54C165,-247.7 165,-243.88 165,-243.88 165,-243.88 249.59,-243.88 249.59,-243.88"/>
<polygon fill="black" stroke="black" points="249.59,-247.38 259.59,-243.88 249.59,-240.38 249.59,-247.38"/>
</g>
<!-- ADD_f -->
<g id="node13" class="node">
<title>ADD_f</title>
<polygon fill="none" stroke="black" points="369.5,-330.25 333.5,-330.25 333.5,-294.25 369.5,-294.25 369.5,-330.25"/>
<text xml:space="preserve" text-anchor="middle" x="351.5" y="-307.98" font-family="Courier,monospace" font-size="12.00">+</text>
</g>
<!-- MATMUL_f&#45;&gt;ADD_f -->
<g id="edge11" class="edge">
<title>MATMUL_f&#45;&gt;ADD_f</title>
<path fill="none" stroke="black" d="M297.67,-312.25C297.67,-312.25 321.57,-312.25 321.57,-312.25"/>
<polygon fill="black" stroke="black" points="321.57,-315.75 331.57,-312.25 321.57,-308.75 321.57,-315.75"/>
</g>
<!-- ADD_i -->
<g id="node14" class="node">
<title>ADD_i</title>
<polygon fill="none" stroke="black" points="369.5,-136.25 333.5,-136.25 333.5,-100.25 369.5,-100.25 369.5,-136.25"/>
<text xml:space="preserve" text-anchor="middle" x="351.5" y="-113.97" font-family="Courier,monospace" font-size="12.00">+</text>
</g>
<!-- MATMUL_i&#45;&gt;ADD_i -->
<g id="edge12" class="edge">
<title>MATMUL_i&#45;&gt;ADD_i</title>
<path fill="none" stroke="black" d="M297.67,-118.25C297.67,-118.25 321.57,-118.25 321.57,-118.25"/>
<polygon fill="black" stroke="black" points="321.57,-121.75 331.57,-118.25 321.57,-114.75 321.57,-121.75"/>
</g>
<!-- ADD_c -->
<g id="node15" class="node">
<title>ADD_c</title>
<polygon fill="none" stroke="black" points="369.5,-194.25 333.5,-194.25 333.5,-158.25 369.5,-158.25 369.5,-194.25"/>
<text xml:space="preserve" text-anchor="middle" x="351.5" y="-171.97" font-family="Courier,monospace" font-size="12.00">+</text>
</g>
<!-- MATMUL_c&#45;&gt;ADD_c -->
<g id="edge13" class="edge">
<title>MATMUL_c&#45;&gt;ADD_c</title>
<path fill="none" stroke="black" d="M297.67,-175.25C297.67,-175.25 321.57,-175.25 321.57,-175.25"/>
<polygon fill="black" stroke="black" points="321.57,-178.75 331.57,-175.25 321.57,-171.75 321.57,-178.75"/>
</g>
<!-- ADD_o -->
<g id="node16" class="node">
<title>ADD_o</title>
<polygon fill="none" stroke="black" points="369.5,-254.25 333.5,-254.25 333.5,-218.25 369.5,-218.25 369.5,-254.25"/>
<text xml:space="preserve" text-anchor="middle" x="351.5" y="-231.97" font-family="Courier,monospace" font-size="12.00">+</text>
</g>
<!-- MATMUL_o&#45;&gt;ADD_o -->
<g id="edge14" class="edge">
<title>MATMUL_o&#45;&gt;ADD_o</title>
<path fill="none" stroke="black" d="M297.67,-236.25C297.67,-236.25 321.57,-236.25 321.57,-236.25"/>
<polygon fill="black" stroke="black" points="321.57,-239.75 331.57,-236.25 321.57,-232.75 321.57,-239.75"/>
</g>
<!-- SIGMOID_f -->
<g id="node17" class="node">
<title>SIGMOID_f</title>
<polygon fill="none" stroke="black" points="446.5,-330.25 410.5,-330.25 410.5,-294.25 446.5,-294.25 446.5,-330.25"/>
<text xml:space="preserve" text-anchor="middle" x="428.5" y="-307.98" font-family="Courier,monospace" font-size="12.00">σ</text>
</g>
<!-- ADD_f&#45;&gt;SIGMOID_f -->
<g id="edge15" class="edge">
<title>ADD_f&#45;&gt;SIGMOID_f</title>
<path fill="none" stroke="black" d="M369.75,-312.25C369.75,-312.25 398.6,-312.25 398.6,-312.25"/>
<polygon fill="black" stroke="black" points="398.6,-315.75 408.6,-312.25 398.6,-308.75 398.6,-315.75"/>
</g>
<!-- SIGMOID_i -->
<g id="node18" class="node">
<title>SIGMOID_i</title>
<polygon fill="none" stroke="black" points="446.5,-136.25 410.5,-136.25 410.5,-100.25 446.5,-100.25 446.5,-136.25"/>
<text xml:space="preserve" text-anchor="middle" x="428.5" y="-113.97" font-family="Courier,monospace" font-size="12.00">σ</text>
</g>
<!-- ADD_i&#45;&gt;SIGMOID_i -->
<g id="edge16" class="edge">
<title>ADD_i&#45;&gt;SIGMOID_i</title>
<path fill="none" stroke="black" d="M369.75,-118.25C369.75,-118.25 398.6,-118.25 398.6,-118.25"/>
<polygon fill="black" stroke="black" points="398.6,-121.75 408.6,-118.25 398.6,-114.75 398.6,-121.75"/>
</g>
<!-- TANH_c -->
<g id="node19" class="node">
<title>TANH_c</title>
<polygon fill="none" stroke="black" points="451.5,-200.25 405.5,-200.25 405.5,-154.25 451.5,-154.25 451.5,-200.25"/>
<text xml:space="preserve" text-anchor="middle" x="428.5" y="-172.97" font-family="Courier,monospace" font-size="12.00">tanh</text>
</g>
<!-- ADD_c&#45;&gt;TANH_c -->
<g id="edge17" class="edge">
<title>ADD_c&#45;&gt;TANH_c</title>
<path fill="none" stroke="black" d="M369.75,-176.25C369.75,-176.25 393.61,-176.25 393.61,-176.25"/>
<polygon fill="black" stroke="black" points="393.61,-179.75 403.61,-176.25 393.61,-172.75 393.61,-179.75"/>
</g>
<!-- SIGMOID_o -->
<g id="node20" class="node">
<title>SIGMOID_o</title>
<polygon fill="none" stroke="black" points="446.5,-254.25 410.5,-254.25 410.5,-218.25 446.5,-218.25 446.5,-254.25"/>
<text xml:space="preserve" text-anchor="middle" x="428.5" y="-231.97" font-family="Courier,monospace" font-size="12.00">σ</text>
</g>
<!-- ADD_o&#45;&gt;SIGMOID_o -->
<g id="edge18" class="edge">
<title>ADD_o&#45;&gt;SIGMOID_o</title>
<path fill="none" stroke="black" d="M369.75,-236.25C369.75,-236.25 398.6,-236.25 398.6,-236.25"/>
<polygon fill="black" stroke="black" points="398.6,-239.75 408.6,-236.25 398.6,-232.75 398.6,-239.75"/>
</g>
<!-- f_t -->
<g id="node21" class="node">
<title>f_t</title>
<polygon fill="none" stroke="black" points="526,-331.5 487.5,-331.5 487.5,-293 526,-293 526,-331.5"/>
<text xml:space="preserve" text-anchor="middle" x="506.75" y="-307.98" font-family="Courier,monospace" font-size="12.00">f_t</text>
</g>
<!-- SIGMOID_f&#45;&gt;f_t -->
<g id="edge19" class="edge">
<title>SIGMOID_f&#45;&gt;f_t</title>
<path fill="none" stroke="black" d="M446.65,-312.25C446.65,-312.25 475.54,-312.25 475.54,-312.25"/>
<polygon fill="black" stroke="black" points="475.54,-315.75 485.54,-312.25 475.54,-308.75 475.54,-315.75"/>
</g>
<!-- i_t -->
<g id="node22" class="node">
<title>i_t</title>
<polygon fill="none" stroke="black" points="526,-138.5 487.5,-138.5 487.5,-100 526,-100 526,-138.5"/>
<text xml:space="preserve" text-anchor="middle" x="506.75" y="-114.97" font-family="Courier,monospace" font-size="12.00">i_t</text>
</g>
<!-- SIGMOID_i&#45;&gt;i_t -->
<g id="edge20" class="edge">
<title>SIGMOID_i&#45;&gt;i_t</title>
<path fill="none" stroke="black" d="M446.65,-118.25C446.65,-118.25 475.54,-118.25 475.54,-118.25"/>
<polygon fill="black" stroke="black" points="475.54,-121.75 485.54,-118.25 475.54,-114.75 475.54,-121.75"/>
</g>
<!-- c_tilde -->
<g id="node23" class="node">
<title>c_tilde</title>
<polygon fill="none" stroke="black" points="526,-196.5 487.5,-196.5 487.5,-158 526,-158 526,-196.5"/>
<text xml:space="preserve" text-anchor="middle" x="506.75" y="-172.97" font-family="Courier,monospace" font-size="12.00">c̃_t</text>
</g>
<!-- TANH_c&#45;&gt;c_tilde -->
<g id="edge21" class="edge">
<title>TANH_c&#45;&gt;c_tilde</title>
<path fill="none" stroke="black" d="M451.98,-177.25C451.98,-177.25 475.73,-177.25 475.73,-177.25"/>
<polygon fill="black" stroke="black" points="475.73,-180.75 485.73,-177.25 475.73,-173.75 475.73,-180.75"/>
</g>
<!-- o_t -->
<g id="node24" class="node">
<title>o_t</title>
<polygon fill="none" stroke="black" points="526,-254.5 487.5,-254.5 487.5,-216 526,-216 526,-254.5"/>
<text xml:space="preserve" text-anchor="middle" x="506.75" y="-230.97" font-family="Courier,monospace" font-size="12.00">o_t</text>
</g>
<!-- SIGMOID_o&#45;&gt;o_t -->
<g id="edge22" class="edge">
<title>SIGMOID_o&#45;&gt;o_t</title>
<path fill="none" stroke="black" d="M446.65,-236.25C446.65,-236.25 475.54,-236.25 475.54,-236.25"/>
<polygon fill="black" stroke="black" points="475.54,-239.75 485.54,-236.25 475.54,-232.75 475.54,-239.75"/>
</g>
<!-- f_t&#45;&gt;MUL_f -->
<g id="edge23" class="edge">
<title>f_t&#45;&gt;MUL_f</title>
<path fill="none" stroke="black" d="M526.38,-312.25C526.38,-312.25 550.31,-312.25 550.31,-312.25"/>
<polygon fill="black" stroke="black" points="550.31,-315.75 560.31,-312.25 550.31,-308.75 550.31,-315.75"/>
</g>
<!-- MUL_i -->
<g id="node26" class="node">
<title>MUL_i</title>
<polygon fill="none" stroke="black" points="598,-198.25 562,-198.25 562,-162.25 598,-162.25 598,-198.25"/>
<text xml:space="preserve" text-anchor="middle" x="580" y="-175.97" font-family="Courier,monospace" font-size="12.00">×</text>
</g>
<!-- i_t&#45;&gt;MUL_i -->
<g id="edge25" class="edge">
<title>i_t&#45;&gt;MUL_i</title>
<path fill="none" stroke="black" d="M526.25,-123.38C535.26,-123.38 544,-123.38 544,-123.38 544,-123.38 544,-173.67 544,-173.67 544,-173.67 550.06,-173.67 550.06,-173.67"/>
<polygon fill="black" stroke="black" points="550.06,-177.17 560.06,-173.67 550.06,-170.17 550.06,-177.17"/>
</g>
<!-- c_tilde&#45;&gt;MUL_i -->
<g id="edge26" class="edge">
<title>c_tilde&#45;&gt;MUL_i</title>
<path fill="none" stroke="black" d="M526.38,-185.08C526.38,-185.08 550.31,-185.08 550.31,-185.08"/>
<polygon fill="black" stroke="black" points="550.31,-188.58 560.31,-185.08 550.31,-181.58 550.31,-188.58"/>
</g>
<!-- MUL_o -->
<g id="node30" class="node">
<title>MUL_o</title>
<polygon fill="none" stroke="black" points="749.5,-180.25 713.5,-180.25 713.5,-144.25 749.5,-144.25 749.5,-180.25"/>
<text xml:space="preserve" text-anchor="middle" x="731.5" y="-157.97" font-family="Courier,monospace" font-size="12.00">×</text>
</g>
<!-- o_t&#45;&gt;MUL_o -->
<g id="edge32" class="edge">
<title>o_t&#45;&gt;MUL_o</title>
<path fill="none" stroke="black" d="M526.17,-230.12C556.08,-230.12 610,-230.12 610,-230.12 610,-230.12 610,-176.38 610,-176.38 610,-176.38 701.53,-176.38 701.53,-176.38"/>
<polygon fill="black" stroke="black" points="701.53,-179.88 711.53,-176.38 701.53,-172.88 701.53,-179.88"/>
</g>
<!-- ADD_cell -->
<g id="node27" class="node">
<title>ADD_cell</title>
<polygon fill="none" stroke="black" points="598,-144.25 562,-144.25 562,-108.25 598,-108.25 598,-144.25"/>
<text xml:space="preserve" text-anchor="middle" x="580" y="-121.97" font-family="Courier,monospace" font-size="12.00">+</text>
</g>
<!-- MUL_f&#45;&gt;ADD_cell -->
<g id="edge27" class="edge">
<title>MUL_f&#45;&gt;ADD_cell</title>
<path fill="none" stroke="black" d="M598.06,-312.25C609.44,-312.25 622,-312.25 622,-312.25 622,-312.25 622,-140.83 622,-140.83 622,-140.83 609.57,-140.83 609.57,-140.83"/>
<polygon fill="black" stroke="black" points="609.57,-137.33 599.57,-140.83 609.57,-144.33 609.57,-137.33"/>
</g>
<!-- MUL_i&#45;&gt;ADD_cell -->
<g id="edge28" class="edge">
<title>MUL_i&#45;&gt;ADD_cell</title>
<path fill="none" stroke="black" d="M580,-161.97C580,-161.97 580,-156.03 580,-156.03"/>
<polygon fill="black" stroke="black" points="583.5,-156.03 580,-146.03 576.5,-156.03 583.5,-156.03"/>
</g>
<!-- c_t -->
<g id="node28" class="node">
<title>c_t</title>
<polygon fill="none" stroke="black" points="672.5,-172.5 634,-172.5 634,-134 672.5,-134 672.5,-172.5"/>
<text xml:space="preserve" text-anchor="middle" x="653.25" y="-148.97" font-family="Courier,monospace" font-size="12.00">c_t</text>
</g>
<!-- ADD_cell&#45;&gt;c_t -->
<g id="edge29" class="edge">
<title>ADD_cell&#45;&gt;c_t</title>
<path fill="none" stroke="black" d="M598.48,-137.42C598.48,-137.42 622.23,-137.42 622.23,-137.42"/>
<polygon fill="black" stroke="black" points="622.23,-140.92 632.23,-137.42 622.23,-133.92 622.23,-140.92"/>
</g>
<!-- TANH_cell -->
<g id="node29" class="node">
<title>TANH_cell</title>
<polygon fill="none" stroke="black" points="754.5,-244.25 708.5,-244.25 708.5,-198.25 754.5,-198.25 754.5,-244.25"/>
<text xml:space="preserve" text-anchor="middle" x="731.5" y="-216.97" font-family="Courier,monospace" font-size="12.00">tanh</text>
</g>
<!-- c_t&#45;&gt;TANH_cell -->
<g id="edge30" class="edge">
<title>c_t&#45;&gt;TANH_cell</title>
<path fill="none" stroke="black" d="M653,-172.75C653,-188.52 653,-208.12 653,-208.12 653,-208.12 696.86,-208.12 696.86,-208.12"/>
<polygon fill="black" stroke="black" points="696.86,-211.63 706.86,-208.13 696.86,-204.63 696.86,-211.63"/>
</g>
<!-- TANH_cell&#45;&gt;MUL_o -->
<g id="edge31" class="edge">
<title>TANH_cell&#45;&gt;MUL_o</title>
<path fill="none" stroke="black" d="M731,-197.93C731,-197.93 731,-192 731,-192"/>
<polygon fill="black" stroke="black" points="734.5,-192 731,-182 727.5,-192 734.5,-192"/>
</g>
<!-- h_t -->
<g id="node31" class="node">
<title>h_t</title>
<polygon fill="none" stroke="black" points="829,-181.5 790.5,-181.5 790.5,-143 829,-143 829,-181.5"/>
<text xml:space="preserve" text-anchor="middle" x="809.75" y="-157.97" font-family="Courier,monospace" font-size="12.00">h_t</text>
</g>
<!-- MUL_o&#45;&gt;h_t -->
<g id="edge33" class="edge">
<title>MUL_o&#45;&gt;h_t</title>
<path fill="none" stroke="black" d="M749.65,-162.25C749.65,-162.25 778.54,-162.25 778.54,-162.25"/>
<polygon fill="black" stroke="black" points="778.54,-165.75 788.54,-162.25 778.54,-158.75 778.54,-165.75"/>
</g>
</g>
</svg>
