<?xml version="1.0" encoding="UTF-8" standalone="no"?>
<!DOCTYPE svg PUBLIC "-//W3C//DTD SVG 1.1//EN"
 "http://www.w3.org/Graphics/SVG/1.1/DTD/svg11.dtd">
<!-- Generated by graphviz version 14.1.4 (20260321.0153)
 -->
<!-- Pages: 1 -->
<svg width="596pt" height="422pt"
 viewBox="0.00 0.00 596.00 422.00" xmlns="http://www.w3.org/2000/svg" xmlns:xlink="http://www.w3.org/1999/xlink">
<g id="graph0" class="graph" transform="scale(1 1) rotate(0) translate(4 418.12)">
<polygon fill="white" stroke="none" points="-4,4 -4,-418.12 592.25,-418.12 592.25,4 -4,4"/>
<!-- X1 -->
<g id="node1" class="node">
<title>X1</title>
<polygon fill="none" stroke="black" points="36.12,-414.12 0.12,-414.12 0.12,-378.12 36.12,-378.12 36.12,-414.12"/>
<text xml:space="preserve" text-anchor="middle" x="18.12" y="-392.23" font-family="Courier,monospace" font-size="12.00">x₁</text>
</g>
<!-- MUL1 -->
<g id="node9" class="node">
<title>MUL1</title>
<polygon fill="none" stroke="black" points="108.25,-360.12 72.25,-360.12 72.25,-324.12 108.25,-324.12 108.25,-360.12"/>
<text xml:space="preserve" text-anchor="middle" x="90.25" y="-337.85" font-family="Courier,monospace" font-size="12.00">×</text>
</g>
<!-- X1&#45;&gt;MUL1 -->
<g id="edge1" class="edge">
<title>X1&#45;&gt;MUL1</title>
<path fill="none" stroke="black" d="M36.33,-396.12C57.69,-396.12 90.25,-396.12 90.25,-396.12 90.25,-396.12 90.25,-371.92 90.25,-371.92"/>
<polygon fill="black" stroke="black" points="93.75,-371.92 90.25,-361.92 86.75,-371.92 93.75,-371.92"/>
</g>
<!-- X2 -->
<g id="node2" class="node">
<title>X2</title>
<polygon fill="none" stroke="black" points="36.12,-306.12 0.12,-306.12 0.12,-270.12 36.12,-270.12 36.12,-306.12"/>
<text xml:space="preserve" text-anchor="middle" x="18.12" y="-284.23" font-family="Courier,monospace" font-size="12.00">x₂</text>
</g>
<!-- MUL2 -->
<g id="node10" class="node">
<title>MUL2</title>
<polygon fill="none" stroke="black" points="108.25,-257.12 72.25,-257.12 72.25,-221.12 108.25,-221.12 108.25,-257.12"/>
<text xml:space="preserve" text-anchor="middle" x="90.25" y="-234.85" font-family="Courier,monospace" font-size="12.00">×</text>
</g>
<!-- X2&#45;&gt;MUL2 -->
<g id="edge2" class="edge">
<title>X2&#45;&gt;MUL2</title>
<path fill="none" stroke="black" d="M36.33,-283.62C57.69,-283.62 90.25,-283.62 90.25,-283.62 90.25,-283.62 90.25,-269 90.25,-269"/>
<polygon fill="black" stroke="black" points="93.75,-269 90.25,-259 86.75,-269 93.75,-269"/>
</g>
<!-- X3 -->
<g id="node3" class="node">
<title>X3</title>
<polygon fill="none" stroke="black" points="36.12,-198.12 0.12,-198.12 0.12,-162.12 36.12,-162.12 36.12,-198.12"/>
<text xml:space="preserve" text-anchor="middle" x="18.12" y="-176.22" font-family="Courier,monospace" font-size="12.00">x₃</text>
</g>
<!-- MUL3 -->
<g id="node11" class="node">
<title>MUL3</title>
<polygon fill="none" stroke="black" points="108.25,-193.12 72.25,-193.12 72.25,-157.12 108.25,-157.12 108.25,-193.12"/>
<text xml:space="preserve" text-anchor="middle" x="90.25" y="-170.85" font-family="Courier,monospace" font-size="12.00">×</text>
</g>
<!-- X3&#45;&gt;MUL3 -->
<g id="edge3" class="edge">
<title>X3&#45;&gt;MUL3</title>
<path fill="none" stroke="black" d="M36.33,-177.62C36.33,-177.62 60.29,-177.62 60.29,-177.62"/>
<polygon fill="black" stroke="black" points="60.29,-181.13 70.29,-177.63 60.29,-174.13 60.29,-181.13"/>
</g>
<!-- XN -->
<g id="node4" class="node">
<title>XN</title>
<polygon fill="none" stroke="black" points="36.25,-90.25 0,-90.25 0,-54 36.25,-54 36.25,-90.25"/>
<text xml:space="preserve" text-anchor="middle" x="18.12" y="-68.6" font-family="Courier,monospace" font-size="12.00">xₙ</text>
</g>
<!-- MULN -->
<g id="node12" class="node">
<title>MULN</title>
<polygon fill="none" stroke="black" points="108.25,-90.12 72.25,-90.12 72.25,-54.12 108.25,-54.12 108.25,-90.12"/>
<text xml:space="preserve" text-anchor="middle" x="90.25" y="-67.85" font-family="Courier,monospace" font-size="12.00">×</text>
</g>
<!-- XN&#45;&gt;MULN -->
<g id="edge4" class="edge">
<title>XN&#45;&gt;MULN</title>
<path fill="none" stroke="black" d="M36.7,-72.12C36.7,-72.12 60.48,-72.12 60.48,-72.12"/>
<polygon fill="black" stroke="black" points="60.48,-75.63 70.48,-72.13 60.48,-68.63 60.48,-75.63"/>
</g>
<!-- W1 -->
<g id="node5" class="node">
<title>W1</title>
<polygon fill="none" stroke="black" points="36.12,-360.12 0.12,-360.12 0.12,-324.12 36.12,-324.12 36.12,-360.12"/>
<text xml:space="preserve" text-anchor="middle" x="18.12" y="-338.23" font-family="Courier,monospace" font-size="12.00">w₁</text>
</g>
<!-- W1&#45;&gt;MUL1 -->
<g id="edge5" class="edge">
<title>W1&#45;&gt;MUL1</title>
<path fill="none" stroke="black" d="M36.33,-342.12C36.33,-342.12 60.29,-342.12 60.29,-342.12"/>
<polygon fill="black" stroke="black" points="60.29,-345.63 70.29,-342.13 60.29,-338.63 60.29,-345.63"/>
</g>
<!-- W2 -->
<g id="node6" class="node">
<title>W2</title>
<polygon fill="none" stroke="black" points="36.12,-252.12 0.12,-252.12 0.12,-216.12 36.12,-216.12 36.12,-252.12"/>
<text xml:space="preserve" text-anchor="middle" x="18.12" y="-230.22" font-family="Courier,monospace" font-size="12.00">w₂</text>
</g>
<!-- W2&#45;&gt;MUL2 -->
<g id="edge6" class="edge">
<title>W2&#45;&gt;MUL2</title>
<path fill="none" stroke="black" d="M36.33,-236.62C36.33,-236.62 60.29,-236.62 60.29,-236.62"/>
<polygon fill="black" stroke="black" points="60.29,-240.13 70.29,-236.63 60.29,-233.13 60.29,-240.13"/>
</g>
<!-- W3 -->
<g id="node7" class="node">
<title>W3</title>
<polygon fill="none" stroke="black" points="36.12,-144.12 0.12,-144.12 0.12,-108.12 36.12,-108.12 36.12,-144.12"/>
<text xml:space="preserve" text-anchor="middle" x="18.12" y="-122.22" font-family="Courier,monospace" font-size="12.00">w₃</text>
</g>
<!-- W3&#45;&gt;MUL3 -->
<g id="edge7" class="edge">
<title>W3&#45;&gt;MUL3</title>
<path fill="none" stroke="black" d="M36.33,-132.25C57.69,-132.25 90.25,-132.25 90.25,-132.25 90.25,-132.25 90.25,-145.18 90.25,-145.18"/>
<polygon fill="black" stroke="black" points="86.75,-145.18 90.25,-155.18 93.75,-145.18 86.75,-145.18"/>
</g>
<!-- WN -->
<g id="node8" class="node">
<title>WN</title>
<polygon fill="none" stroke="black" points="36.25,-36.25 0,-36.25 0,0 36.25,0 36.25,-36.25"/>
<text xml:space="preserve" text-anchor="middle" x="18.12" y="-14.6" font-family="Courier,monospace" font-size="12.00">wₙ</text>
</g>
<!-- WN&#45;&gt;MULN -->
<g id="edge8" class="edge">
<title>WN&#45;&gt;MULN</title>
<path fill="none" stroke="black" d="M36.7,-18.12C58.07,-18.12 90.25,-18.12 90.25,-18.12 90.25,-18.12 90.25,-42.33 90.25,-42.33"/>
<polygon fill="black" stroke="black" points="86.75,-42.33 90.25,-52.33 93.75,-42.33 86.75,-42.33"/>
</g>
<!-- WX1 -->
<g id="node13" class="node">
<title>WX1</title>
<polygon fill="none" stroke="black" points="195.5,-343.12 149.5,-343.12 149.5,-297.12 195.5,-297.12 195.5,-343.12"/>
<text xml:space="preserve" text-anchor="middle" x="172.5" y="-316.23" font-family="Courier,monospace" font-size="12.00">w₁x₁</text>
</g>
<!-- MUL1&#45;&gt;WX1 -->
<g id="edge9" class="edge">
<title>MUL1&#45;&gt;WX1</title>
<path fill="none" stroke="black" d="M108.5,-333.62C108.5,-333.62 137.77,-333.62 137.77,-333.62"/>
<polygon fill="black" stroke="black" points="137.77,-337.13 147.77,-333.63 137.77,-330.13 137.77,-337.13"/>
</g>
<!-- WX2 -->
<g id="node14" class="node">
<title>WX2</title>
<polygon fill="none" stroke="black" points="195.5,-262.12 149.5,-262.12 149.5,-216.12 195.5,-216.12 195.5,-262.12"/>
<text xml:space="preserve" text-anchor="middle" x="172.5" y="-235.22" font-family="Courier,monospace" font-size="12.00">w₂x₂</text>
</g>
<!-- MUL2&#45;&gt;WX2 -->
<g id="edge10" class="edge">
<title>MUL2&#45;&gt;WX2</title>
<path fill="none" stroke="black" d="M108.5,-239.12C108.5,-239.12 137.77,-239.12 137.77,-239.12"/>
<polygon fill="black" stroke="black" points="137.77,-242.63 147.77,-239.13 137.77,-235.63 137.77,-242.63"/>
</g>
<!-- WX3 -->
<g id="node15" class="node">
<title>WX3</title>
<polygon fill="none" stroke="black" points="195.5,-198.12 149.5,-198.12 149.5,-152.12 195.5,-152.12 195.5,-198.12"/>
<text xml:space="preserve" text-anchor="middle" x="172.5" y="-171.22" font-family="Courier,monospace" font-size="12.00">w₃x₃</text>
</g>
<!-- MUL3&#45;&gt;WX3 -->
<g id="edge11" class="edge">
<title>MUL3&#45;&gt;WX3</title>
<path fill="none" stroke="black" d="M108.5,-175.12C108.5,-175.12 137.77,-175.12 137.77,-175.12"/>
<polygon fill="black" stroke="black" points="137.77,-178.63 147.77,-175.13 137.77,-171.63 137.77,-178.63"/>
</g>
<!-- WXN -->
<g id="node16" class="node">
<title>WXN</title>
<polygon fill="none" stroke="black" points="200.75,-120.38 144.25,-120.38 144.25,-63.88 200.75,-63.88 200.75,-120.38"/>
<text xml:space="preserve" text-anchor="middle" x="172.5" y="-88.6" font-family="Courier,monospace" font-size="12.00">wₙxₙ</text>
</g>
<!-- MULN&#45;&gt;WXN -->
<g id="edge12" class="edge">
<title>MULN&#45;&gt;WXN</title>
<path fill="none" stroke="black" d="M108.5,-77C108.5,-77 132.44,-77 132.44,-77"/>
<polygon fill="black" stroke="black" points="132.44,-80.5 142.44,-77 132.44,-73.5 132.44,-80.5"/>
</g>
<!-- SUM -->
<g id="node17" class="node">
<title>SUM</title>
<polygon fill="none" stroke="black" points="281.5,-225.12 245.5,-225.12 245.5,-189.12 281.5,-189.12 281.5,-225.12"/>
<text xml:space="preserve" text-anchor="middle" x="263.5" y="-202.85" font-family="Courier,monospace" font-size="12.00">Σ</text>
</g>
<!-- WX1&#45;&gt;SUM -->
<g id="edge13" class="edge">
<title>WX1&#45;&gt;SUM</title>
<path fill="none" stroke="black" d="M195.87,-320.12C222.76,-320.12 263.25,-320.12 263.25,-320.12 263.25,-320.12 263.25,-237.05 263.25,-237.05"/>
<polygon fill="black" stroke="black" points="266.75,-237.05 263.25,-227.05 259.75,-237.05 266.75,-237.05"/>
</g>
<!-- WX2&#45;&gt;SUM -->
<g id="edge14" class="edge">
<title>WX2&#45;&gt;SUM</title>
<path fill="none" stroke="black" d="M195.93,-220.62C195.93,-220.62 233.51,-220.62 233.51,-220.62"/>
<polygon fill="black" stroke="black" points="233.51,-224.13 243.51,-220.63 233.51,-217.13 233.51,-224.13"/>
</g>
<!-- WX3&#45;&gt;SUM -->
<g id="edge15" class="edge">
<title>WX3&#45;&gt;SUM</title>
<path fill="none" stroke="black" d="M195.93,-195.12C195.93,-195.12 233.51,-195.12 233.51,-195.12"/>
<polygon fill="black" stroke="black" points="233.51,-198.63 243.51,-195.13 233.51,-191.63 233.51,-198.63"/>
</g>
<!-- WXN&#45;&gt;SUM -->
<g id="edge16" class="edge">
<title>WXN&#45;&gt;SUM</title>
<path fill="none" stroke="black" d="M201.21,-112.75C210.41,-112.75 218.25,-112.75 218.25,-112.75 218.25,-112.75 218.25,-192.12 218.25,-192.12 218.25,-192.12 233.58,-192.12 233.58,-192.12"/>
<polygon fill="black" stroke="black" points="233.58,-195.63 243.58,-192.13 233.58,-188.63 233.58,-195.63"/>
</g>
<!-- WEIGHTED_SUM -->
<g id="node18" class="node">
<title>WEIGHTED_SUM</title>
<polygon fill="none" stroke="black" points="290.25,-170.88 236.75,-170.88 236.75,-117.38 290.25,-117.38 290.25,-170.88"/>
<text xml:space="preserve" text-anchor="middle" x="263.5" y="-139.85" font-family="Courier,monospace" font-size="12.00">∑wᵢxᵢ</text>
</g>
<!-- SUM&#45;&gt;WEIGHTED_SUM -->
<g id="edge17" class="edge">
<title>SUM&#45;&gt;WEIGHTED_SUM</title>
<path fill="none" stroke="black" d="M263.25,-188.9C263.25,-188.9 263.25,-182.73 263.25,-182.73"/>
<polygon fill="black" stroke="black" points="266.75,-182.73 263.25,-172.73 259.75,-182.73 266.75,-182.73"/>
</g>
<!-- ADD_BIAS -->
<g id="node20" class="node">
<title>ADD_BIAS</title>
<polygon fill="none" stroke="black" points="362.25,-162.12 326.25,-162.12 326.25,-126.12 362.25,-126.12 362.25,-162.12"/>
<text xml:space="preserve" text-anchor="middle" x="344.25" y="-139.85" font-family="Courier,monospace" font-size="12.00">+</text>
</g>
<!-- WEIGHTED_SUM&#45;&gt;ADD_BIAS -->
<g id="edge18" class="edge">
<title>WEIGHTED_SUM&#45;&gt;ADD_BIAS</title>
<path fill="none" stroke="black" d="M290.39,-144.12C290.39,-144.12 314.61,-144.12 314.61,-144.12"/>
<polygon fill="black" stroke="black" points="314.61,-147.63 324.61,-144.13 314.61,-140.63 314.61,-147.63"/>
</g>
<!-- BIAS -->
<g id="node19" class="node">
<title>BIAS</title>
<polygon fill="none" stroke="black" points="362.25,-216.12 326.25,-216.12 326.25,-180.12 362.25,-180.12 362.25,-216.12"/>
<text xml:space="preserve" text-anchor="middle" x="344.25" y="-193.85" font-family="Courier,monospace" font-size="12.00">b</text>
</g>
<!-- BIAS&#45;&gt;ADD_BIAS -->
<g id="edge19" class="edge">
<title>BIAS&#45;&gt;ADD_BIAS</title>
<path fill="none" stroke="black" d="M344.25,-179.84C344.25,-179.84 344.25,-173.9 344.25,-173.9"/>
<polygon fill="black" stroke="black" points="347.75,-173.9 344.25,-163.9 340.75,-173.9 347.75,-173.9"/>
</g>
<!-- Z -->
<g id="node21" class="node">
<title>Z</title>
<polygon fill="none" stroke="black" points="434.25,-162.12 398.25,-162.12 398.25,-126.12 434.25,-126.12 434.25,-162.12"/>
<text xml:space="preserve" text-anchor="middle" x="416.25" y="-139.85" font-family="Courier,monospace" font-size="12.00">z</text>
</g>
<!-- ADD_BIAS&#45;&gt;Z -->
<g id="edge20" class="edge">
<title>ADD_BIAS&#45;&gt;Z</title>
<path fill="none" stroke="black" d="M362.42,-144.12C362.42,-144.12 386.32,-144.12 386.32,-144.12"/>
<polygon fill="black" stroke="black" points="386.32,-147.63 396.32,-144.13 386.32,-140.63 386.32,-147.63"/>
</g>
<!-- SIGMOID -->
<g id="node22" class="node">
<title>SIGMOID</title>
<polygon fill="none" stroke="black" points="511.25,-162.12 475.25,-162.12 475.25,-126.12 511.25,-126.12 511.25,-162.12"/>
<text xml:space="preserve" text-anchor="middle" x="493.25" y="-139.85" font-family="Courier,monospace" font-size="12.00">σ</text>
</g>
<!-- Z&#45;&gt;SIGMOID -->
<g id="edge21" class="edge">
<title>Z&#45;&gt;SIGMOID</title>
<path fill="none" stroke="black" d="M434.5,-144.12C434.5,-144.12 463.35,-144.12 463.35,-144.12"/>
<polygon fill="black" stroke="black" points="463.35,-147.63 473.35,-144.13 463.35,-140.63 463.35,-147.63"/>
</g>
<!-- ACTIVATION -->
<g id="node23" class="node">
<title>ACTIVATION</title>
<polygon fill="none" stroke="black" points="516.25,-108.12 470.25,-108.12 470.25,-62.12 516.25,-62.12 516.25,-108.12"/>
<text xml:space="preserve" text-anchor="middle" x="493.25" y="-80.85" font-family="Courier,monospace" font-size="12.00">σ(z)</text>
</g>
<!-- SIGMOID&#45;&gt;ACTIVATION -->
<g id="edge22" class="edge">
<title>SIGMOID&#45;&gt;ACTIVATION</title>
<path fill="none" stroke="black" d="M493.25,-125.78C493.25,-125.78 493.25,-119.76 493.25,-119.76"/>
<polygon fill="black" stroke="black" points="496.75,-119.76 493.25,-109.76 489.75,-119.76 496.75,-119.76"/>
</g>
<!-- OUTPUT -->
<g id="node24" class="node">
<title>OUTPUT</title>
<polygon fill="none" stroke="black" points="588.25,-103.12 552.25,-103.12 552.25,-67.12 588.25,-67.12 588.25,-103.12"/>
<text xml:space="preserve" text-anchor="middle" x="570.25" y="-80.85" font-family="Courier,monospace" font-size="12.00">y</text>
</g>
<!-- ACTIVATION&#45;&gt;OUTPUT -->
<g id="edge23" class="edge">
<title>ACTIVATION&#45;&gt;OUTPUT</title>
<path fill="none" stroke="black" d="M516.35,-85.12C516.35,-85.12 540.29,-85.12 540.29,-85.12"/>
<polygon fill="black" stroke="black" points="540.29,-88.63 550.29,-85.13 540.29,-81.63 540.29,-88.63"/>
</g>
</g>
</svg>
