<?xml version="1.0" encoding="UTF-8" standalone="no"?>
<!DOCTYPE svg PUBLIC "-//W3C//DTD SVG 1.1//EN"
 "http://www.w3.org/Graphics/SVG/1.1/DTD/svg11.dtd">
<!-- Generated by graphviz version 14.1.4 (20260321.0153)
 -->
<!-- Pages: 1 -->
<svg width="1271pt" height="329pt"
 viewBox="0.00 0.00 1271.00 329.00" xmlns="http://www.w3.org/2000/svg" xmlns:xlink="http://www.w3.org/1999/xlink">
<g id="graph0" class="graph" transform="scale(1 1) rotate(0) translate(4 325)">
<polygon fill="white" stroke="none" points="-4,4 -4,-325 1267.25,-325 1267.25,4 -4,4"/>
<g id="clust1" class="cluster">
<title>cluster_rules</title>
<polygon fill="none" stroke="black" stroke-dasharray="5,2" points="8,-33 8,-214 430.75,-214 430.75,-33 8,-33"/>
<text xml:space="preserve" text-anchor="middle" x="219.38" y="-200.5" font-family="Helvetica,sans-Serif" font-size="10.00">Deterministic Rule System</text>
</g>
<g id="clust2" class="cluster">
<title>cluster_patterns</title>
<polygon fill="none" stroke="black" stroke-dasharray="5,2" points="653.75,-8 653.75,-313 1146.5,-313 1146.5,-8 653.75,-8"/>
<text xml:space="preserve" text-anchor="middle" x="900.12" y="-299.5" font-family="Helvetica,sans-Serif" font-size="10.00">Probabilistic Pattern System</text>
</g>
<!-- INPUT_R -->
<g id="node1" class="node">
<title>INPUT_R</title>
<polygon fill="none" stroke="black" points="69.5,-166.75 16,-166.75 16,-113.25 69.5,-113.25 69.5,-166.75"/>
<text xml:space="preserve" text-anchor="middle" x="42.75" y="-135.72" font-family="Courier,monospace" font-size="12.00">Input</text>
</g>
<!-- RULE1 -->
<g id="node2" class="node">
<title>RULE1</title>
<polygon fill="none" stroke="black" points="159,-94.75 105.5,-94.75 105.5,-41.25 159,-41.25 159,-94.75"/>
<text xml:space="preserve" text-anchor="middle" x="132.25" y="-64.1" font-family="Courier,monospace" font-size="12.00">Rule₁</text>
</g>
<!-- INPUT_R&#45;&gt;RULE1 -->
<g id="edge1" class="edge">
<title>INPUT_R&#45;&gt;RULE1</title>
<path fill="none" stroke="black" d="M42.25,-112.78C42.25,-92.39 42.25,-68 42.25,-68 42.25,-68 93.73,-68 93.73,-68"/>
<polygon fill="black" stroke="black" points="93.73,-71.5 103.73,-68 93.73,-64.5 93.73,-71.5"/>
</g>
<!-- RULE2 -->
<g id="node3" class="node">
<title>RULE2</title>
<polygon fill="none" stroke="black" points="159,-166.75 105.5,-166.75 105.5,-113.25 159,-113.25 159,-166.75"/>
<text xml:space="preserve" text-anchor="middle" x="132.25" y="-136.1" font-family="Courier,monospace" font-size="12.00">Rule₂</text>
</g>
<!-- INPUT_R&#45;&gt;RULE2 -->
<g id="edge2" class="edge">
<title>INPUT_R&#45;&gt;RULE2</title>
<path fill="none" stroke="black" d="M69.6,-140C69.6,-140 93.59,-140 93.59,-140"/>
<polygon fill="black" stroke="black" points="93.59,-143.5 103.59,-140 93.59,-136.5 93.59,-143.5"/>
</g>
<!-- RULEN -->
<g id="node4" class="node">
<title>RULEN</title>
<polygon fill="none" stroke="black" points="253.75,-186.38 195,-186.38 195,-127.62 253.75,-127.62 253.75,-186.38"/>
<text xml:space="preserve" text-anchor="middle" x="224.38" y="-153.47" font-family="Courier,monospace" font-size="12.00">Ruleₙ</text>
</g>
<!-- INPUT_R&#45;&gt;RULEN -->
<g id="edge3" class="edge">
<title>INPUT_R&#45;&gt;RULEN</title>
<path fill="none" stroke="black" d="M42.25,-166.96C42.25,-172.44 42.25,-176.56 42.25,-176.56 42.25,-176.56 183.19,-176.56 183.19,-176.56"/>
<polygon fill="black" stroke="black" points="183.19,-180.06 193.19,-176.56 183.19,-173.06 183.19,-180.06"/>
</g>
<!-- AND1 -->
<g id="node5" class="node">
<title>AND1</title>
<polygon fill="none" stroke="black" points="242.38,-110 206.38,-110 206.38,-74 242.38,-74 242.38,-110"/>
<text xml:space="preserve" text-anchor="middle" x="224.38" y="-87.72" font-family="Courier,monospace" font-size="12.00">∧</text>
</g>
<!-- RULE1&#45;&gt;AND1 -->
<g id="edge4" class="edge">
<title>RULE1&#45;&gt;AND1</title>
<path fill="none" stroke="black" d="M159.39,-84.38C159.39,-84.38 194.36,-84.38 194.36,-84.38"/>
<polygon fill="black" stroke="black" points="194.36,-87.88 204.36,-84.38 194.36,-80.88 194.36,-87.88"/>
</g>
<!-- RULE2&#45;&gt;AND1 -->
<g id="edge5" class="edge">
<title>RULE2&#45;&gt;AND1</title>
<path fill="none" stroke="black" d="M159.36,-120.44C186.49,-120.44 224.25,-120.44 224.25,-120.44 224.25,-120.44 224.25,-119.44 224.25,-119.44"/>
<polygon fill="black" stroke="black" points="227.75,-122 224.25,-112 220.75,-122.01 227.75,-122"/>
</g>
<!-- AND2 -->
<g id="node6" class="node">
<title>AND2</title>
<polygon fill="none" stroke="black" points="325.75,-142 289.75,-142 289.75,-106 325.75,-106 325.75,-142"/>
<text xml:space="preserve" text-anchor="middle" x="307.75" y="-119.72" font-family="Courier,monospace" font-size="12.00">∧</text>
</g>
<!-- RULEN&#45;&gt;AND2 -->
<g id="edge6" class="edge">
<title>RULEN&#45;&gt;AND2</title>
<path fill="none" stroke="black" d="M254,-134.81C254,-134.81 277.86,-134.81 277.86,-134.81"/>
<polygon fill="black" stroke="black" points="277.86,-138.31 287.86,-134.81 277.86,-131.31 277.86,-138.31"/>
</g>
<!-- AND1&#45;&gt;AND2 -->
<g id="edge7" class="edge">
<title>AND1&#45;&gt;AND2</title>
<path fill="none" stroke="black" d="M242.77,-99.75C267.18,-99.75 307.25,-99.75 307.25,-99.75 307.25,-99.75 307.25,-100.34 307.25,-100.34"/>
<polygon fill="black" stroke="black" points="303.75,-94.11 307.25,-104.11 310.75,-94.11 303.75,-94.11"/>
</g>
<!-- OUTPUT_R -->
<g id="node7" class="node">
<title>OUTPUT_R</title>
<polygon fill="none" stroke="black" points="422.75,-154.5 361.75,-154.5 361.75,-93.5 422.75,-93.5 422.75,-154.5"/>
<text xml:space="preserve" text-anchor="middle" x="392.25" y="-126.85" font-family="Courier,monospace" font-size="12.00">Output</text>
<text xml:space="preserve" text-anchor="middle" x="392.25" y="-112.6" font-family="Courier,monospace" font-size="12.00">(0/1)</text>
</g>
<!-- AND2&#45;&gt;OUTPUT_R -->
<g id="edge8" class="edge">
<title>AND2&#45;&gt;OUTPUT_R</title>
<path fill="none" stroke="black" d="M326.09,-124C326.09,-124 349.81,-124 349.81,-124"/>
<polygon fill="black" stroke="black" points="349.81,-127.5 359.81,-124 349.81,-120.5 349.81,-127.5"/>
</g>
<!-- TRANSITION -->
<g id="node15" class="node">
<title>TRANSITION</title>
<polygon fill="none" stroke="black" points="542.25,-180 458.75,-148 542.25,-116 625.75,-148 542.25,-180"/>
<text xml:space="preserve" text-anchor="middle" x="542.25" y="-150.5" font-family="Helvetica,sans-Serif" font-size="10.00">Transition</text>
<text xml:space="preserve" text-anchor="middle" x="542.25" y="-139.25" font-family="Helvetica,sans-Serif" font-size="10.00">Rule → Pattern</text>
</g>
<!-- OUTPUT_R&#45;&gt;TRANSITION -->
<g id="edge17" class="edge">
<title>OUTPUT_R&#45;&gt;TRANSITION</title>
<path fill="none" stroke="black" stroke-dasharray="5,2" d="M422.97,-135.25C422.97,-135.25 479.39,-135.25 479.39,-135.25"/>
<polygon fill="black" stroke="black" points="479.39,-138.75 489.39,-135.25 479.39,-131.75 479.39,-138.75"/>
</g>
<!-- LABEL_RULES -->
<g id="node16" class="node">
<title>LABEL_RULES</title>
<polygon fill="none" stroke="black" points="576.5,-98 502,-98 502,-62 582.5,-62 582.5,-92 576.5,-98"/>
<polyline fill="none" stroke="black" points="576.5,-98 576.5,-92"/>
<polyline fill="none" stroke="black" points="582.5,-92 576.5,-92"/>
<text xml:space="preserve" text-anchor="middle" x="542.25" y="-81.2" font-family="Helvetica,sans-Serif" font-size="9.00">Binary Decision</text>
<text xml:space="preserve" text-anchor="middle" x="542.25" y="-71.45" font-family="Helvetica,sans-Serif" font-size="9.00">(0 or 1)</text>
</g>
<!-- OUTPUT_R&#45;&gt;LABEL_RULES -->
<!-- INPUT_P -->
<g id="node8" class="node">
<title>INPUT_P</title>
<polygon fill="none" stroke="black" points="715.25,-174.75 661.75,-174.75 661.75,-121.25 715.25,-121.25 715.25,-174.75"/>
<text xml:space="preserve" text-anchor="middle" x="688.5" y="-143.72" font-family="Courier,monospace" font-size="12.00">Input</text>
</g>
<!-- FEAT1 -->
<g id="node9" class="node">
<title>FEAT1</title>
<polygon fill="none" stroke="black" points="829.88,-92 753.88,-92 753.88,-16 829.88,-16 829.88,-92"/>
<text xml:space="preserve" text-anchor="middle" x="791.88" y="-50.1" font-family="Courier,monospace" font-size="12.00">Feature₁</text>
</g>
<!-- INPUT_P&#45;&gt;FEAT1 -->
<g id="edge9" class="edge">
<title>INPUT_P&#45;&gt;FEAT1</title>
<path fill="none" stroke="black" d="M688.25,-120.75C688.25,-100.73 688.25,-77 688.25,-77 688.25,-77 742.07,-77 742.07,-77"/>
<polygon fill="black" stroke="black" points="742.07,-80.5 752.07,-77 742.07,-73.5 742.07,-80.5"/>
</g>
<!-- FEAT2 -->
<g id="node10" class="node">
<title>FEAT2</title>
<polygon fill="none" stroke="black" points="829.88,-186 753.88,-186 753.88,-110 829.88,-110 829.88,-186"/>
<text xml:space="preserve" text-anchor="middle" x="791.88" y="-144.1" font-family="Courier,monospace" font-size="12.00">Feature₂</text>
</g>
<!-- INPUT_P&#45;&gt;FEAT2 -->
<g id="edge10" class="edge">
<title>INPUT_P&#45;&gt;FEAT2</title>
<path fill="none" stroke="black" d="M715.66,-148C715.66,-148 742.11,-148 742.11,-148"/>
<polygon fill="black" stroke="black" points="742.11,-151.5 752.11,-148 742.11,-144.5 742.11,-151.5"/>
</g>
<!-- FEATM -->
<g id="node11" class="node">
<title>FEATM</title>
<polygon fill="none" stroke="black" points="832.5,-285.62 751.25,-285.62 751.25,-204.38 832.5,-204.38 832.5,-285.62"/>
<text xml:space="preserve" text-anchor="middle" x="791.88" y="-241.47" font-family="Courier,monospace" font-size="12.00">Featureₘ</text>
</g>
<!-- INPUT_P&#45;&gt;FEATM -->
<g id="edge11" class="edge">
<title>INPUT_P&#45;&gt;FEATM</title>
<path fill="none" stroke="black" d="M688.25,-175.02C688.25,-203.72 688.25,-245 688.25,-245 688.25,-245 739.41,-245 739.41,-245"/>
<polygon fill="black" stroke="black" points="739.41,-248.5 749.41,-245 739.41,-241.5 739.41,-248.5"/>
</g>
<!-- COMBINE -->
<g id="node12" class="node">
<title>COMBINE</title>
<polygon fill="none" stroke="black" points="937,-182.25 868.5,-182.25 868.5,-113.75 937,-113.75 937,-182.25"/>
<text xml:space="preserve" text-anchor="middle" x="902.75" y="-143.72" font-family="Courier,monospace" font-size="12.00">Combine</text>
</g>
<!-- FEAT1&#45;&gt;COMBINE -->
<g id="edge12" class="edge">
<title>FEAT1&#45;&gt;COMBINE</title>
<path fill="none" stroke="black" d="M830.17,-54C862.05,-54 902.25,-54 902.25,-54 902.25,-54 902.25,-101.75 902.25,-101.75"/>
<polygon fill="black" stroke="black" points="898.75,-101.75 902.25,-111.75 905.75,-101.75 898.75,-101.75"/>
</g>
<!-- FEAT2&#45;&gt;COMBINE -->
<g id="edge13" class="edge">
<title>FEAT2&#45;&gt;COMBINE</title>
<path fill="none" stroke="black" d="M830.34,-148C830.34,-148 856.55,-148 856.55,-148"/>
<polygon fill="black" stroke="black" points="856.55,-151.5 866.55,-148 856.55,-144.5 856.55,-151.5"/>
</g>
<!-- FEATM&#45;&gt;COMBINE -->
<g id="edge14" class="edge">
<title>FEATM&#45;&gt;COMBINE</title>
<path fill="none" stroke="black" d="M832.97,-245C864.36,-245 902.25,-245 902.25,-245 902.25,-245 902.25,-194.26 902.25,-194.26"/>
<polygon fill="black" stroke="black" points="905.75,-194.26 902.25,-184.26 898.75,-194.26 905.75,-194.26"/>
</g>
<!-- PROB -->
<g id="node13" class="node">
<title>PROB</title>
<polygon fill="none" stroke="black" points="1019,-171 973,-171 973,-125 1019,-125 1019,-171"/>
<text xml:space="preserve" text-anchor="middle" x="996" y="-143.72" font-family="Courier,monospace" font-size="12.00">P(·)</text>
</g>
<!-- COMBINE&#45;&gt;PROB -->
<g id="edge15" class="edge">
<title>COMBINE&#45;&gt;PROB</title>
<path fill="none" stroke="black" d="M937.47,-148C937.47,-148 961.06,-148 961.06,-148"/>
<polygon fill="black" stroke="black" points="961.06,-151.5 971.06,-148 961.06,-144.5 961.06,-151.5"/>
</g>
<!-- OUTPUT_P -->
<g id="node14" class="node">
<title>OUTPUT_P</title>
<polygon fill="none" stroke="black" points="1138.5,-189.75 1055,-189.75 1055,-106.25 1138.5,-106.25 1138.5,-189.75"/>
<text xml:space="preserve" text-anchor="middle" x="1096.75" y="-150.85" font-family="Courier,monospace" font-size="12.00">Output</text>
<text xml:space="preserve" text-anchor="middle" x="1096.75" y="-136.6" font-family="Courier,monospace" font-size="12.00">(0.0&#45;1.0)</text>
</g>
<!-- PROB&#45;&gt;OUTPUT_P -->
<g id="edge16" class="edge">
<title>PROB&#45;&gt;OUTPUT_P</title>
<path fill="none" stroke="black" d="M1019.37,-148C1019.37,-148 1043.02,-148 1043.02,-148"/>
<polygon fill="black" stroke="black" points="1043.02,-151.5 1053.02,-148 1043.02,-144.5 1043.02,-151.5"/>
</g>
<!-- LABEL_PATTERNS -->
<g id="node17" class="node">
<title>LABEL_PATTERNS</title>
<polygon fill="none" stroke="black" points="1257.25,-166 1174.5,-166 1174.5,-130 1263.25,-130 1263.25,-160 1257.25,-166"/>
<polyline fill="none" stroke="black" points="1257.25,-166 1257.25,-160"/>
<polyline fill="none" stroke="black" points="1263.25,-160 1257.25,-160"/>
<text xml:space="preserve" text-anchor="middle" x="1218.88" y="-149.2" font-family="Helvetica,sans-Serif" font-size="9.00">Probability Output</text>
<text xml:space="preserve" text-anchor="middle" x="1218.88" y="-139.45" font-family="Helvetica,sans-Serif" font-size="9.00">(0.0 to 1.0)</text>
</g>
<!-- OUTPUT_P&#45;&gt;LABEL_PATTERNS -->
<!-- TRANSITION&#45;&gt;INPUT_P -->
<g id="edge18" class="edge">
<title>TRANSITION&#45;&gt;INPUT_P</title>
<path fill="none" stroke="black" stroke-dasharray="5,2" d="M626.9,-148C626.9,-148 650.01,-148 650.01,-148"/>
<polygon fill="black" stroke="black" points="650.01,-151.5 660.01,-148 650.01,-144.5 650.01,-151.5"/>
</g>
</g>
</svg>
