<?xml version="1.0" encoding="UTF-8" standalone="no"?>
<!DOCTYPE svg PUBLIC "-//W3C//DTD SVG 1.1//EN"
 "http://www.w3.org/Graphics/SVG/1.1/DTD/svg11.dtd">
<!-- Generated by graphviz version 14.1.4 (20260321.0153)
 -->
<!-- Pages: 1 -->
<svg width="265pt" height="235pt"
 viewBox="0.00 0.00 265.00 235.00" xmlns="http://www.w3.org/2000/svg" xmlns:xlink="http://www.w3.org/1999/xlink">
<g id="graph0" class="graph" transform="scale(1 1) rotate(0) translate(4 231.25)">
<polygon fill="white" stroke="none" points="-4,4 -4,-231.25 261,-231.25 261,4 -4,4"/>
<!-- INPUT -->
<g id="node1" class="node">
<title>INPUT</title>
<polygon fill="none" stroke="black" points="36,-198 0,-198 0,-162 36,-162 36,-198"/>
<text xml:space="preserve" text-anchor="middle" x="18" y="-175.72" font-family="Courier,monospace" font-size="12.00">X</text>
</g>
<!-- MHA -->
<g id="node2" class="node">
<title>MHA</title>
<polygon fill="none" stroke="black" points="110.5,-227.25 72,-227.25 72,-188.75 110.5,-188.75 110.5,-227.25"/>
<text xml:space="preserve" text-anchor="middle" x="91.25" y="-203.72" font-family="Courier,monospace" font-size="12.00">MHA</text>
</g>
<!-- INPUT&#45;&gt;MHA -->
<g id="edge1" class="edge">
<title>INPUT&#45;&gt;MHA</title>
<path fill="none" stroke="black" d="M36.48,-193.38C36.48,-193.38 60.23,-193.38 60.23,-193.38"/>
<polygon fill="black" stroke="black" points="60.23,-196.88 70.23,-193.38 60.23,-189.88 60.23,-196.88"/>
</g>
<!-- ADD1 -->
<g id="node3" class="node">
<title>ADD1</title>
<polygon fill="none" stroke="black" points="109.25,-171 73.25,-171 73.25,-135 109.25,-135 109.25,-171"/>
<text xml:space="preserve" text-anchor="middle" x="91.25" y="-148.72" font-family="Courier,monospace" font-size="12.00">+</text>
</g>
<!-- INPUT&#45;&gt;ADD1 -->
<g id="edge2" class="edge">
<title>INPUT&#45;&gt;ADD1</title>
<path fill="none" stroke="black" d="M36.48,-166.5C36.48,-166.5 61.26,-166.5 61.26,-166.5"/>
<polygon fill="black" stroke="black" points="61.26,-170 71.26,-166.5 61.26,-163 61.26,-170"/>
</g>
<!-- MHA&#45;&gt;ADD1 -->
<g id="edge3" class="edge">
<title>MHA&#45;&gt;ADD1</title>
<path fill="none" stroke="black" d="M91,-188.45C91,-188.45 91,-182.89 91,-182.89"/>
<polygon fill="black" stroke="black" points="94.5,-182.89 91,-172.89 87.5,-182.89 94.5,-182.89"/>
</g>
<!-- NORM1 -->
<g id="node4" class="node">
<title>NORM1</title>
<polygon fill="none" stroke="black" points="109.25,-117 73.25,-117 73.25,-81 109.25,-81 109.25,-117"/>
<text xml:space="preserve" text-anchor="middle" x="91.25" y="-94.72" font-family="Courier,monospace" font-size="12.00">LN</text>
</g>
<!-- ADD1&#45;&gt;NORM1 -->
<g id="edge4" class="edge">
<title>ADD1&#45;&gt;NORM1</title>
<path fill="none" stroke="black" d="M91,-134.72C91,-134.72 91,-128.78 91,-128.78"/>
<polygon fill="black" stroke="black" points="94.5,-128.78 91,-118.78 87.5,-128.78 94.5,-128.78"/>
</g>
<!-- FFN -->
<g id="node5" class="node">
<title>FFN</title>
<polygon fill="none" stroke="black" points="185,-146.25 146.5,-146.25 146.5,-107.75 185,-107.75 185,-146.25"/>
<text xml:space="preserve" text-anchor="middle" x="165.75" y="-122.72" font-family="Courier,monospace" font-size="12.00">FFN</text>
</g>
<!-- NORM1&#45;&gt;FFN -->
<g id="edge5" class="edge">
<title>NORM1&#45;&gt;FFN</title>
<path fill="none" stroke="black" d="M109.67,-112.38C109.67,-112.38 134.73,-112.38 134.73,-112.38"/>
<polygon fill="black" stroke="black" points="134.73,-115.88 144.73,-112.38 134.73,-108.88 134.73,-115.88"/>
</g>
<!-- ADD2 -->
<g id="node6" class="node">
<title>ADD2</title>
<polygon fill="none" stroke="black" points="183.75,-90 147.75,-90 147.75,-54 183.75,-54 183.75,-90"/>
<text xml:space="preserve" text-anchor="middle" x="165.75" y="-67.72" font-family="Courier,monospace" font-size="12.00">+</text>
</g>
<!-- NORM1&#45;&gt;ADD2 -->
<g id="edge6" class="edge">
<title>NORM1&#45;&gt;ADD2</title>
<path fill="none" stroke="black" d="M109.67,-85.5C109.67,-85.5 135.77,-85.5 135.77,-85.5"/>
<polygon fill="black" stroke="black" points="135.77,-89 145.77,-85.5 135.77,-82 135.77,-89"/>
</g>
<!-- FFN&#45;&gt;ADD2 -->
<g id="edge7" class="edge">
<title>FFN&#45;&gt;ADD2</title>
<path fill="none" stroke="black" d="M166,-107.45C166,-107.45 166,-101.89 166,-101.89"/>
<polygon fill="black" stroke="black" points="169.5,-101.89 166,-91.89 162.5,-101.89 169.5,-101.89"/>
</g>
<!-- NORM2 -->
<g id="node7" class="node">
<title>NORM2</title>
<polygon fill="none" stroke="black" points="183.75,-36 147.75,-36 147.75,0 183.75,0 183.75,-36"/>
<text xml:space="preserve" text-anchor="middle" x="165.75" y="-13.72" font-family="Courier,monospace" font-size="12.00">LN</text>
</g>
<!-- ADD2&#45;&gt;NORM2 -->
<g id="edge8" class="edge">
<title>ADD2&#45;&gt;NORM2</title>
<path fill="none" stroke="black" d="M166,-53.72C166,-53.72 166,-47.78 166,-47.78"/>
<polygon fill="black" stroke="black" points="169.5,-47.78 166,-37.78 162.5,-47.78 169.5,-47.78"/>
</g>
<!-- OUTPUT -->
<g id="node8" class="node">
<title>OUTPUT</title>
<polygon fill="none" stroke="black" points="257,-36 221,-36 221,0 257,0 257,-36"/>
<text xml:space="preserve" text-anchor="middle" x="239" y="-13.72" font-family="Courier,monospace" font-size="12.00">X&#39;</text>
</g>
<!-- NORM2&#45;&gt;OUTPUT -->
<g id="edge9" class="edge">
<title>NORM2&#45;&gt;OUTPUT</title>
<path fill="none" stroke="black" d="M184.23,-18C184.23,-18 209.01,-18 209.01,-18"/>
<polygon fill="black" stroke="black" points="209.01,-21.5 219.01,-18 209.01,-14.5 209.01,-21.5"/>
</g>
</g>
</svg>
