<?xml version="1.0" encoding="UTF-8" standalone="no"?>
<!DOCTYPE svg PUBLIC "-//W3C//DTD SVG 1.1//EN"
 "http://www.w3.org/Graphics/SVG/1.1/DTD/svg11.dtd">
<!-- Generated by graphviz version 14.1.4 (20260321.0153)
 -->
<!-- Pages: 1 -->
<svg width="497pt" height="480pt"
 viewBox="0.00 0.00 497.00 480.00" xmlns="http://www.w3.org/2000/svg" xmlns:xlink="http://www.w3.org/1999/xlink">
<g id="graph0" class="graph" transform="scale(1 1) rotate(0) translate(4 475.75)">
<polygon fill="white" stroke="none" points="-4,4 -4,-475.75 493,-475.75 493,4 -4,4"/>
<!-- M -->
<g id="node1" class="node">
<title>M</title>
<polygon fill="none" stroke="black" points="36,-467.5 0,-467.5 0,-431.5 36,-431.5 36,-467.5"/>
<text xml:space="preserve" text-anchor="middle" x="18" y="-445.23" font-family="Courier,monospace" font-size="12.00">M</text>
</g>
<!-- tape -->
<g id="node3" class="node">
<title>tape</title>
<polygon fill="none" stroke="black" points="185.5,-471.75 87,-471.75 87,-373.25 185.5,-373.25 185.5,-471.75"/>
<text xml:space="preserve" text-anchor="middle" x="136.25" y="-425.35" font-family="Courier,monospace" font-size="12.00">Tape</text>
<text xml:space="preserve" text-anchor="middle" x="136.25" y="-411.1" font-family="Courier,monospace" font-size="12.00">...0 1 0...</text>
</g>
<!-- M&#45;&gt;tape -->
<g id="edge1" class="edge">
<title>M&#45;&gt;tape</title>
<path fill="none" stroke="black" d="M36.48,-449.5C36.48,-449.5 75.02,-449.5 75.02,-449.5"/>
<polygon fill="black" stroke="black" points="75.02,-453 85.02,-449.5 75.02,-446 75.02,-453"/>
</g>
<!-- w -->
<g id="node2" class="node">
<title>w</title>
<polygon fill="none" stroke="black" points="36,-413.5 0,-413.5 0,-377.5 36,-377.5 36,-413.5"/>
<text xml:space="preserve" text-anchor="middle" x="18" y="-391.23" font-family="Courier,monospace" font-size="12.00">w</text>
</g>
<!-- w&#45;&gt;tape -->
<g id="edge2" class="edge">
<title>w&#45;&gt;tape</title>
<path fill="none" stroke="black" d="M36.48,-401.5C36.48,-401.5 75.02,-401.5 75.02,-401.5"/>
<polygon fill="black" stroke="black" points="75.02,-405 85.02,-401.5 75.02,-398 75.02,-405"/>
</g>
<!-- head -->
<g id="node4" class="node">
<title>head</title>
<polygon fill="none" stroke="black" points="159.25,-208.5 113.25,-208.5 113.25,-162.5 159.25,-162.5 159.25,-208.5"/>
<text xml:space="preserve" text-anchor="middle" x="136.25" y="-181.22" font-family="Courier,monospace" font-size="12.00">Head</text>
</g>
<!-- tape&#45;&gt;head -->
<g id="edge3" class="edge">
<title>tape&#45;&gt;head</title>
<path fill="none" stroke="black" d="M86.51,-389.5C69.19,-389.5 54,-389.5 54,-389.5 54,-389.5 54,-185.5 54,-185.5 54,-185.5 101.39,-185.5 101.39,-185.5"/>
<polygon fill="black" stroke="black" points="101.39,-189 111.39,-185.5 101.39,-182 101.39,-189"/>
</g>
<!-- state -->
<g id="node5" class="node">
<title>state</title>
<polygon fill="none" stroke="black" points="163,-144.25 109.5,-144.25 109.5,-90.75 163,-90.75 163,-144.25"/>
<text xml:space="preserve" text-anchor="middle" x="136.25" y="-120.72" font-family="Courier,monospace" font-size="12.00">State</text>
<text xml:space="preserve" text-anchor="middle" x="136.25" y="-106.47" font-family="Courier,monospace" font-size="12.00">q₀</text>
</g>
<!-- head&#45;&gt;state -->
<g id="edge4" class="edge">
<title>head&#45;&gt;state</title>
<path fill="none" stroke="black" d="M136,-162.1C136,-162.1 136,-155.97 136,-155.97"/>
<polygon fill="black" stroke="black" points="139.5,-155.97 136,-145.97 132.5,-155.97 139.5,-155.97"/>
</g>
<!-- halt -->
<g id="node7" class="node">
<title>halt</title>
<polygon fill="none" stroke="black" points="290,-212.25 236.5,-212.25 236.5,-158.75 290,-158.75 290,-212.25"/>
<text xml:space="preserve" text-anchor="middle" x="263.25" y="-181.22" font-family="Courier,monospace" font-size="12.00">HALT?</text>
</g>
<!-- head&#45;&gt;halt -->
<g id="edge7" class="edge">
<title>head&#45;&gt;halt</title>
<path fill="none" stroke="black" d="M159.54,-185.5C159.54,-185.5 224.62,-185.5 224.62,-185.5"/>
<polygon fill="black" stroke="black" points="224.62,-189 234.62,-185.5 224.62,-182 224.62,-189"/>
</g>
<!-- rules -->
<g id="node6" class="node">
<title>rules</title>
<polygon fill="none" stroke="black" points="200.5,-354.75 72,-354.75 72,-226.25 200.5,-226.25 200.5,-354.75"/>
<text xml:space="preserve" text-anchor="middle" x="136.25" y="-293.35" font-family="Courier,monospace" font-size="12.00">Rules</text>
<text xml:space="preserve" text-anchor="middle" x="136.25" y="-279.1" font-family="Courier,monospace" font-size="12.00">(q,s)→(q′,s′,m)</text>
</g>
<!-- state&#45;&gt;rules -->
<g id="edge5" class="edge">
<title>state&#45;&gt;rules</title>
<path fill="none" stroke="black" d="M109.14,-117.5C99.51,-117.5 91,-117.5 91,-117.5 91,-117.5 91,-214.57 91,-214.57"/>
<polygon fill="black" stroke="black" points="87.5,-214.57 91,-224.57 94.5,-214.57 87.5,-214.57"/>
</g>
<!-- rules&#45;&gt;head -->
<g id="edge6" class="edge">
<title>rules&#45;&gt;head</title>
<path fill="none" stroke="black" d="M136,-225.8C136,-225.8 136,-220.12 136,-220.12"/>
<polygon fill="black" stroke="black" points="139.5,-220.12 136,-210.12 132.5,-220.12 139.5,-220.12"/>
</g>
<!-- H -->
<g id="node8" class="node">
<title>H</title>
<polygon fill="none" stroke="black" points="413.25,-192.25 329.75,-192.25 329.75,-108.75 413.25,-108.75 413.25,-192.25"/>
<text xml:space="preserve" text-anchor="middle" x="371.5" y="-146.22" font-family="Courier,monospace" font-size="12.00">HALT(M,w)</text>
</g>
<!-- halt&#45;&gt;H -->
<g id="edge8" class="edge">
<title>halt&#45;&gt;H</title>
<path fill="none" stroke="black" d="M290.29,-175.5C290.29,-175.5 318.14,-175.5 318.14,-175.5"/>
<polygon fill="black" stroke="black" points="318.14,-179 328.14,-175.5 318.14,-172 318.14,-179"/>
</g>
<!-- true -->
<g id="node9" class="node">
<title>true</title>
<polygon fill="none" stroke="black" points="286.25,-68.5 240.25,-68.5 240.25,-22.5 286.25,-22.5 286.25,-68.5"/>
<text xml:space="preserve" text-anchor="middle" x="263.25" y="-41.23" font-family="Courier,monospace" font-size="12.00">True</text>
</g>
<!-- H&#45;&gt;true -->
<g id="edge9" class="edge">
<title>H&#45;&gt;true</title>
<path fill="none" stroke="black" d="M329.5,-119.25C317.69,-119.25 308,-119.25 308,-119.25 308,-119.25 308,-53.17 308,-53.17 308,-53.17 298.19,-53.17 298.19,-53.17"/>
<polygon fill="black" stroke="black" points="298.19,-49.67 288.19,-53.17 298.19,-56.67 298.19,-49.67"/>
</g>
<!-- false -->
<g id="node10" class="node">
<title>false</title>
<polygon fill="none" stroke="black" points="290,-140.25 236.5,-140.25 236.5,-86.75 290,-86.75 290,-140.25"/>
<text xml:space="preserve" text-anchor="middle" x="263.25" y="-109.22" font-family="Courier,monospace" font-size="12.00">False</text>
</g>
<!-- H&#45;&gt;false -->
<g id="edge10" class="edge">
<title>H&#45;&gt;false</title>
<path fill="none" stroke="black" d="M329.34,-129.75C329.34,-129.75 301.99,-129.75 301.99,-129.75"/>
<polygon fill="black" stroke="black" points="301.99,-126.25 291.99,-129.75 301.99,-133.25 301.99,-126.25"/>
</g>
<!-- paradox -->
<g id="node11" class="node">
<title>paradox</title>
<polygon fill="none" stroke="black" points="417,-91 326,-91 326,0 417,0 417,-91"/>
<text xml:space="preserve" text-anchor="middle" x="371.5" y="-41.23" font-family="Courier,monospace" font-size="12.00">PARADOX(P)</text>
</g>
<!-- true&#45;&gt;paradox -->
<g id="edge11" class="edge">
<title>true&#45;&gt;paradox</title>
<path fill="none" stroke="black" d="M286.74,-37.83C286.74,-37.83 314.28,-37.83 314.28,-37.83"/>
<polygon fill="black" stroke="black" points="314.28,-41.33 324.28,-37.83 314.28,-34.33 314.28,-41.33"/>
</g>
<!-- false&#45;&gt;paradox -->
<g id="edge12" class="edge">
<title>false&#45;&gt;paradox</title>
<path fill="none" stroke="black" d="M263,-86.31C263,-81.31 263,-77.62 263,-77.62 263,-77.62 314.29,-77.62 314.29,-77.62"/>
<polygon fill="black" stroke="black" points="314.29,-81.13 324.29,-77.63 314.29,-74.13 314.29,-81.13"/>
</g>
<!-- contra1 -->
<g id="node12" class="node">
<title>contra1</title>
<polygon fill="none" stroke="black" points="489,-90.5 453,-90.5 453,-54.5 489,-54.5 489,-90.5"/>
<text xml:space="preserve" text-anchor="middle" x="471" y="-68.22" font-family="Courier,monospace" font-size="12.00">!</text>
</g>
<!-- paradox&#45;&gt;contra1 -->
<g id="edge13" class="edge">
<title>paradox&#45;&gt;contra1</title>
<path fill="none" stroke="black" stroke-dasharray="5,2" d="M417.46,-72.5C417.46,-72.5 441.05,-72.5 441.05,-72.5"/>
<polygon fill="black" stroke="black" points="441.05,-76 451.05,-72.5 441.05,-69 441.05,-76"/>
</g>
<!-- contra2 -->
<g id="node13" class="node">
<title>contra2</title>
<polygon fill="none" stroke="black" points="489,-36.5 453,-36.5 453,-0.5 489,-0.5 489,-36.5"/>
<text xml:space="preserve" text-anchor="middle" x="471" y="-14.22" font-family="Courier,monospace" font-size="12.00">!</text>
</g>
<!-- paradox&#45;&gt;contra2 -->
<g id="edge14" class="edge">
<title>paradox&#45;&gt;contra2</title>
<path fill="none" stroke="black" stroke-dasharray="5,2" d="M417.46,-18.5C417.46,-18.5 441.05,-18.5 441.05,-18.5"/>
<polygon fill="black" stroke="black" points="441.05,-22 451.05,-18.5 441.05,-15 441.05,-22"/>
</g>
</g>
</svg>
