<?xml version="1.0" encoding="UTF-8" standalone="no"?>
<!DOCTYPE svg PUBLIC "-//W3C//DTD SVG 1.1//EN"
 "http://www.w3.org/Graphics/SVG/1.1/DTD/svg11.dtd">
<!-- Generated by graphviz version 14.1.4 (20260321.0153)
 -->
<!-- Pages: 1 -->
<svg width="332pt" height="165pt"
 viewBox="0.00 0.00 332.00 165.00" xmlns="http://www.w3.org/2000/svg" xmlns:xlink="http://www.w3.org/1999/xlink">
<g id="graph0" class="graph" transform="scale(1 1) rotate(0) translate(4 161.36)">
<polygon fill="white" stroke="none" points="-4,4 -4,-161.36 328,-161.36 328,4 -4,4"/>
<!-- P -->
<g id="node1" class="node">
<title>P</title>
<polygon fill="none" stroke="black" points="36,-120 0,-120 0,-84 36,-84 36,-120"/>
<text xml:space="preserve" text-anchor="middle" x="18" y="-96.17" font-family="Courier,monospace" font-size="16.00">P</text>
</g>
<!-- ARROW -->
<g id="node2" class="node">
<title>ARROW</title>
<polygon fill="none" stroke="black" points="108,-120 72,-120 72,-84 108,-84 108,-120"/>
<text xml:space="preserve" text-anchor="middle" x="90" y="-96.17" font-family="Courier,monospace" font-size="16.00">→</text>
</g>
<!-- P&#45;&gt;ARROW -->
<g id="edge1" class="edge">
<title>P&#45;&gt;ARROW</title>
<path fill="none" stroke="black" d="M36.17,-102C36.17,-102 60.07,-102 60.07,-102"/>
<polygon fill="black" stroke="black" points="60.07,-105.5 70.07,-102 60.07,-98.5 60.07,-105.5"/>
</g>
<!-- AND -->
<g id="node3" class="node">
<title>AND</title>
<polygon fill="none" stroke="black" points="180,-78 144,-78 144,-42 180,-42 180,-78"/>
<text xml:space="preserve" text-anchor="middle" x="162" y="-54.55" font-family="Courier,monospace" font-size="16.00">∧</text>
</g>
<!-- ARROW&#45;&gt;AND -->
<g id="edge2" class="edge">
<title>ARROW&#45;&gt;AND</title>
<path fill="none" stroke="black" d="M90,-83.94C90,-72.56 90,-60 90,-60 90,-60 132.32,-60 132.32,-60"/>
<polygon fill="black" stroke="black" points="132.32,-63.5 142.32,-60 132.32,-56.5 132.32,-63.5"/>
</g>
<!-- THER -->
<g id="node4" class="node">
<title>THER</title>
<polygon fill="none" stroke="black" points="252,-78 216,-78 216,-42 252,-42 252,-78"/>
<text xml:space="preserve" text-anchor="middle" x="234" y="-55.3" font-family="Courier,monospace" font-size="16.00">∴</text>
</g>
<!-- AND&#45;&gt;THER -->
<g id="edge3" class="edge">
<title>AND&#45;&gt;THER</title>
<path fill="none" stroke="black" d="M180.17,-60C180.17,-60 204.07,-60 204.07,-60"/>
<polygon fill="black" stroke="black" points="204.07,-63.5 214.07,-60 204.07,-56.5 204.07,-63.5"/>
</g>
<!-- Q -->
<g id="node5" class="node">
<title>Q</title>
<polygon fill="none" stroke="black" points="324,-78 288,-78 288,-42 324,-42 324,-78"/>
<text xml:space="preserve" text-anchor="middle" x="306" y="-54.17" font-family="Courier,monospace" font-size="16.00">Q</text>
</g>
<!-- THER&#45;&gt;Q -->
<g id="edge4" class="edge">
<title>THER&#45;&gt;Q</title>
<path fill="none" stroke="black" d="M252.17,-60C252.17,-60 276.07,-60 276.07,-60"/>
<polygon fill="black" stroke="black" points="276.07,-63.5 286.07,-60 276.07,-56.5 276.07,-63.5"/>
</g>
<!-- Q&#45;&gt;P -->
<g id="edge6" class="edge">
<title>Q&#45;&gt;P</title>
<path fill="none" stroke="black" stroke-dasharray="5,2" d="M306,-78.36C306,-98.65 306,-128.5 306,-128.5 306,-128.5 27,-128.5 27,-128.5 27,-128.5 27,-127.69 27,-127.69"/>
<polygon fill="black" stroke="black" points="30.5,-131.92 27,-121.92 23.5,-131.92 30.5,-131.92"/>
</g>
<!-- DOT -->
<g id="node6" class="node">
<title>DOT</title>
<polygon fill="none" stroke="black" points="36,-36 0,-36 0,0 36,0 36,-36"/>
<text xml:space="preserve" text-anchor="middle" x="18" y="-12.18" font-family="Courier,monospace" font-size="16.00">•</text>
</g>
<!-- DOT&#45;&gt;AND -->
<g id="edge5" class="edge">
<title>DOT&#45;&gt;AND</title>
<path fill="none" stroke="black" d="M36.24,-18C74.99,-18 162,-18 162,-18 162,-18 162,-30.43 162,-30.43"/>
<polygon fill="black" stroke="black" points="158.5,-30.43 162,-40.43 165.5,-30.43 158.5,-30.43"/>
</g>
<!-- space1 -->
<g id="node7" class="node">
<title>space1</title>
<ellipse fill="black" stroke="black" cx="18" cy="-138" rx="0.36" ry="0.36"/>
</g>
<!-- space2 -->
<g id="node8" class="node">
<title>space2</title>
<ellipse fill="black" stroke="black" cx="18" cy="-157" rx="0.36" ry="0.36"/>
</g>
</g>
</svg>
